<svg xmlns="http://www.w3.org/2000/svg" xmlns:xlink="http://www.w3.org/1999/xlink" width="512" zoomAndPan="magnify" viewBox="0 0 384 383.999986" height="512" preserveAspectRatio="xMidYMid meet" version="1.0"><defs><clipPath id="97ed9f0201"><path d="M 128 0 L 256 0 L 256 127.992188 L 128 127.992188 Z M 128 0 " clip-rule="nonzero"/></clipPath><clipPath id="4ea230558e"><path d="M 128 127.992188 L 128 63.992188 L 192 -0.0078125 L 256 63.992188 L 256 127.992188 L 192 63.992188 Z M 128 127.992188 " clip-rule="nonzero"/></clipPath><clipPath id="d153f8df18"><path d="M 127.992188 256 L 255.992188 256 L 255.992188 384 L 127.992188 384 Z M 127.992188 256 " clip-rule="nonzero"/></clipPath><clipPath id="c8d1237bd9"><path d="M 255.992188 256 L 255.992188 320 L 191.992188 384 L 127.992188 320 L 127.992188 256 L 191.992188 320 Z M 255.992188 256 " clip-rule="nonzero"/></clipPath><clipPath id="32bd868fb7"><path d="M 256 128 L 384 128 L 384 256 L 256 256 Z M 256 128 " clip-rule="nonzero"/></clipPath><clipPath id="5f3b105413"><path d="M 256 128 L 320 128 L 384 192 L 320 256 L 256 256 L 320 192 Z M 256 128 " clip-rule="nonzero"/></clipPath><clipPath id="3b92eb1fc0"><path d="M 0 127.992188 L 127.992188 127.992188 L 127.992188 255.992188 L 0 255.992188 Z M 0 127.992188 " clip-rule="nonzero"/></clipPath><clipPath id="ae081dc4dc"><path d="M 127.992188 255.992188 L 63.992188 255.992188 L -0.0078125 191.992188 L 63.992188 127.992188 L 127.992188 127.992188 L 63.992188 191.992188 Z M 127.992188 255.992188 " clip-rule="nonzero"/></clipPath><clipPath id="73782e02e0"><path d="M 159.839844 159.839844 L 224.160156 159.839844 L 224.160156 224.160156 L 159.839844 224.160156 Z M 159.839844 159.839844 " clip-rule="nonzero"/></clipPath><clipPath id="5314ef2ad5"><path d="M 192 159.839844 C 174.238281 159.839844 159.839844 174.238281 159.839844 192 C 159.839844 209.761719 174.238281 224.160156 192 224.160156 C 209.761719 224.160156 224.160156 209.761719 224.160156 192 C 224.160156 174.238281 209.761719 159.839844 192 159.839844 Z M 192 159.839844 " clip-rule="nonzero"/></clipPath></defs><rect x="-38.4" width="460.8" fill="#ffffff" y="-38.399999" height="460.799983" fill-opacity="1"/><rect x="-38.4" width="460.8" fill="#ffffff" y="-38.399999" height="460.799983" fill-opacity="1"/><g clip-path="url(#97ed9f0201)"><g clip-path="url(#4ea230558e)"><path fill="#004aad" d="M 128 127.992188 L 128 -0.0078125 L 256 -0.0078125 L 256 127.992188 Z M 128 127.992188 " fill-opacity="1" fill-rule="nonzero"/></g></g><g clip-path="url(#d153f8df18)"><g clip-path="url(#c8d1237bd9)"><path fill="#004aad" d="M 255.992188 256 L 255.992188 384 L 127.992188 384 L 127.992188 256 Z M 255.992188 256 " fill-opacity="1" fill-rule="nonzero"/></g></g><g clip-path="url(#32bd868fb7)"><g clip-path="url(#5f3b105413)"><path fill="#004aad" d="M 256 128 L 384 128 L 384 256 L 256 256 Z M 256 128 " fill-opacity="1" fill-rule="nonzero"/></g></g><g clip-path="url(#3b92eb1fc0)"><g clip-path="url(#ae081dc4dc)"><path fill="#004aad" d="M 127.992188 255.992188 L -0.0078125 255.992188 L -0.0078125 127.992188 L 127.992188 127.992188 Z M 127.992188 255.992188 " fill-opacity="1" fill-rule="nonzero"/></g></g><g clip-path="url(#73782e02e0)"><g clip-path="url(#5314ef2ad5)"><path fill="#004aad" d="M 159.839844 159.839844 L 224.160156 159.839844 L 224.160156 224.160156 L 159.839844 224.160156 Z M 159.839844 159.839844 " fill-opacity="1" fill-rule="nonzero"/></g></g></svg>