<svg xmlns="http://www.w3.org/2000/svg" xmlns:xlink="http://www.w3.org/1999/xlink" width="512" zoomAndPan="magnify" viewBox="0 0 384 383.999986" height="512" preserveAspectRatio="xMidYMid meet" version="1.0"><defs><clipPath id="f9ea85996b"><path d="M 369.417969 340.222656 L 384 340.222656 L 384 355.582031 L 369.417969 355.582031 Z M 369.417969 340.222656 " clip-rule="nonzero"/></clipPath><clipPath id="2a97202862"><path d="M 370.183594 127.488281 L 384 127.488281 L 384 142 L 370.183594 142 Z M 370.183594 127.488281 " clip-rule="nonzero"/></clipPath></defs><rect x="-38.4" width="460.8" fill="#ffffff" y="-38.399999" height="460.799983" fill-opacity="1"/><rect x="-38.4" width="460.8" fill="#ffffff" y="-38.399999" height="460.799983" fill-opacity="1"/><path fill="#000000" d="M 84.757812 28.660156 L 28.859375 28.660156 L 28.859375 84.589844 L 84.757812 84.589844 L 84.757812 28.660156 " fill-opacity="1" fill-rule="nonzero"/><path fill="#000000" d="M 99.078125 98.921875 L 14.535156 98.921875 L 14.535156 14.332031 L 99.078125 14.332031 Z M 113.402344 0 L 0.210938 0 L 0.210938 113.253906 L 113.402344 113.253906 L 113.402344 0 " fill-opacity="1" fill-rule="nonzero"/><path fill="#000000" d="M 355.28125 28.660156 L 299.382812 28.660156 L 299.382812 84.589844 L 355.28125 84.589844 L 355.28125 28.660156 " fill-opacity="1" fill-rule="nonzero"/><path fill="#000000" d="M 369.601562 98.921875 L 285.0625 98.921875 L 285.0625 14.332031 L 369.601562 14.332031 Z M 383.925781 0 L 270.734375 0 L 270.734375 113.253906 L 383.925781 113.253906 L 383.925781 0 " fill-opacity="1" fill-rule="nonzero"/><path fill="#000000" d="M 28.859375 355.265625 L 84.757812 355.265625 L 84.757812 299.332031 L 28.859375 299.332031 L 28.859375 355.265625 " fill-opacity="1" fill-rule="nonzero"/><path fill="#000000" d="M 14.535156 285.007812 L 99.078125 285.007812 L 99.078125 369.59375 L 14.535156 369.59375 Z M 0.210938 383.925781 L 113.402344 383.925781 L 113.402344 270.671875 L 0.210938 270.671875 L 0.210938 383.925781 " fill-opacity="1" fill-rule="nonzero"/><path fill="#000000" d="M 170.78125 42.9375 L 170.78125 55.925781 L 185.109375 55.925781 L 185.109375 42.9375 L 199.207031 42.9375 L 199.207031 71.578125 L 184.921875 71.578125 L 184.921875 71.605469 L 170.625 71.605469 L 170.625 84.589844 L 156.328125 84.589844 L 156.328125 55.925781 L 142.007812 55.925781 L 142.007812 42.9375 Z M 213.503906 98.921875 L 184.921875 98.921875 L 184.921875 85.90625 L 199.21875 85.90625 L 199.21875 71.605469 L 213.503906 71.605469 Z M 127.683594 141.917969 L 84.757812 141.917969 L 84.757812 156.253906 L 127.691406 156.253906 L 127.691406 170.578125 L 141.984375 170.578125 L 141.984375 213.460938 L 156.308594 213.460938 L 156.308594 156.253906 L 184.921875 156.253906 L 184.921875 141.917969 L 142.007812 141.917969 L 142.007812 84.589844 L 156.328125 84.589844 L 156.328125 98.921875 L 170.625 98.921875 L 170.625 113.253906 L 156.328125 113.253906 L 156.328125 141.917969 L 170.625 141.917969 L 170.625 113.253906 L 184.921875 113.253906 L 184.921875 113.226562 L 213.503906 113.226562 L 213.503906 141.945312 L 199.21875 141.945312 L 199.21875 156.25 L 228.082031 156.25 L 228.082031 183.5625 L 242.378906 183.5625 L 242.378906 141.917969 L 228.082031 141.917969 L 228.082031 141.945312 L 227.824219 141.945312 L 227.824219 57.273438 L 242.136719 57.273438 L 242.136719 71.578125 L 256.464844 71.578125 L 256.464844 42.96875 L 255.210938 42.96875 L 255.210938 42.9375 L 227.824219 42.9375 L 227.824219 28.664062 L 142.007812 28.664062 L 142.007812 14.332031 L 213.511719 14.332031 L 213.511719 0 L 127.738281 0 L 127.738281 14.328125 L 127.683594 14.328125 L 127.683594 141.917969 " fill-opacity="1" fill-rule="nonzero"/><path fill="#000000" d="M 256.449219 28.660156 L 256.449219 0 L 242.152344 0 L 242.152344 14.359375 L 227.824219 14.359375 L 227.824219 28.660156 L 256.449219 28.660156 " fill-opacity="1" fill-rule="nonzero"/><path fill="#000000" d="M 14.535156 170.582031 L 0.210938 170.582031 L 0.210938 184.917969 L 14.535156 184.917969 L 14.535156 213.460938 L 56.136719 213.460938 L 56.136719 227.792969 L 14.535156 227.792969 L 14.535156 242.128906 L 57.476562 242.128906 L 57.476562 256.460938 L 99.078125 256.460938 L 99.078125 242.128906 L 70.433594 242.128906 L 70.433594 199.128906 L 28.832031 199.128906 L 28.832031 184.917969 L 70.433594 184.917969 L 70.433594 170.582031 L 84.757812 170.582031 L 84.757812 156.253906 L 14.535156 156.253906 L 14.535156 170.582031 " fill-opacity="1" fill-rule="nonzero"/><path fill="#000000" d="M 14.507812 141.917969 L 0.210938 141.917969 L 0.210938 156.253906 L 14.507812 156.253906 L 14.507812 141.917969 " fill-opacity="1" fill-rule="nonzero"/><path fill="#000000" d="M 113.402344 242.128906 L 127.699219 242.128906 L 127.699219 213.460938 L 99.105469 213.460938 L 99.105469 227.792969 L 113.402344 227.792969 L 113.402344 242.128906 " fill-opacity="1" fill-rule="nonzero"/><path fill="#000000" d="M 14.535156 127.585938 L 14.535156 141.917969 L 28.832031 141.917969 L 28.832031 127.585938 L 14.535156 127.585938 " fill-opacity="1" fill-rule="nonzero"/><path fill="#000000" d="M 70.433594 127.585938 L 70.433594 141.917969 L 84.730469 141.917969 L 84.730469 127.585938 L 70.433594 127.585938 " fill-opacity="1" fill-rule="nonzero"/><path fill="#000000" d="M 199.21875 127.585938 L 184.921875 127.585938 L 184.921875 141.917969 L 199.21875 141.917969 L 199.21875 127.585938 " fill-opacity="1" fill-rule="nonzero"/><path fill="#000000" d="M 228.082031 183.5625 L 213.757812 183.5625 L 213.757812 242.128906 L 228.082031 242.128906 L 228.082031 183.5625 " fill-opacity="1" fill-rule="nonzero"/><path fill="#000000" d="M 170.605469 227.792969 L 170.605469 213.527344 L 184.863281 213.527344 L 184.863281 199.195312 L 170.570312 199.195312 L 170.570312 213.460938 L 156.308594 213.460938 L 156.308594 227.792969 L 170.605469 227.792969 " fill-opacity="1" fill-rule="nonzero"/><path fill="#000000" d="M 170.609375 170.566406 L 170.609375 184.898438 L 184.90625 184.898438 L 184.90625 199.234375 L 199.203125 199.234375 L 199.203125 170.566406 L 170.609375 170.566406 " fill-opacity="1" fill-rule="nonzero"/><path fill="#000000" d="M 127.699219 184.921875 L 99.101562 184.921875 L 99.101562 170.589844 L 84.804688 170.589844 L 84.804688 199.253906 L 127.699219 199.253906 L 127.699219 184.921875 " fill-opacity="1" fill-rule="nonzero"/><path fill="#000000" d="M 84.730469 227.792969 L 84.730469 213.460938 L 70.433594 213.460938 L 70.433594 227.792969 L 84.730469 227.792969 " fill-opacity="1" fill-rule="nonzero"/><path fill="#000000" d="M 298.273438 197.898438 L 298.273438 212.230469 L 312.570312 212.230469 L 312.570312 197.898438 L 326.867188 197.898438 L 326.867188 183.5625 L 312.570312 183.5625 L 312.570312 169.234375 L 298.273438 169.234375 L 298.273438 183.5625 L 312.570312 183.5625 L 312.570312 197.898438 L 298.273438 197.898438 " fill-opacity="1" fill-rule="nonzero"/><path fill="#000000" d="M 256.554688 299.347656 L 242.226562 299.347656 L 242.226562 327.949219 L 243.484375 327.949219 L 243.484375 327.980469 L 270.863281 327.980469 L 270.863281 313.648438 L 256.554688 313.648438 L 256.554688 299.347656 " fill-opacity="1" fill-rule="nonzero"/><path fill="#000000" d="M 242.402344 242.128906 L 228.105469 242.128906 L 228.105469 256.460938 L 242.402344 256.460938 L 242.402344 270.792969 L 256.695312 270.792969 L 256.695312 242.128906 L 242.402344 242.128906 " fill-opacity="1" fill-rule="nonzero"/><path fill="#000000" d="M 199.199219 313.65625 L 184.902344 313.65625 L 184.902344 327.988281 L 213.496094 327.988281 L 213.496094 326.734375 L 213.523438 326.734375 L 213.523438 299.335938 L 199.199219 299.335938 L 199.199219 313.65625 " fill-opacity="1" fill-rule="nonzero"/><path fill="#000000" d="M 170.625 383.980469 L 213.566406 383.980469 L 213.566406 369.652344 L 170.625 369.652344 L 170.625 383.980469 " fill-opacity="1" fill-rule="nonzero"/><path fill="#000000" d="M 156.308594 355.265625 L 156.308594 355.324219 L 141.984375 355.324219 L 141.984375 369.640625 L 127.6875 369.640625 L 127.6875 383.976562 L 156.277344 383.976562 L 156.277344 382.722656 L 156.308594 382.722656 L 156.308594 369.597656 L 170.605469 369.597656 L 170.605469 340.933594 L 156.308594 340.933594 L 156.308594 355.265625 " fill-opacity="1" fill-rule="nonzero"/><path fill="#000000" d="M 127.6875 340.992188 L 127.6875 355.324219 L 141.984375 355.324219 L 141.984375 340.992188 L 127.6875 340.992188 " fill-opacity="1" fill-rule="nonzero"/><path fill="#000000" d="M 242.402344 113.242188 L 256.695312 113.242188 L 256.695312 85.90625 L 242.402344 85.90625 L 242.402344 113.242188 " fill-opacity="1" fill-rule="nonzero"/><path fill="#000000" d="M 199.171875 213.511719 L 184.875 213.511719 L 184.875 227.839844 L 199.171875 227.839844 L 199.171875 213.511719 " fill-opacity="1" fill-rule="nonzero"/><path fill="#000000" d="M 383.945312 298.105469 L 369.621094 298.105469 L 369.621094 283.894531 L 369.617188 283.894531 L 369.617188 269.5625 L 328.019531 269.5625 L 328.019531 255.226562 L 369.617188 255.226562 L 369.617188 240.898438 L 326.925781 240.898438 L 326.925781 226.5625 L 341.21875 226.5625 L 341.21875 212.230469 L 326.925781 212.230469 L 326.925781 226.5625 L 298.273438 226.5625 L 298.273438 183.5625 L 284.394531 183.5625 L 284.394531 170.578125 L 270.101562 170.578125 L 270.101562 183.5625 L 242.378906 183.5625 L 242.378906 197.898438 L 283.980469 197.898438 L 283.980469 212.230469 L 242.378906 212.230469 L 242.378906 226.5625 L 256.695312 226.5625 L 256.695312 242.128906 L 270.992188 242.128906 L 270.992188 226.5625 L 285.320312 226.5625 L 285.320312 240.898438 L 313.722656 240.898438 L 313.722656 283.894531 L 355.324219 283.894531 L 355.324219 298.105469 L 313.722656 298.105469 L 313.722656 312.4375 L 285.078125 312.4375 L 285.078125 326.773438 L 355.296875 326.773438 L 355.296875 312.4375 L 383.945312 312.4375 L 383.945312 298.105469 " fill-opacity="1" fill-rule="nonzero"/><path fill="#000000" d="M 242.183594 369.550781 L 227.945312 369.550781 L 227.945312 356.625 L 229.121094 356.625 L 229.121094 356.65625 L 256.25 356.65625 L 256.25 369.550781 Z M 256.503906 342.320312 L 242.195312 342.320312 L 242.195312 328.015625 L 227.945312 328.015625 L 227.945312 328.003906 L 213.648438 328.003906 L 213.648438 342.335938 L 227.867188 342.335938 L 227.867188 355.261719 L 213.648438 355.261719 L 213.648438 369.59375 L 227.929688 369.59375 L 227.929688 383.882812 L 256.480469 383.882812 L 256.480469 369.8125 L 270.546875 369.8125 L 270.546875 355.480469 L 256.503906 355.480469 L 256.503906 342.320312 " fill-opacity="1" fill-rule="nonzero"/><path fill="#000000" d="M 199.242188 355.308594 L 199.242188 340.972656 L 184.945312 340.972656 L 184.945312 355.308594 L 199.242188 355.308594 " fill-opacity="1" fill-rule="nonzero"/><path fill="#000000" d="M 326.867188 369.640625 L 312.570312 369.640625 L 312.570312 383.976562 L 341.164062 383.976562 L 341.164062 382.722656 L 341.195312 382.722656 L 341.195312 355.324219 L 326.867188 355.324219 L 326.867188 369.640625 " fill-opacity="1" fill-rule="nonzero"/><g clip-path="url(#f9ea85996b)"><path fill="#000000" d="M 369.832031 355.308594 L 384.128906 355.308594 L 384.128906 340.972656 L 369.832031 340.972656 L 369.832031 355.308594 " fill-opacity="1" fill-rule="nonzero"/></g><path fill="#000000" d="M 285.078125 355.308594 L 299.398438 355.308594 L 299.398438 340.972656 L 285.078125 340.972656 L 285.078125 355.308594 " fill-opacity="1" fill-rule="nonzero"/><path fill="#000000" d="M 370.265625 141.902344 L 341.628906 141.902344 L 341.628906 127.585938 L 327.332031 127.585938 L 327.332031 141.902344 L 299.835938 141.902344 L 299.835938 127.585938 L 285.542969 127.585938 L 285.542969 127.597656 L 242.378906 127.597656 L 242.378906 141.902344 L 270.101562 141.902344 L 270.101562 156.238281 L 341.21875 156.238281 L 341.21875 169.234375 L 355.515625 169.234375 L 355.515625 156.238281 L 370.265625 156.238281 L 370.265625 141.902344 " fill-opacity="1" fill-rule="nonzero"/><g clip-path="url(#2a97202862)"><path fill="#000000" d="M 370.265625 127.585938 L 370.265625 141.917969 L 384.5625 141.917969 L 384.5625 127.585938 L 370.265625 127.585938 " fill-opacity="1" fill-rule="nonzero"/></g><path fill="#000000" d="M 341.21875 226.5625 L 355.515625 226.5625 L 355.515625 212.230469 L 369.808594 212.230469 L 369.808594 197.898438 L 355.515625 197.898438 L 355.515625 212.230469 L 341.21875 212.230469 L 341.21875 226.5625 " fill-opacity="1" fill-rule="nonzero"/><path fill="#000000" d="M 355.515625 183.5625 L 341.21875 183.5625 L 341.21875 197.898438 L 355.515625 197.898438 L 355.515625 183.5625 " fill-opacity="1" fill-rule="nonzero"/><path fill="#000000" d="M 255.804688 156.25 L 255.804688 170.578125 L 270.101562 170.578125 L 270.101562 156.25 L 255.804688 156.25 " fill-opacity="1" fill-rule="nonzero"/><path fill="#000000" d="M 299.398438 270.792969 L 299.398438 256.488281 L 270.75 256.488281 L 270.75 285.007812 L 242.359375 285.007812 L 242.359375 270.792969 L 228.0625 270.792969 L 228.0625 285.007812 L 213.523438 285.007812 L 213.523438 256.460938 L 199.199219 256.460938 L 199.199219 270.792969 L 170.605469 270.792969 L 170.605469 256.460938 L 184.902344 256.460938 L 184.902344 242.128906 L 156.304688 242.128906 L 156.304688 227.792969 L 142.011719 227.792969 L 142.011719 256.460938 L 156.308594 256.460938 L 156.308594 270.792969 L 127.75 270.792969 L 127.75 285.125 L 142 285.125 L 142 299.335938 L 156.296875 299.335938 L 156.296875 285.125 L 170.570312 285.125 L 170.570312 313.671875 L 141.996094 313.671875 L 141.996094 299.335938 L 127.703125 299.335938 L 127.703125 328.003906 L 170.597656 328.003906 L 170.597656 313.671875 L 184.863281 313.671875 L 184.863281 285.125 L 213.523438 285.125 L 213.523438 299.335938 L 270.847656 299.335938 L 270.847656 285.097656 L 285.078125 285.097656 L 285.078125 299.335938 L 299.398438 299.335938 L 299.398438 285.007812 L 285.078125 285.007812 L 285.078125 270.792969 L 299.398438 270.792969 " fill-opacity="1" fill-rule="nonzero"/></svg>