<svg xmlns="http://www.w3.org/2000/svg" xmlns:xlink="http://www.w3.org/1999/xlink" width="50" zoomAndPan="magnify" viewBox="0 0 37.5 37.499999" height="50" preserveAspectRatio="xMidYMid meet" version="1.0"><path fill="#ffffff" d="M 9.167969 7.886719 C 9.78125 8.429688 10.546875 9.023438 11.195312 9.523438 C 11.492188 9.753906 11.839844 9.984375 12.09375 10.257812 C 11.9375 10.558594 11.820312 10.820312 11.515625 11 C 10.789062 10.925781 9.269531 9.226562 8.464844 8.777344 L 8.804688 8.320312 C 8.917969 8.175781 9.019531 8 9.167969 7.886719 Z M 9.167969 7.886719 " fill-opacity="1" fill-rule="nonzero"/><path fill="#ffffff" d="M 28.148438 7.835938 C 28.226562 7.871094 28.660156 8.515625 28.804688 8.648438 C 28.480469 8.976562 26.003906 10.949219 25.640625 11 C 25.386719 10.804688 25.179688 10.601562 25.019531 10.324219 C 25.160156 10.085938 25.414062 9.910156 25.625 9.738281 L 26.945312 8.714844 C 27.28125 8.472656 27.855469 8.128906 28.148438 7.835938 Z M 28.148438 7.835938 " fill-opacity="1" fill-rule="nonzero"/><path fill="#ffffff" d="M 11.546875 25.558594 C 11.710938 25.746094 11.882812 25.929688 12.023438 26.136719 C 12.0625 26.195312 12.128906 26.339844 12.191406 26.367188 C 12.039062 26.695312 10.753906 27.488281 10.414062 27.734375 L 9.53125 28.382812 C 9.402344 28.480469 9.273438 28.589844 9.132812 28.667969 C 9.085938 28.652344 9.042969 28.59375 9.007812 28.554688 L 8.683594 28.183594 C 8.609375 28.101562 8.519531 28.035156 8.449219 27.949219 C 8.761719 27.53125 10.21875 26.457031 10.652344 26.164062 C 10.945312 25.96875 11.285156 25.792969 11.546875 25.558594 Z M 11.546875 25.558594 " fill-opacity="1" fill-rule="nonzero"/><path fill="#ffffff" d="M 25.703125 25.660156 L 28.792969 27.972656 C 28.78125 28.09375 28.714844 28.132812 28.644531 28.226562 L 28.355469 28.609375 C 28.300781 28.6875 28.242188 28.800781 28.15625 28.84375 L 28.066406 28.792969 C 28.015625 28.71875 27.894531 28.652344 27.820312 28.601562 L 26.046875 27.289062 C 25.664062 27.007812 25.304688 26.722656 24.972656 26.386719 C 25.1875 26.15625 25.34375 25.699219 25.703125 25.660156 Z M 25.703125 25.660156 " fill-opacity="1" fill-rule="nonzero"/><path fill="#ffffff" d="M 25.496094 17.535156 C 25.6875 17.058594 26.597656 16.394531 27.101562 16.414062 L 27.300781 16.417969 C 28.082031 16.53125 28.699219 16.90625 28.816406 17.726562 L 32.425781 17.71875 L 32.417969 18.558594 C 32.417969 18.671875 32.433594 18.804688 32.414062 18.914062 L 28.945312 18.871094 C 28.816406 18.871094 28.773438 18.839844 28.707031 18.96875 C 28.308594 19.765625 26.988281 19.660156 26.265625 19.585938 C 26.03125 19.507812 25.75 19.507812 25.503906 19.480469 L 25.507812 19.730469 L 25.484375 19.703125 C 25.484375 19.65625 25.492188 19.585938 25.472656 19.542969 L 25.457031 19.503906 C 25.398438 19.355469 25.425781 19.089844 25.425781 18.925781 L 25.421875 18.175781 C 25.421875 17.96875 25.417969 17.730469 25.496094 17.535156 Z M 25.496094 17.535156 " fill-opacity="1" fill-rule="nonzero"/><path fill="#ffffff" d="M 10.035156 16.417969 L 10.734375 16.421875 C 10.996094 16.421875 11.824219 16.328125 12.050781 16.46875 L 12.050781 16.5 C 12.050781 16.59375 12.074219 16.695312 12.085938 16.789062 L 12.148438 17.375 C 12.167969 17.605469 12.21875 19.304688 12.148438 19.503906 C 12.050781 19.503906 11.933594 19.789062 11.839844 19.808594 C 11.808594 19.804688 11.113281 19.589844 11.0625 19.597656 L 11.054688 19.605469 L 10.125 19.613281 C 9.617188 19.609375 8.703125 19.613281 8.5 19.03125 C 8.480469 18.976562 8.453125 18.925781 8.425781 18.871094 L 4.71875 18.847656 C 4.660156 18.765625 4.691406 17.859375 4.691406 17.695312 C 5.074219 17.753906 5.726562 17.730469 6.109375 17.730469 L 8.375 17.734375 C 8.386719 17.59375 8.386719 17.441406 8.429688 17.304688 L 8.457031 17.210938 C 8.65625 16.613281 9.492188 16.441406 10.035156 16.417969 Z M 10.035156 16.417969 " fill-opacity="1" fill-rule="nonzero"/><path fill="#ffffff" d="M 16.765625 25.167969 C 16.914062 25.050781 20.109375 25.023438 20.417969 25.128906 L 20.417969 25.425781 L 20.390625 27.148438 C 20.167969 28.1875 19.53125 27.714844 19.1875 27.90625 C 19.140625 28.230469 19.152344 28.5625 19.152344 28.890625 L 19.148438 31.292969 C 19.148438 31.519531 19.066406 32.402344 19.328125 32.5 C 19.234375 32.53125 18.125 32.515625 18.019531 32.476562 L 17.976562 27.90625 C 17.902344 27.90625 18.007812 27.902344 17.671875 27.882812 C 17.339844 27.863281 16.976562 27.679688 16.800781 26.886719 Z M 16.765625 25.167969 " fill-opacity="1" fill-rule="nonzero"/><path fill="#ffffff" d="M 17.648438 4.253906 C 17.769531 4.171875 17.898438 4.28125 18.027344 4.316406 C 18.308594 4.386719 18.84375 4.464844 19.136719 4.398438 L 19.148438 6.796875 L 19.152344 8.570312 C 19.558594 8.558594 19.910156 8.585938 20.269531 8.804688 C 20.417969 9.195312 20.402344 9.503906 20.402344 9.917969 L 20.402344 11.324219 L 18.988281 11.417969 L 16.816406 11.367188 C 16.691406 10.816406 16.667969 9.292969 17 8.789062 C 17.332031 8.675781 17.660156 8.621094 18.007812 8.589844 L 17.992188 5.890625 C 17.992188 5.527344 18.007812 4.835938 17.976562 4.472656 C 17.960938 4.308594 17.785156 4.316406 17.648438 4.253906 Z M 17.648438 4.253906 " fill-opacity="1" fill-rule="nonzero"/><path fill="#a6a6a6" d="M 12.328125 9.867188 C 13.226562 9.191406 14.179688 8.742188 15.5 8.742188 C 16.003906 8.742188 16.496094 8.742188 17 8.785156 C 16.667969 9.292969 16.691406 10.816406 16.816406 11.378906 L 16.796875 11.390625 C 16.691406 11.453125 16.433594 11.421875 14.675781 13.234375 C 12.914062 15.046875 11.910156 15.246094 11.839844 16.3125 C 11.835938 16.359375 12.078125 16.5 11.824219 16.523438 C 11.585938 16.378906 10.996094 16.421875 10.734375 16.421875 L 10.035156 16.417969 C 10.019531 16.324219 9.90625 16.210938 9.851562 16.136719 C 9.304688 15.394531 8.699219 14.421875 9.175781 13.503906 C 9.59375 12.703125 10.125 12.582031 10.90625 12.332031 C 11.355469 12.1875 11.269531 11.425781 11.511719 11.003906 C 11.746094 10.601562 11.957031 10.148438 12.328125 9.867188 Z M 12.328125 9.867188 " fill-opacity="1" fill-rule="nonzero"/><path fill="#a6a6a6" d="M 11.855469 19.503906 C 11.808594 19.953125 12.105469 20.085938 14.371094 22.421875 C 16.636719 24.761719 16.585938 25.253906 16.773438 25.175781 L 16.796875 26.886719 L 16.738281 26.902344 C 16.523438 26.863281 15.429688 27.695312 15.390625 27.855469 C 14.433594 28.15625 13.425781 27.457031 12.621094 26.902344 C 12.457031 26.789062 12.359375 26.597656 12.238281 26.4375 C 12.160156 26.34375 12.097656 26.234375 12.023438 26.136719 C 11.871094 25.9375 11.6875 25.765625 11.546875 25.558594 C 11.261719 25.144531 11.320312 24.328125 10.800781 24.246094 C 8.476562 23.875 8.480469 21.53125 10.144531 20.253906 C 10.441406 20.027344 10.769531 19.84375 11.054688 19.601562 L 11.0625 19.597656 C 11.113281 19.589844 11.285156 19.582031 11.394531 19.570312 C 11.550781 19.550781 11.855469 19.503906 11.855469 19.503906 Z M 11.855469 19.503906 " fill-opacity="1" fill-rule="nonzero"/><path fill="#a6a6a6" d="M 20.269531 8.804688 C 20.617188 8.707031 21.027344 8.742188 21.386719 8.742188 C 23.320312 8.738281 23.945312 9.558594 25.019531 10.324219 C 25.265625 10.5 25.476562 10.742188 25.640625 11 C 25.882812 11.386719 25.988281 12.128906 26.144531 12.277344 C 26.300781 12.429688 26.640625 12.488281 26.847656 12.578125 C 28.5625 13.320312 27.910156 15.136719 27.40625 16.277344 C 27.09375 16.972656 25.6875 17.058594 25.496094 17.535156 C 25.441406 17.445312 23.71875 16.824219 21.96875 14.136719 L 20.390625 11.347656 L 20.402344 9.917969 C 20.402344 9.503906 20.417969 9.195312 20.269531 8.804688 Z M 20.269531 8.804688 " fill-opacity="1" fill-rule="nonzero"/><path fill="#a6a6a6" d="M 25.121094 19.613281 L 25.050781 19.023438 C 25.292969 19.054688 26.230469 19.390625 26.679688 19.785156 C 27.363281 20.390625 28.078125 21.21875 28.132812 22.105469 C 28.214844 23.378906 26.773438 23.449219 26.28125 24.257812 C 26.015625 24.6875 25.984375 25.238281 25.703125 25.660156 C 25.511719 25.945312 25.210938 26.117188 24.984375 26.367188 C 24.816406 26.554688 24.671875 26.789062 24.507812 26.96875 C 23.949219 27.585938 23.03125 27.84375 22.210938 27.84375 C 21.558594 27.84375 20.84375 27.234375 20.386719 27.148438 L 20.402344 25.425781 L 20.449219 24.382812 C 21.578125 24.539062 22.824219 24.488281 23.734375 23.863281 C 24.828125 23.117188 24.769531 22.757812 24.769531 21.566406 Z M 25.121094 19.613281 " fill-opacity="1" fill-rule="nonzero"/><path fill="#d9d9d9" d="M 16.800781 26.886719 C 17.015625 27.65625 17.410156 27.800781 17.671875 27.882812 L 17.65625 27.964844 C 17.496094 28.414062 15.933594 28.929688 15.390625 27.855469 C 15.429688 27.695312 16.523438 26.863281 16.738281 26.902344 Z M 16.800781 26.886719 " fill-opacity="1" fill-rule="nonzero"/><path fill="#d9d9d9" d="M 33.105469 16.441406 C 34.746094 15.300781 36.988281 16.707031 36.582031 18.816406 C 36.347656 20.007812 35.09375 20.757812 33.925781 20.515625 L 33.632812 20.433594 C 33.078125 20.25 32.578125 19.804688 32.308594 19.289062 C 32.089844 18.867188 32.078125 18.472656 32.160156 17.878906 C 32.257812 17.160156 32.648438 16.761719 33.105469 16.441406 Z M 33.105469 16.441406 " fill-opacity="1" fill-rule="nonzero"/><path fill="#d9d9d9" d="M 2.25 20.5 L 2.21875 20.488281 C 0.753906 20.109375 0.015625 18.382812 0.875 17.074219 C 1.90625 15.511719 4.589844 15.980469 4.851562 17.960938 C 5.078125 19.722656 3.308594 20.773438 2.25 20.5 Z M 2.25 20.5 " fill-opacity="1" fill-rule="nonzero"/><path fill="#d9d9d9" d="M 20.378906 35.621094 C 19.570312 36.597656 18.046875 36.738281 17.078125 35.910156 C 15.78125 34.800781 16.152344 32.707031 17.6875 32.050781 C 18.109375 31.875 18.75 31.820312 19.332031 32.039062 C 20.710938 32.558594 21.332031 34.472656 20.378906 35.621094 Z M 20.378906 35.621094 " fill-opacity="1" fill-rule="nonzero"/><path fill="#d9d9d9" d="M 18.847656 0.171875 C 19.628906 0.222656 20.386719 0.78125 20.683594 1.5 C 21.207031 2.761719 20.574219 4.085938 19.582031 4.625 C 18.949219 4.964844 17.710938 5.074219 16.808594 4.015625 C 15.929688 2.984375 16.199219 0 18.847656 0.171875 Z M 18.847656 0.171875 " fill-opacity="1" fill-rule="nonzero"/><path fill="#d9d9d9" d="M 8.890625 31.25 C 8.007812 32.164062 6.503906 32.289062 5.574219 31.375 C 4.050781 29.875 5.152344 27.402344 7.308594 27.445312 C 7.6875 27.453125 8.527344 27.421875 9.070312 28.261719 C 9.75 29.308594 9.4375 30.6875 8.890625 31.25 Z M 8.890625 31.25 " fill-opacity="1" fill-rule="nonzero"/><path fill="#d9d9d9" d="M 28.664062 5.023438 C 30.785156 3.542969 33.421875 6.199219 31.863281 8.195312 C 31.039062 9.246094 29.367188 9.613281 28.222656 8.40625 C 27.074219 7.191406 27.75 5.660156 28.664062 5.023438 Z M 28.664062 5.023438 " fill-opacity="1" fill-rule="nonzero"/><path fill="#d9d9d9" d="M 29.753906 27.453125 C 31.9375 27.320312 33.152344 29.722656 31.699219 31.285156 C 31.242188 31.777344 30.585938 32.011719 29.929688 32.027344 L 29.730469 32.019531 C 28.375 31.878906 27.59375 30.523438 27.710938 29.246094 C 27.734375 29.011719 27.898438 28.46875 28.328125 28.023438 C 28.785156 27.554688 29.316406 27.480469 29.753906 27.453125 Z M 29.753906 27.453125 " fill-opacity="1" fill-rule="nonzero"/><path fill="#d9d9d9" d="M 7.734375 9.160156 C 5.605469 9.5 4.019531 7.277344 5.324219 5.511719 C 6.066406 4.507812 7.625 4.308594 8.621094 5.0625 C 9.476562 5.714844 9.773438 7 9.226562 8.015625 C 8.773438 8.863281 7.921875 9.128906 7.734375 9.160156 Z M 7.734375 9.160156 " fill-opacity="1" fill-rule="nonzero"/><path fill="#d9d9d9" d="M 23.175781 11.371094 C 24.273438 11.480469 25.203125 12.296875 25.457031 13.359375 C 25.570312 13.824219 25.503906 15.800781 25.515625 17.023438 C 25.527344 18.574219 25.523438 21.671875 25.523438 21.671875 C 25.523438 22.863281 25.542969 23.910156 24.453125 24.65625 C 23.539062 25.28125 21.449219 25.257812 18.101562 25.28125 C 14.773438 25.304688 13.230469 25.355469 12.296875 24.222656 C 11.527344 23.292969 11.625 22.132812 11.625 21 C 11.621094 20.546875 11.613281 20.105469 11.617188 19.65625 C 11.625 18.917969 11.664062 18.179688 11.664062 17.441406 C 11.664062 16.980469 11.625 16.519531 11.628906 16.058594 C 11.644531 15.089844 11.449219 14.203125 11.78125 13.15625 C 12.25 11.703125 13.414062 11.363281 15.199219 11.324219 C 16.789062 11.289062 18.0625 11.308594 19.496094 11.320312 C 20.722656 11.328125 22.796875 11.335938 23.175781 11.371094 Z M 23.175781 11.371094 " fill-opacity="1" fill-rule="nonzero"/><path fill="#000000" d="M 21.898438 13.921875 C 22.667969 13.871094 22.484375 14.933594 22.484375 15.414062 L 22.480469 21.773438 C 22.472656 22.050781 22.273438 22.273438 22.03125 22.390625 C 21.269531 22.554688 21.476562 21.234375 21.476562 20.820312 L 21.476562 14.800781 C 21.480469 14.644531 21.457031 14.449219 21.503906 14.296875 L 21.507812 14.277344 C 21.566406 14.074219 21.703125 13.988281 21.898438 13.921875 Z M 21.898438 13.921875 " fill-opacity="1" fill-rule="nonzero"/><path fill="#000000" d="M 16.792969 13.769531 C 16.703125 13.769531 16.609375 13.777344 16.511719 13.796875 C 15.742188 13.902344 15.382812 14.355469 15.203125 15.0625 C 14.886719 16.3125 14.730469 17.617188 14.492188 18.882812 L 13.960938 21.488281 C 13.933594 21.648438 13.898438 21.835938 13.921875 22 L 13.929688 22.058594 C 13.976562 22.332031 14.226562 22.523438 14.5 22.464844 C 14.960938 22.363281 15.027344 21.179688 15.085938 20.832031 L 15.285156 19.910156 C 15.507812 19.9375 15.734375 19.929688 15.957031 19.929688 L 16.964844 19.929688 L 18.25 19.933594 C 18.285156 20.035156 18.292969 20.148438 18.3125 20.253906 L 18.457031 21.050781 C 18.515625 21.40625 18.558594 21.824219 18.714844 22.148438 C 18.996094 22.71875 19.648438 22.230469 19.597656 21.765625 C 19.574219 21.574219 19.527344 21.386719 19.488281 21.199219 L 18.257812 15.402344 C 18.078125 14.597656 17.65625 13.769531 16.792969 13.769531 Z M 16.699219 14.75 C 17.21875 14.785156 17.285156 15.402344 17.363281 15.808594 L 17.953125 18.628906 C 17.964844 18.703125 17.96875 18.785156 17.992188 18.855469 L 16.753906 18.871094 C 16.617188 18.890625 16.464844 18.875 16.328125 18.875 L 15.449219 18.886719 L 15.921875 16.488281 C 16.03125 15.902344 16.007812 14.851562 16.699219 14.75 Z M 16.699219 14.75 " fill-opacity="1" fill-rule="nonzero"/></svg>