<svg xmlns="http://www.w3.org/2000/svg" xmlns:xlink="http://www.w3.org/1999/xlink" width="50" zoomAndPan="magnify" viewBox="0 0 37.5 37.499999" height="50" preserveAspectRatio="xMidYMid meet" version="1.0"><defs><clipPath id="74de6a9c70"><path d="M 17 31 L 21 31 L 21 34.371094 L 17 34.371094 Z M 17 31 " clip-rule="nonzero"/></clipPath><clipPath id="e37458978f"><path d="M 17 2.542969 L 21 2.542969 L 21 6 L 17 6 Z M 17 2.542969 " clip-rule="nonzero"/></clipPath><clipPath id="7e7bef5213"><path d="M 17 2.542969 L 22 2.542969 L 22 7 L 17 7 Z M 17 2.542969 " clip-rule="nonzero"/></clipPath><clipPath id="12a7fe7cd7"><path d="M 33 11 L 37.007812 11 L 37.007812 16 L 33 16 Z M 33 11 " clip-rule="nonzero"/></clipPath><clipPath id="ba58719899"><path d="M 17 30 L 22 30 L 22 34.371094 L 17 34.371094 Z M 17 30 " clip-rule="nonzero"/></clipPath><clipPath id="1341806ea3"><path d="M 33 21 L 37.007812 21 L 37.007812 26 L 33 26 Z M 33 21 " clip-rule="nonzero"/></clipPath></defs><path fill="#ffffff" d="M 30.195312 10.28125 C 30.195312 9.453125 29.523438 8.773438 28.683594 8.773438 C 27.855469 8.773438 27.175781 9.453125 27.175781 10.28125 C 27.175781 11.113281 27.847656 11.789062 28.683594 11.789062 C 29.523438 11.789062 30.195312 11.113281 30.195312 10.28125 Z M 30.195312 10.28125 " fill-opacity="1" fill-rule="evenodd"/><path fill="#ffffff" d="M 35.097656 21.664062 C 34.265625 21.664062 33.585938 22.332031 33.585938 23.171875 C 33.585938 24 34.257812 24.679688 35.097656 24.679688 C 35.925781 24.679688 36.605469 24.007812 36.605469 23.171875 C 36.605469 22.339844 35.925781 21.664062 35.097656 21.664062 Z M 35.097656 21.664062 " fill-opacity="1" fill-rule="evenodd"/><g clip-path="url(#74de6a9c70)"><path fill="#ffffff" d="M 20.992188 32.546875 C 20.992188 32.128906 20.824219 31.753906 20.546875 31.484375 C 20.273438 31.214844 19.894531 31.039062 19.484375 31.039062 C 18.652344 31.039062 17.976562 31.710938 17.976562 32.546875 C 17.976562 33.378906 18.652344 34.058594 19.484375 34.058594 C 20.3125 34.058594 20.992188 33.386719 20.992188 32.546875 Z M 20.992188 32.546875 " fill-opacity="1" fill-rule="evenodd"/></g><path fill="#ffffff" d="M 32.800781 4.316406 C 31.96875 4.316406 31.292969 4.996094 31.292969 5.824219 C 31.292969 6.652344 31.960938 7.332031 32.800781 7.332031 C 33.628906 7.332031 34.308594 6.652344 34.308594 5.824219 C 34.308594 4.996094 33.636719 4.316406 32.800781 4.316406 Z M 32.800781 4.316406 " fill-opacity="1" fill-rule="evenodd"/><path fill="#ffffff" d="M 34.058594 18.503906 C 34.058594 17.671875 33.386719 16.996094 32.546875 16.996094 C 31.71875 16.996094 31.039062 17.671875 31.039062 18.503906 C 31.039062 19.332031 31.710938 20.011719 32.546875 20.011719 C 33.378906 20.011719 34.058594 19.339844 34.058594 18.503906 Z M 34.058594 18.503906 " fill-opacity="1" fill-rule="evenodd"/><path fill="#ffffff" d="M 32.800781 29.683594 C 31.96875 29.683594 31.292969 30.351562 31.292969 31.191406 C 31.292969 32.019531 31.960938 32.699219 32.800781 32.699219 C 33.628906 32.699219 34.308594 32.027344 34.308594 31.191406 C 34.308594 30.351562 33.636719 29.683594 32.800781 29.683594 Z M 32.800781 29.683594 " fill-opacity="1" fill-rule="evenodd"/><g clip-path="url(#e37458978f)"><path fill="#ffffff" d="M 17.976562 4.464844 C 17.976562 5.296875 18.652344 5.976562 19.484375 5.976562 C 19.902344 5.976562 20.28125 5.808594 20.546875 5.53125 C 20.824219 5.253906 20.992188 4.878906 20.992188 4.464844 C 20.992188 3.636719 20.320312 2.957031 19.484375 2.957031 C 18.652344 2.957031 17.976562 3.628906 17.976562 4.464844 Z M 17.976562 4.464844 " fill-opacity="1" fill-rule="evenodd"/></g><path fill="#ffffff" d="M 35.097656 12.335938 C 34.265625 12.335938 33.585938 13.015625 33.585938 13.84375 C 33.585938 14.671875 34.257812 15.351562 35.097656 15.351562 C 35.925781 15.351562 36.605469 14.671875 36.605469 13.84375 C 36.605469 13.015625 35.925781 12.335938 35.097656 12.335938 Z M 35.097656 12.335938 " fill-opacity="1" fill-rule="evenodd"/><path fill="#ffffff" d="M 30.195312 26.734375 C 30.195312 26.933594 30.15625 27.125 30.078125 27.308594 C 30.003906 27.496094 29.894531 27.65625 29.75 27.800781 C 29.609375 27.941406 29.445312 28.050781 29.261719 28.125 C 29.078125 28.203125 28.886719 28.242188 28.683594 28.242188 C 28.484375 28.242188 28.292969 28.203125 28.109375 28.125 C 27.921875 28.050781 27.761719 27.941406 27.617188 27.800781 C 27.476562 27.65625 27.367188 27.496094 27.292969 27.308594 C 27.214844 27.125 27.175781 26.933594 27.175781 26.734375 C 27.175781 26.53125 27.214844 26.339844 27.292969 26.15625 C 27.367188 25.96875 27.476562 25.808594 27.617188 25.664062 C 27.761719 25.523438 27.921875 25.414062 28.109375 25.339844 C 28.292969 25.261719 28.484375 25.222656 28.683594 25.222656 C 28.886719 25.222656 29.078125 25.261719 29.261719 25.339844 C 29.445312 25.414062 29.609375 25.523438 29.75 25.664062 C 29.894531 25.808594 30.003906 25.96875 30.078125 26.15625 C 30.15625 26.339844 30.195312 26.53125 30.195312 26.734375 Z M 30.195312 26.734375 " fill-opacity="1" fill-rule="nonzero"/><path fill="#ffffff" d="M 14.808594 13.601562 C 15.027344 13.601562 15.242188 13.617188 15.453125 13.644531 L 15.453125 4.097656 L 13.617188 4.097656 C 13.183594 4.097656 12.855469 4.457031 12.820312 4.894531 L 12.554688 8.816406 C 11.472656 9.066406 10.457031 9.496094 9.535156 10.066406 L 6.578125 7.476562 C 6.25 7.191406 5.765625 7.164062 5.457031 7.476562 L 3.78125 9.160156 C 3.46875 9.46875 3.496094 9.945312 3.78125 10.28125 L 6.359375 13.25 C 5.789062 14.164062 5.363281 15.175781 5.113281 16.265625 L 1.191406 16.535156 C 0.753906 16.566406 0.394531 16.894531 0.394531 17.328125 L 0.394531 19.710938 C 0.394531 20.144531 0.753906 20.472656 1.191406 20.507812 L 5.113281 20.773438 C 5.363281 21.855469 5.789062 22.871094 6.359375 23.792969 L 3.78125 26.757812 C 3.496094 27.085938 3.46875 27.570312 3.78125 27.878906 L 5.464844 29.566406 C 5.773438 29.875 6.25 29.851562 6.585938 29.566406 L 9.554688 26.984375 C 10.464844 27.554688 11.480469 27.980469 12.570312 28.234375 L 12.839844 32.15625 C 12.871094 32.589844 13.199219 32.949219 13.632812 32.949219 L 15.46875 32.949219 L 15.46875 23.371094 C 15.261719 23.398438 15.042969 23.414062 14.824219 23.414062 C 12.117188 23.414062 9.921875 21.21875 9.921875 18.511719 C 9.921875 15.804688 12.101562 13.601562 14.808594 13.601562 Z M 14.808594 13.601562 " fill-opacity="1" fill-rule="evenodd"/><path fill="#d9d9d9" d="M 15.453125 33.320312 L 13.617188 33.320312 C 12.980469 33.320312 12.46875 32.816406 12.425781 32.15625 L 12.175781 28.527344 C 11.269531 28.292969 10.398438 27.929688 9.585938 27.453125 L 6.847656 29.839844 C 6.34375 30.277344 5.625 30.269531 5.179688 29.824219 L 3.496094 28.140625 C 3.050781 27.6875 3.035156 26.976562 3.476562 26.472656 L 5.867188 23.722656 C 5.386719 22.910156 5.027344 22.039062 4.792969 21.132812 L 1.164062 20.882812 C 0.503906 20.839844 0 20.320312 0 19.683594 L 0 17.304688 C 0 16.667969 0.503906 16.15625 1.164062 16.113281 L 4.792969 15.863281 C 5.027344 14.957031 5.386719 14.085938 5.867188 13.273438 L 3.476562 10.542969 C 3.042969 10.039062 3.050781 9.320312 3.496094 8.875 L 5.179688 7.191406 C 5.625 6.738281 6.34375 6.738281 6.847656 7.171875 L 9.585938 9.5625 C 10.398438 9.085938 11.269531 8.722656 12.175781 8.488281 L 12.425781 4.859375 C 12.476562 4.199219 12.988281 3.695312 13.617188 3.695312 L 15.453125 3.695312 C 15.671875 3.695312 15.855469 3.878906 15.855469 4.097656 L 15.855469 32.925781 C 15.855469 33.144531 15.679688 33.320312 15.453125 33.320312 Z M 9.546875 26.554688 C 9.621094 26.554688 9.695312 26.574219 9.753906 26.617188 C 10.652344 27.175781 11.625 27.578125 12.644531 27.8125 C 12.820312 27.855469 12.949219 27.996094 12.957031 28.183594 L 13.222656 32.105469 C 13.242188 32.304688 13.382812 32.523438 13.617188 32.523438 L 15.050781 32.523438 L 15.050781 4.5 L 13.617188 4.5 C 13.382812 4.5 13.242188 4.71875 13.222656 4.917969 L 12.957031 8.839844 C 12.949219 9.015625 12.820312 9.167969 12.644531 9.210938 C 11.625 9.445312 10.652344 9.847656 9.753906 10.40625 C 9.605469 10.5 9.410156 10.484375 9.277344 10.375 L 6.308594 7.792969 C 6.160156 7.660156 5.90625 7.609375 5.742188 7.777344 L 4.0625 9.445312 C 3.898438 9.613281 3.945312 9.863281 4.082031 10.015625 L 6.664062 12.980469 C 6.78125 13.113281 6.796875 13.308594 6.695312 13.457031 C 6.144531 14.355469 5.742188 15.328125 5.503906 16.347656 C 5.464844 16.527344 5.320312 16.652344 5.144531 16.660156 L 1.214844 16.929688 C 1.015625 16.945312 0.796875 17.085938 0.796875 17.320312 L 0.796875 19.703125 C 0.796875 19.9375 1.015625 20.078125 1.214844 20.09375 L 5.136719 20.363281 C 5.3125 20.371094 5.464844 20.496094 5.496094 20.671875 C 5.730469 21.695312 6.132812 22.667969 6.695312 23.566406 C 6.789062 23.714844 6.769531 23.910156 6.664062 24.042969 L 4.082031 27.007812 C 3.945312 27.160156 3.898438 27.410156 4.0625 27.578125 L 5.75 29.253906 C 5.917969 29.421875 6.167969 29.371094 6.320312 29.238281 L 9.285156 26.65625 C 9.351562 26.589844 9.453125 26.554688 9.546875 26.554688 Z M 9.546875 26.554688 " fill-opacity="1" fill-rule="nonzero"/><path fill="#d9d9d9" d="M 14.808594 23.808594 C 11.882812 23.808594 9.503906 21.429688 9.503906 18.503906 C 9.503906 15.578125 11.882812 13.199219 14.808594 13.199219 C 15.042969 13.199219 15.277344 13.214844 15.503906 13.242188 C 15.722656 13.265625 15.878906 13.476562 15.847656 13.691406 C 15.8125 13.910156 15.613281 14.070312 15.394531 14.035156 C 15.203125 14.011719 15 13.996094 14.800781 13.996094 C 12.320312 13.996094 10.300781 16.015625 10.300781 18.496094 C 10.300781 20.976562 12.320312 22.996094 14.800781 22.996094 C 15 22.996094 15.191406 22.976562 15.394531 22.953125 C 15.613281 22.917969 15.8125 23.078125 15.847656 23.296875 C 15.871094 23.515625 15.722656 23.714844 15.503906 23.75 C 15.277344 23.800781 15.042969 23.808594 14.808594 23.808594 Z M 14.808594 23.808594 " fill-opacity="1" fill-rule="nonzero"/><path fill="#d9d9d9" d="M 12.628906 25.777344 C 12.578125 25.777344 12.519531 25.769531 12.46875 25.742188 C 9.578125 24.496094 7.703125 21.652344 7.703125 18.503906 C 7.703125 18.285156 7.886719 18.101562 8.105469 18.101562 C 8.320312 18.101562 8.503906 18.277344 8.503906 18.503906 C 8.503906 21.335938 10.183594 23.882812 12.789062 25.007812 C 12.988281 25.089844 13.089844 25.332031 12.996094 25.535156 C 12.929688 25.695312 12.78125 25.777344 12.628906 25.777344 Z M 12.628906 25.777344 " fill-opacity="1" fill-rule="nonzero"/><path fill="#d9d9d9" d="M 31.039062 18.90625 L 15.453125 18.90625 C 15.234375 18.90625 15.050781 18.730469 15.050781 18.503906 C 15.050781 18.285156 15.226562 18.101562 15.453125 18.101562 L 31.039062 18.101562 C 31.257812 18.101562 31.441406 18.277344 31.441406 18.503906 C 31.441406 18.730469 31.265625 18.90625 31.039062 18.90625 Z M 31.039062 18.90625 " fill-opacity="1" fill-rule="nonzero"/><path fill="#d9d9d9" d="M 21.519531 18.90625 C 21.417969 18.90625 21.3125 18.863281 21.234375 18.789062 C 21.074219 18.628906 21.074219 18.378906 21.234375 18.21875 L 23.65625 15.796875 C 23.734375 15.722656 23.832031 15.679688 23.941406 15.679688 L 30.394531 15.679688 C 30.613281 15.679688 30.796875 15.855469 30.796875 16.082031 C 30.796875 16.308594 30.621094 16.484375 30.394531 16.484375 L 24.109375 16.484375 L 21.804688 18.789062 C 21.722656 18.871094 21.621094 18.90625 21.519531 18.90625 Z M 21.519531 18.90625 " fill-opacity="1" fill-rule="nonzero"/><path fill="#d9d9d9" d="M 32.546875 20.414062 C 31.492188 20.414062 30.636719 19.558594 30.636719 18.503906 C 30.636719 17.449219 31.492188 16.59375 32.546875 16.59375 C 33.605469 16.59375 34.460938 17.449219 34.460938 18.503906 C 34.460938 19.558594 33.605469 20.414062 32.546875 20.414062 Z M 32.546875 17.40625 C 31.9375 17.40625 31.441406 17.898438 31.441406 18.511719 C 31.441406 19.125 31.9375 19.617188 32.546875 19.617188 C 33.160156 19.617188 33.65625 19.125 33.65625 18.511719 C 33.65625 17.898438 33.160156 17.40625 32.546875 17.40625 Z M 32.546875 17.40625 " fill-opacity="1" fill-rule="nonzero"/><path fill="#d9d9d9" d="M 18.546875 12.929688 L 15.453125 12.929688 C 15.234375 12.929688 15.050781 12.753906 15.050781 12.527344 C 15.050781 12.300781 15.226562 12.125 15.453125 12.125 L 18.378906 12.125 L 25.140625 5.539062 C 25.214844 5.464844 25.316406 5.421875 25.425781 5.421875 L 31.300781 5.421875 C 31.519531 5.421875 31.703125 5.605469 31.703125 5.824219 C 31.703125 6.042969 31.527344 6.226562 31.300781 6.226562 L 25.585938 6.226562 L 18.832031 12.8125 C 18.753906 12.886719 18.652344 12.929688 18.546875 12.929688 Z M 18.546875 12.929688 " fill-opacity="1" fill-rule="nonzero"/><path fill="#d9d9d9" d="M 22.25 9.320312 C 22.03125 9.320312 21.847656 9.144531 21.847656 8.917969 L 21.847656 7.390625 L 20.261719 5.816406 C 20.105469 5.65625 20.105469 5.40625 20.261719 5.246094 C 20.421875 5.085938 20.671875 5.085938 20.832031 5.246094 L 22.535156 6.945312 C 22.609375 7.023438 22.652344 7.125 22.652344 7.230469 L 22.652344 8.925781 C 22.652344 9.144531 22.46875 9.320312 22.25 9.320312 Z M 22.25 9.320312 " fill-opacity="1" fill-rule="nonzero"/><path fill="#d9d9d9" d="M 20.371094 16.324219 L 15.453125 16.324219 C 15.234375 16.324219 15.050781 16.148438 15.050781 15.921875 C 15.050781 15.695312 15.226562 15.519531 15.453125 15.519531 L 20.195312 15.519531 L 25.550781 9.996094 C 25.625 9.921875 25.726562 9.871094 25.84375 9.871094 L 27.183594 9.871094 C 27.402344 9.871094 27.585938 10.046875 27.585938 10.273438 C 27.585938 10.5 27.410156 10.675781 27.183594 10.675781 L 26.019531 10.675781 L 20.65625 16.207031 C 20.582031 16.28125 20.480469 16.324219 20.371094 16.324219 Z M 20.371094 16.324219 " fill-opacity="1" fill-rule="nonzero"/><path fill="#d9d9d9" d="M 33.585938 14.246094 L 29.875 14.246094 C 29.839844 14.246094 29.800781 14.238281 29.765625 14.230469 L 23.898438 12.5625 C 23.691406 12.503906 23.566406 12.277344 23.625 12.066406 C 23.683594 11.847656 23.910156 11.730469 24.117188 11.789062 L 29.933594 13.441406 L 33.585938 13.441406 C 33.804688 13.441406 33.988281 13.617188 33.988281 13.84375 C 33.988281 14.070312 33.8125 14.246094 33.585938 14.246094 Z M 33.585938 14.246094 " fill-opacity="1" fill-rule="nonzero"/><g clip-path="url(#7e7bef5213)"><path fill="#d9d9d9" d="M 19.484375 6.367188 C 18.429688 6.367188 17.574219 5.515625 17.574219 4.457031 C 17.574219 3.402344 18.429688 2.546875 19.484375 2.546875 C 20.539062 2.546875 21.394531 3.402344 21.394531 4.457031 C 21.394531 5.515625 20.539062 6.367188 19.484375 6.367188 Z M 19.484375 3.359375 C 18.871094 3.359375 18.378906 3.855469 18.378906 4.464844 C 18.378906 5.078125 18.871094 5.574219 19.484375 5.574219 C 20.09375 5.574219 20.589844 5.078125 20.589844 4.464844 C 20.589844 3.855469 20.09375 3.359375 19.484375 3.359375 Z M 19.484375 3.359375 " fill-opacity="1" fill-rule="nonzero"/></g><path fill="#d9d9d9" d="M 32.800781 7.734375 C 31.742188 7.734375 30.890625 6.878906 30.890625 5.824219 C 30.890625 4.769531 31.742188 3.914062 32.800781 3.914062 C 33.855469 3.914062 34.710938 4.769531 34.710938 5.824219 C 34.710938 6.878906 33.855469 7.734375 32.800781 7.734375 Z M 32.800781 4.71875 C 32.1875 4.71875 31.695312 5.210938 31.695312 5.824219 C 31.695312 6.4375 32.1875 6.929688 32.800781 6.929688 C 33.410156 6.929688 33.90625 6.4375 33.90625 5.824219 C 33.90625 5.210938 33.410156 4.71875 32.800781 4.71875 Z M 32.800781 4.71875 " fill-opacity="1" fill-rule="nonzero"/><path fill="#d9d9d9" d="M 28.683594 12.191406 C 27.628906 12.191406 26.773438 11.339844 26.773438 10.28125 C 26.773438 9.226562 27.628906 8.371094 28.683594 8.371094 C 29.742188 8.371094 30.597656 9.226562 30.597656 10.28125 C 30.597656 11.339844 29.742188 12.191406 28.683594 12.191406 Z M 28.683594 9.175781 C 28.074219 9.175781 27.578125 9.671875 27.578125 10.28125 C 27.578125 10.894531 28.074219 11.386719 28.683594 11.386719 C 29.296875 11.386719 29.792969 10.894531 29.792969 10.28125 C 29.792969 9.671875 29.296875 9.175781 28.683594 9.175781 Z M 28.683594 9.175781 " fill-opacity="1" fill-rule="nonzero"/><g clip-path="url(#12a7fe7cd7)"><path fill="#d9d9d9" d="M 35.097656 15.753906 C 34.039062 15.753906 33.183594 14.898438 33.183594 13.84375 C 33.183594 12.789062 34.039062 11.933594 35.097656 11.933594 C 36.152344 11.933594 37.007812 12.789062 37.007812 13.84375 C 37.007812 14.898438 36.144531 15.753906 35.097656 15.753906 Z M 35.097656 12.738281 C 34.484375 12.738281 33.988281 13.230469 33.988281 13.84375 C 33.988281 14.457031 34.484375 14.949219 35.097656 14.949219 C 35.707031 14.949219 36.203125 14.457031 36.203125 13.84375 C 36.203125 13.230469 35.699219 12.738281 35.097656 12.738281 Z M 35.097656 12.738281 " fill-opacity="1" fill-rule="nonzero"/></g><path fill="#d9d9d9" d="M 31.300781 31.59375 L 25.425781 31.59375 C 25.316406 31.59375 25.214844 31.550781 25.140625 31.476562 L 18.386719 24.890625 L 15.460938 24.890625 C 15.242188 24.890625 15.058594 24.714844 15.058594 24.488281 C 15.058594 24.261719 15.234375 24.085938 15.460938 24.085938 L 18.554688 24.085938 C 18.664062 24.085938 18.753906 24.125 18.839844 24.203125 L 25.59375 30.789062 L 31.300781 30.789062 C 31.519531 30.789062 31.703125 30.964844 31.703125 31.191406 C 31.703125 31.417969 31.519531 31.59375 31.300781 31.59375 Z M 31.300781 31.59375 " fill-opacity="1" fill-rule="nonzero"/><path fill="#d9d9d9" d="M 20.546875 31.886719 C 20.449219 31.886719 20.339844 31.84375 20.261719 31.769531 C 20.105469 31.609375 20.105469 31.359375 20.261719 31.199219 L 21.847656 29.617188 L 21.847656 28.089844 C 21.847656 27.871094 22.023438 27.6875 22.25 27.6875 C 22.476562 27.6875 22.652344 27.863281 22.652344 28.089844 L 22.652344 29.78125 C 22.652344 29.890625 22.609375 29.992188 22.535156 30.066406 L 20.832031 31.769531 C 20.757812 31.851562 20.65625 31.886719 20.546875 31.886719 Z M 20.546875 31.886719 " fill-opacity="1" fill-rule="nonzero"/><path fill="#d9d9d9" d="M 27.183594 27.136719 L 25.84375 27.136719 C 25.734375 27.136719 25.632812 27.09375 25.550781 27.007812 L 20.195312 21.488281 L 15.453125 21.488281 C 15.234375 21.488281 15.050781 21.3125 15.050781 21.085938 C 15.050781 20.859375 15.226562 20.683594 15.453125 20.683594 L 20.371094 20.683594 C 20.480469 20.683594 20.582031 20.722656 20.664062 20.808594 L 26.019531 26.332031 L 27.183594 26.332031 C 27.402344 26.332031 27.585938 26.507812 27.585938 26.734375 C 27.585938 26.957031 27.402344 27.136719 27.183594 27.136719 Z M 27.183594 27.136719 " fill-opacity="1" fill-rule="nonzero"/><path fill="#d9d9d9" d="M 24.007812 25.242188 C 23.832031 25.242188 23.671875 25.125 23.625 24.949219 C 23.566406 24.738281 23.691406 24.511719 23.898438 24.453125 L 29.765625 22.785156 C 29.800781 22.777344 29.839844 22.769531 29.875 22.769531 L 33.585938 22.769531 C 33.804688 22.769531 33.988281 22.945312 33.988281 23.171875 C 33.988281 23.398438 33.8125 23.574219 33.585938 23.574219 L 29.933594 23.574219 L 24.117188 25.222656 C 24.074219 25.234375 24.042969 25.242188 24.007812 25.242188 Z M 24.007812 25.242188 " fill-opacity="1" fill-rule="nonzero"/><g clip-path="url(#ba58719899)"><path fill="#d9d9d9" d="M 19.484375 34.460938 C 18.429688 34.460938 17.574219 33.605469 17.574219 32.546875 C 17.574219 31.492188 18.429688 30.636719 19.484375 30.636719 C 20.539062 30.636719 21.394531 31.492188 21.394531 32.546875 C 21.394531 33.605469 20.539062 34.460938 19.484375 34.460938 Z M 19.484375 31.449219 C 18.871094 31.449219 18.378906 31.945312 18.378906 32.558594 C 18.378906 33.167969 18.871094 33.664062 19.484375 33.664062 C 20.09375 33.664062 20.589844 33.167969 20.589844 32.558594 C 20.589844 31.945312 20.09375 31.449219 19.484375 31.449219 Z M 19.484375 31.449219 " fill-opacity="1" fill-rule="nonzero"/></g><path fill="#d9d9d9" d="M 32.800781 33.101562 C 31.742188 33.101562 30.890625 32.246094 30.890625 31.191406 C 30.890625 30.136719 31.742188 29.28125 32.800781 29.28125 C 33.855469 29.28125 34.710938 30.136719 34.710938 31.191406 C 34.710938 32.246094 33.855469 33.101562 32.800781 33.101562 Z M 32.800781 30.085938 C 32.1875 30.085938 31.695312 30.578125 31.695312 31.191406 C 31.695312 31.800781 32.1875 32.296875 32.800781 32.296875 C 33.410156 32.296875 33.90625 31.800781 33.90625 31.191406 C 33.90625 30.578125 33.410156 30.085938 32.800781 30.085938 Z M 32.800781 30.085938 " fill-opacity="1" fill-rule="nonzero"/><path fill="#d9d9d9" d="M 28.683594 28.644531 C 27.628906 28.644531 26.773438 27.789062 26.773438 26.734375 C 26.773438 25.675781 27.628906 24.820312 28.683594 24.820312 C 29.742188 24.820312 30.597656 25.675781 30.597656 26.734375 C 30.597656 27.789062 29.742188 28.644531 28.683594 28.644531 Z M 28.683594 25.625 C 28.074219 25.625 27.578125 26.121094 27.578125 26.734375 C 27.578125 27.34375 28.074219 27.839844 28.683594 27.839844 C 29.296875 27.839844 29.792969 27.34375 29.792969 26.734375 C 29.792969 26.121094 29.296875 25.625 28.683594 25.625 Z M 28.683594 25.625 " fill-opacity="1" fill-rule="nonzero"/><g clip-path="url(#1341806ea3)"><path fill="#d9d9d9" d="M 35.097656 25.074219 C 34.039062 25.074219 33.183594 24.21875 33.183594 23.164062 C 33.183594 22.105469 34.039062 21.253906 35.097656 21.253906 C 36.152344 21.253906 37.007812 22.105469 37.007812 23.164062 C 37.007812 24.21875 36.144531 25.074219 35.097656 25.074219 Z M 35.097656 22.066406 C 34.484375 22.066406 33.988281 22.558594 33.988281 23.171875 C 33.988281 23.78125 34.484375 24.277344 35.097656 24.277344 C 35.707031 24.277344 36.203125 23.78125 36.203125 23.171875 C 36.203125 22.558594 35.699219 22.066406 35.097656 22.066406 Z M 35.097656 22.066406 " fill-opacity="1" fill-rule="nonzero"/></g></svg>