<svg xmlns="http://www.w3.org/2000/svg" xmlns:xlink="http://www.w3.org/1999/xlink" width="206" zoomAndPan="magnify" viewBox="0 0 154.5 80.999996" height="108" preserveAspectRatio="xMidYMid meet" version="1.0"><defs><clipPath id="6ff871d7fb"><path d="M 36.632812 0.128906 L 117.371094 0.128906 L 117.371094 80.867188 L 36.632812 80.867188 Z M 36.632812 0.128906 " clip-rule="nonzero"/></clipPath><clipPath id="033cd94a09"><path d="M 77 0.128906 C 54.707031 0.128906 36.632812 18.203125 36.632812 40.5 C 36.632812 62.796875 54.707031 80.871094 77 80.871094 C 99.296875 80.871094 117.371094 62.796875 117.371094 40.5 C 117.371094 18.203125 99.296875 0.128906 77 0.128906 Z M 77 0.128906 " clip-rule="nonzero"/></clipPath><clipPath id="6a3693c9f4"><path d="M 47.613281 11.261719 L 94.992188 11.261719 L 94.992188 69.601562 L 47.613281 69.601562 Z M 47.613281 11.261719 " clip-rule="nonzero"/></clipPath><clipPath id="48b4d5f3f3"><path d="M 65 24.5625 L 94 24.5625 L 94 56.472656 L 65 56.472656 Z M 65 24.5625 " clip-rule="nonzero"/></clipPath></defs><g clip-path="url(#6ff871d7fb)"><g clip-path="url(#033cd94a09)"><path fill="#999999" d="M 36.632812 0.128906 L 117.371094 0.128906 L 117.371094 80.871094 L 36.632812 80.871094 Z M 36.632812 0.128906 " fill-opacity="1" fill-rule="nonzero"/></g></g><g clip-path="url(#6a3693c9f4)"><path fill="#ffffff" d="M 76.738281 20.882812 L 76.695312 20.882812 L 76.605469 20.886719 L 76.46875 20.886719 L 76.414062 20.890625 L 76.332031 20.890625 L 76.277344 20.894531 L 76.191406 20.894531 L 76.140625 20.898438 L 76.050781 20.902344 L 76.003906 20.902344 L 75.894531 20.90625 L 75.871094 20.910156 L 75.734375 20.914062 L 75.695312 20.917969 L 75.601562 20.925781 L 75.550781 20.925781 C 75.550781 20.925781 75.488281 20.933594 75.46875 20.933594 C 75.449219 20.933594 75.429688 20.9375 75.414062 20.9375 C 75.390625 20.9375 75.355469 20.941406 75.332031 20.945312 C 75.316406 20.945312 75.296875 20.945312 75.277344 20.949219 C 75.253906 20.949219 75.21875 20.953125 75.199219 20.953125 C 75.179688 20.957031 75.160156 20.957031 75.144531 20.960938 C 75.121094 20.960938 75.082031 20.964844 75.058594 20.964844 C 75.042969 20.96875 75.027344 20.96875 75.011719 20.972656 C 74.984375 20.972656 74.933594 20.980469 74.914062 20.980469 C 74.902344 20.980469 74.890625 20.984375 74.875 20.984375 C 74.847656 20.988281 74.773438 20.996094 74.746094 21 C 74.734375 21 74.722656 21 74.710938 21.003906 C 74.6875 21.003906 74.636719 21.011719 74.613281 21.011719 C 74.597656 21.015625 74.578125 21.015625 74.5625 21.019531 C 74.539062 21.023438 74.503906 21.027344 74.480469 21.027344 C 74.460938 21.03125 74.445312 21.03125 74.425781 21.035156 C 74.402344 21.039062 74.371094 21.042969 74.347656 21.046875 C 74.328125 21.046875 74.3125 21.050781 74.292969 21.050781 C 74.269531 21.054688 74.238281 21.058594 74.214844 21.0625 C 74.195312 21.066406 74.179688 21.066406 74.160156 21.070312 C 74.136719 21.074219 74.105469 21.078125 74.082031 21.082031 C 74.0625 21.085938 74.046875 21.085938 74.027344 21.089844 C 74.007812 21.09375 73.964844 21.097656 73.941406 21.101562 C 73.929688 21.105469 73.914062 21.105469 73.898438 21.109375 C 73.867188 21.113281 73.796875 21.125 73.769531 21.128906 C 73.761719 21.128906 73.75 21.132812 73.742188 21.132812 C 73.71875 21.136719 73.664062 21.144531 73.640625 21.148438 C 73.621094 21.152344 73.605469 21.15625 73.589844 21.15625 C 73.566406 21.160156 73.53125 21.167969 73.507812 21.171875 C 73.492188 21.175781 73.472656 21.179688 73.453125 21.179688 C 73.433594 21.183594 73.402344 21.191406 73.378906 21.195312 C 73.359375 21.199219 73.339844 21.203125 73.324219 21.207031 C 73.300781 21.210938 73.269531 21.214844 73.25 21.21875 C 73.230469 21.222656 73.210938 21.226562 73.191406 21.230469 C 73.171875 21.234375 73.140625 21.238281 73.117188 21.242188 C 73.101562 21.246094 73.082031 21.25 73.0625 21.253906 C 73.039062 21.257812 73.007812 21.265625 72.984375 21.269531 C 72.96875 21.273438 72.953125 21.277344 72.933594 21.28125 C 72.910156 21.285156 72.855469 21.296875 72.835938 21.300781 C 72.824219 21.304688 72.8125 21.304688 72.808594 21.308594 C 72.800781 21.308594 72.796875 21.308594 72.792969 21.308594 C 72.773438 21.316406 72.707031 21.328125 72.679688 21.335938 C 72.664062 21.335938 72.648438 21.339844 72.632812 21.34375 C 72.609375 21.351562 72.574219 21.359375 72.554688 21.363281 C 72.535156 21.367188 72.515625 21.371094 72.496094 21.375 C 72.476562 21.378906 72.449219 21.386719 72.425781 21.390625 C 72.40625 21.394531 72.386719 21.398438 72.367188 21.40625 C 72.347656 21.410156 72.320312 21.417969 72.300781 21.421875 C 72.28125 21.425781 72.261719 21.429688 72.242188 21.4375 C 72.21875 21.441406 72.191406 21.449219 72.171875 21.453125 C 72.152344 21.457031 72.132812 21.460938 72.113281 21.46875 C 72.09375 21.472656 72.0625 21.480469 72.042969 21.484375 C 72.023438 21.488281 72.007812 21.496094 71.988281 21.5 C 71.964844 21.503906 71.925781 21.515625 71.90625 21.519531 C 71.890625 21.523438 71.875 21.527344 71.863281 21.53125 C 71.835938 21.539062 71.769531 21.554688 71.738281 21.5625 C 71.722656 21.570312 71.707031 21.574219 71.691406 21.578125 C 71.671875 21.582031 71.636719 21.59375 71.613281 21.597656 C 71.597656 21.605469 71.578125 21.609375 71.558594 21.613281 C 71.539062 21.621094 71.511719 21.628906 71.488281 21.632812 C 71.472656 21.640625 71.453125 21.644531 71.433594 21.648438 C 71.410156 21.65625 71.386719 21.664062 71.367188 21.667969 C 71.347656 21.675781 71.328125 21.679688 71.308594 21.6875 C 71.285156 21.691406 71.261719 21.699219 71.242188 21.707031 C 71.222656 21.710938 71.203125 21.71875 71.183594 21.722656 C 71.164062 21.730469 71.132812 21.738281 71.113281 21.746094 C 71.097656 21.75 71.078125 21.757812 71.058594 21.761719 C 71.039062 21.769531 71.003906 21.78125 70.984375 21.785156 C 70.96875 21.789062 70.953125 21.796875 70.9375 21.800781 C 70.910156 21.808594 70.84375 21.832031 70.816406 21.839844 C 70.804688 21.84375 70.789062 21.847656 70.777344 21.851562 C 70.753906 21.859375 70.714844 21.871094 70.695312 21.878906 C 70.675781 21.886719 70.660156 21.890625 70.644531 21.898438 C 70.621094 21.902344 70.59375 21.914062 70.570312 21.921875 C 70.554688 21.925781 70.535156 21.933594 70.519531 21.9375 C 70.496094 21.945312 70.46875 21.957031 70.449219 21.960938 C 70.429688 21.96875 70.394531 21.980469 70.394531 21.980469 L 70.324219 22.007812 L 70.273438 22.023438 L 70.203125 22.050781 L 70.152344 22.070312 L 70.074219 22.097656 L 70.03125 22.113281 L 69.910156 22.160156 L 69.898438 22.164062 L 69.792969 22.203125 L 69.753906 22.21875 L 69.671875 22.25 L 69.628906 22.269531 L 69.550781 22.300781 L 69.503906 22.316406 L 69.429688 22.347656 L 69.386719 22.367188 L 69.304688 22.402344 L 69.265625 22.417969 L 69.175781 22.457031 L 69.148438 22.464844 L 69.03125 22.519531 L 68.90625 22.574219 L 68.898438 22.578125 L 68.789062 22.625 L 68.765625 22.636719 L 68.671875 22.679688 L 68.644531 22.691406 L 68.527344 22.75 L 68.425781 22.796875 L 68.410156 22.804688 L 68.292969 22.859375 C 61.769531 26.046875 57.269531 32.746094 57.269531 40.492188 C 57.269531 48.242188 61.777344 54.945312 68.308594 58.128906 L 68.425781 58.1875 L 68.4375 58.191406 L 68.546875 58.242188 L 68.558594 58.25 L 68.667969 58.300781 L 68.679688 58.304688 L 68.796875 58.359375 C 68.839844 58.378906 68.882812 58.398438 68.921875 58.414062 L 69.042969 58.46875 L 69.0625 58.476562 L 69.160156 58.519531 L 69.195312 58.535156 L 69.277344 58.566406 L 69.320312 58.585938 L 69.394531 58.617188 L 69.441406 58.636719 L 69.515625 58.667969 L 69.5625 58.6875 L 69.636719 58.714844 L 69.679688 58.734375 L 69.769531 58.769531 L 69.800781 58.78125 L 69.917969 58.824219 L 69.96875 58.84375 L 70.035156 58.871094 L 70.09375 58.890625 L 70.15625 58.914062 L 70.214844 58.9375 L 70.277344 58.957031 L 70.339844 58.980469 L 70.398438 59 L 70.460938 59.023438 L 70.519531 59.042969 L 70.582031 59.0625 L 70.636719 59.082031 L 70.703125 59.105469 L 70.820312 59.144531 L 70.886719 59.164062 L 70.941406 59.183594 L 71.007812 59.203125 L 71.0625 59.21875 L 71.128906 59.242188 L 71.183594 59.257812 L 71.253906 59.277344 L 71.308594 59.292969 L 71.375 59.316406 L 71.433594 59.332031 L 71.5 59.351562 L 71.554688 59.367188 L 71.625 59.386719 L 71.675781 59.398438 L 71.808594 59.4375 L 71.863281 59.449219 L 71.933594 59.46875 L 71.988281 59.484375 L 72.058594 59.5 L 72.117188 59.515625 L 72.183594 59.53125 L 72.242188 59.546875 L 72.308594 59.5625 L 72.367188 59.578125 L 72.433594 59.59375 L 72.496094 59.605469 L 72.628906 59.636719 L 72.6875 59.648438 L 72.808594 59.675781 L 72.867188 59.6875 L 72.9375 59.703125 L 72.996094 59.714844 L 73.066406 59.726562 L 73.128906 59.738281 L 73.195312 59.753906 L 73.257812 59.765625 L 73.324219 59.777344 L 73.386719 59.789062 L 73.457031 59.800781 L 73.515625 59.8125 L 73.589844 59.824219 L 73.644531 59.832031 L 73.769531 59.851562 L 73.808594 59.859375 L 73.902344 59.875 L 73.953125 59.882812 L 74.03125 59.894531 L 74.089844 59.902344 L 74.164062 59.910156 L 74.21875 59.917969 L 74.292969 59.929688 L 74.351562 59.9375 L 74.429688 59.945312 L 74.484375 59.953125 L 74.566406 59.960938 L 74.617188 59.96875 L 74.722656 59.980469 L 74.746094 59.984375 L 74.878906 59.996094 L 74.921875 60 L 75.011719 60.011719 L 75.0625 60.015625 L 75.144531 60.023438 L 75.199219 60.027344 L 75.277344 60.035156 L 75.335938 60.039062 L 75.414062 60.042969 L 75.46875 60.046875 L 75.554688 60.054688 L 75.601562 60.058594 L 75.699219 60.0625 L 75.738281 60.066406 L 75.871094 60.074219 L 75.902344 60.074219 L 76.003906 60.078125 L 76.054688 60.082031 L 76.140625 60.085938 L 76.195312 60.085938 L 76.277344 60.089844 L 76.332031 60.089844 L 76.414062 60.09375 L 76.550781 60.09375 L 76.605469 60.097656 L 76.875 60.097656 C 76.875 60.097656 77.003906 60.097656 77.003906 60.097656 L 77.164062 60.097656 L 77.289062 60.09375 L 77.320312 60.09375 L 77.429688 60.089844 L 77.449219 60.089844 L 77.574219 60.085938 L 77.601562 60.085938 L 77.707031 60.082031 L 77.734375 60.078125 L 77.855469 60.074219 L 77.886719 60.070312 L 77.988281 60.066406 L 78.015625 60.066406 L 78.140625 60.058594 L 78.164062 60.054688 L 78.269531 60.050781 L 78.296875 60.046875 L 78.421875 60.039062 L 78.441406 60.035156 L 78.550781 60.027344 L 78.578125 60.023438 L 78.703125 60.015625 L 78.714844 60.011719 L 78.828125 60 L 78.855469 60 L 78.984375 59.984375 L 79.109375 59.972656 L 79.132812 59.96875 L 79.257812 59.953125 L 79.386719 59.9375 L 79.410156 59.9375 L 79.535156 59.917969 L 79.664062 59.902344 L 79.683594 59.898438 L 79.804688 59.878906 L 79.808594 59.878906 L 79.9375 59.859375 L 79.953125 59.855469 L 80.074219 59.835938 L 80.082031 59.835938 L 80.214844 59.816406 L 80.222656 59.8125 L 80.347656 59.792969 L 80.355469 59.789062 L 80.488281 59.765625 L 80.617188 59.742188 L 80.625 59.738281 L 80.757812 59.714844 L 80.890625 59.6875 L 80.894531 59.683594 L 81.160156 59.628906 C 82.625 59.300781 84.03125 58.808594 85.355469 58.171875 C 86.234375 57.75 87.074219 57.265625 87.871094 56.722656 C 87.964844 56.660156 88.070312 56.628906 88.183594 56.628906 C 89 56.628906 92.515625 56.628906 94.425781 56.628906 C 94.644531 56.625 94.847656 56.757812 94.933594 56.960938 C 95.023438 57.164062 94.980469 57.402344 94.828125 57.5625 C 94.046875 58.390625 93.203125 59.164062 92.3125 59.878906 C 92.3125 59.878906 92.917969 61.699219 93.351562 62.996094 C 93.605469 63.761719 93.3125 64.605469 92.636719 65.046875 C 91.820312 65.570312 90.980469 66.054688 90.121094 66.496094 C 89.398438 66.859375 88.523438 66.695312 87.988281 66.089844 C 87.082031 65.070312 85.804688 63.636719 85.804688 63.636719 C 85.367188 63.804688 84.925781 63.964844 84.480469 64.109375 C 84.378906 64.164062 84.273438 64.207031 84.164062 64.242188 C 83.007812 64.59375 81.828125 64.863281 80.632812 65.046875 C 80.632812 65.046875 80.246094 66.925781 79.96875 68.265625 C 79.808594 69.054688 79.132812 69.636719 78.328125 69.679688 C 77.828125 69.707031 77.328125 69.71875 76.828125 69.71875 C 76.328125 69.71875 75.828125 69.707031 75.328125 69.679688 C 74.523438 69.636719 73.847656 69.054688 73.6875 68.265625 C 73.410156 66.925781 73.023438 65.046875 73.023438 65.046875 C 71.828125 64.863281 70.648438 64.59375 69.496094 64.242188 C 69.382812 64.207031 69.277344 64.164062 69.179688 64.109375 C 68.730469 63.964844 68.289062 63.804688 67.851562 63.636719 C 67.851562 63.636719 66.578125 65.070312 65.667969 66.089844 C 65.132812 66.695312 64.257812 66.859375 63.539062 66.496094 C 62.675781 66.054688 61.835938 65.570312 61.023438 65.046875 C 60.34375 64.605469 60.050781 63.761719 60.308594 62.996094 C 60.738281 61.699219 61.34375 59.878906 61.34375 59.878906 C 59.921875 58.738281 58.628906 57.445312 57.488281 56.023438 C 57.488281 56.023438 55.667969 56.628906 54.371094 57.058594 C 53.605469 57.3125 52.761719 57.019531 52.324219 56.34375 C 51.796875 55.527344 51.3125 54.691406 50.867188 53.828125 C 50.503906 53.109375 50.667969 52.234375 51.273438 51.695312 C 52.296875 50.789062 53.730469 49.515625 53.730469 49.515625 C 53.070312 47.816406 52.59375 46.050781 52.320312 44.25 C 52.320312 44.25 50.4375 43.863281 49.101562 43.585938 C 48.3125 43.421875 47.730469 42.746094 47.6875 41.941406 C 47.636719 40.976562 47.636719 40.007812 47.683594 39.039062 C 47.726562 38.230469 48.308594 37.558594 49.101562 37.394531 C 50.4375 37.117188 52.320312 36.734375 52.320312 36.734375 C 52.59375 34.929688 53.070312 33.164062 53.730469 31.46875 C 53.730469 31.46875 52.296875 30.191406 51.277344 29.285156 C 50.671875 28.746094 50.503906 27.871094 50.871094 27.152344 C 51.3125 26.292969 51.796875 25.453125 52.320312 24.636719 C 52.761719 23.960938 53.605469 23.667969 54.371094 23.921875 C 55.667969 24.351562 57.488281 24.957031 57.488281 24.957031 C 58.628906 23.535156 59.921875 22.242188 61.34375 21.101562 C 61.34375 21.101562 60.738281 19.28125 60.308594 17.984375 C 60.054688 17.21875 60.347656 16.378906 61.023438 15.9375 C 61.835938 15.414062 62.675781 14.929688 63.539062 14.484375 C 64.257812 14.117188 65.132812 14.285156 65.667969 14.886719 C 66.105469 15.378906 66.628906 15.96875 67.054688 16.445312 C 67.53125 16.980469 68.28125 17.175781 68.957031 16.945312 C 69.035156 16.917969 69.113281 16.890625 69.195312 16.867188 C 69.289062 16.816406 69.390625 16.773438 69.496094 16.742188 C 70.390625 16.46875 71.296875 16.242188 72.21875 16.070312 C 72.617188 15.929688 72.945312 15.652344 73.15625 15.292969 L 73.683594 12.714844 C 73.847656 11.925781 74.523438 11.34375 75.328125 11.296875 C 75.828125 11.273438 76.328125 11.261719 76.828125 11.265625 C 77.328125 11.261719 77.828125 11.273438 78.328125 11.296875 C 79.132812 11.34375 79.808594 11.925781 79.972656 12.714844 L 80.5 15.292969 C 80.710938 15.652344 81.042969 15.929688 81.4375 16.070312 C 82.359375 16.242188 83.269531 16.46875 84.164062 16.742188 C 84.269531 16.773438 84.367188 16.816406 84.464844 16.867188 C 84.542969 16.890625 84.621094 16.917969 84.699219 16.945312 C 85.378906 17.175781 86.128906 16.980469 86.601562 16.445312 C 87.027344 15.96875 87.550781 15.378906 87.988281 14.886719 C 88.523438 14.285156 89.398438 14.117188 90.121094 14.484375 C 90.980469 14.929688 91.820312 15.414062 92.632812 15.9375 C 93.308594 16.378906 93.601562 17.21875 93.347656 17.984375 C 92.917969 19.28125 92.3125 21.101562 92.3125 21.101562 C 93.203125 21.816406 94.046875 22.589844 94.828125 23.417969 C 94.980469 23.582031 95.019531 23.816406 94.933594 24.019531 C 94.84375 24.222656 94.644531 24.355469 94.425781 24.355469 C 92.515625 24.355469 89 24.355469 88.183594 24.355469 C 88.070312 24.355469 87.964844 24.320312 87.871094 24.257812 C 87.078125 23.71875 86.242188 23.238281 85.375 22.816406 C 85.292969 22.78125 85.214844 22.742188 85.132812 22.703125 L 85.011719 22.648438 L 84.894531 22.59375 L 84.882812 22.589844 L 84.765625 22.539062 L 84.652344 22.488281 L 84.636719 22.480469 L 84.519531 22.429688 L 84.40625 22.382812 L 84.269531 22.328125 L 84.160156 22.285156 L 84.132812 22.273438 L 84.027344 22.230469 L 84.019531 22.226562 L 83.910156 22.183594 L 83.878906 22.171875 L 83.78125 22.136719 L 83.765625 22.128906 L 83.65625 22.089844 L 83.625 22.078125 L 83.535156 22.046875 L 83.511719 22.035156 L 83.402344 21.996094 L 83.371094 21.984375 L 83.28125 21.957031 L 83.253906 21.945312 L 83.144531 21.910156 L 83.113281 21.898438 L 83.027344 21.871094 L 82.996094 21.859375 L 82.886719 21.824219 L 82.855469 21.8125 L 82.769531 21.785156 L 82.734375 21.773438 L 82.625 21.742188 L 82.597656 21.730469 L 82.511719 21.707031 L 82.472656 21.695312 L 82.335938 21.65625 L 82.25 21.628906 L 82.210938 21.617188 L 82.101562 21.589844 L 82.078125 21.582031 L 81.984375 21.558594 L 81.945312 21.546875 L 81.847656 21.519531 L 81.832031 21.515625 L 81.820312 21.511719 L 81.71875 21.488281 L 81.679688 21.476562 L 81.585938 21.453125 L 81.5625 21.449219 L 81.453125 21.421875 L 81.414062 21.414062 L 81.324219 21.390625 L 81.296875 21.382812 L 81.183594 21.359375 L 81.148438 21.351562 L 81.054688 21.332031 L 81.027344 21.324219 L 80.914062 21.300781 L 80.878906 21.292969 L 80.789062 21.273438 L 80.757812 21.269531 L 80.640625 21.246094 L 80.609375 21.238281 L 80.515625 21.222656 L 80.484375 21.214844 L 80.367188 21.195312 L 80.339844 21.1875 L 80.246094 21.171875 L 80.210938 21.167969 L 80.070312 21.144531 L 79.972656 21.128906 L 79.9375 21.121094 L 79.820312 21.101562 L 79.800781 21.101562 L 79.695312 21.085938 L 79.660156 21.082031 L 79.542969 21.0625 L 79.53125 21.0625 L 79.417969 21.046875 L 79.386719 21.042969 L 79.273438 21.027344 L 79.261719 21.027344 L 79.140625 21.011719 L 79.109375 21.007812 L 79 20.996094 L 78.984375 20.996094 L 78.863281 20.984375 L 78.832031 20.980469 L 78.726562 20.96875 L 78.703125 20.96875 L 78.582031 20.957031 L 78.550781 20.953125 L 78.449219 20.945312 L 78.421875 20.945312 L 78.300781 20.933594 L 78.273438 20.933594 L 78.167969 20.925781 L 78.140625 20.921875 L 78.019531 20.914062 L 77.992188 20.914062 L 77.886719 20.910156 L 77.859375 20.90625 L 77.734375 20.902344 L 77.710938 20.902344 L 77.605469 20.898438 L 77.574219 20.894531 L 77.449219 20.890625 L 77.429688 20.890625 L 77.320312 20.886719 L 77.152344 20.886719 L 77.035156 20.882812 Z M 76.738281 20.882812 " fill-opacity="1" fill-rule="evenodd"/></g><g clip-path="url(#48b4d5f3f3)"><path fill="#ffffff" d="M 82.558594 35.335938 C 83.402344 34.996094 84.210938 34.695312 84.949219 34.46875 C 85.746094 34.972656 86.535156 35.492188 87.285156 36.039062 C 87.878906 36.472656 88.445312 36.917969 89 37.367188 C 89.683594 37.925781 90.332031 38.5 90.9375 39.078125 C 93.234375 36.488281 94.238281 34.070312 93.351562 32.53125 C 91.703125 29.675781 84.199219 30.921875 76.585938 35.308594 C 76.707031 34.410156 76.855469 33.558594 77.027344 32.808594 C 77.863281 32.367188 78.707031 31.949219 79.558594 31.570312 C 80.226562 31.273438 80.894531 31.003906 81.5625 30.75 C 82.390625 30.4375 83.207031 30.164062 84.011719 29.925781 C 82.917969 26.640625 81.324219 24.5625 79.550781 24.5625 C 76.253906 24.5625 73.578125 31.683594 73.574219 40.476562 C 72.855469 39.917969 72.191406 39.363281 71.625 38.839844 C 71.664062 37.894531 71.722656 36.953125 71.820312 36.027344 C 71.894531 35.300781 71.996094 34.585938 72.113281 33.882812 C 72.253906 33.011719 72.425781 32.164062 72.621094 31.347656 C 69.230469 30.652344 66.636719 30.992188 65.746094 32.53125 C 64.097656 35.386719 68.929688 41.261719 76.539062 45.664062 C 75.695312 46.003906 74.886719 46.304688 74.148438 46.53125 C 73.347656 46.027344 72.5625 45.507812 71.8125 44.957031 C 71.21875 44.527344 70.652344 44.082031 70.097656 43.632812 C 69.414062 43.070312 68.765625 42.5 68.160156 41.921875 C 65.863281 44.511719 64.859375 46.929688 65.746094 48.46875 C 67.394531 51.324219 74.898438 50.078125 82.511719 45.691406 C 82.386719 46.589844 82.242188 47.441406 82.070312 48.191406 C 81.234375 48.632812 80.390625 49.050781 79.539062 49.429688 C 78.871094 49.726562 78.203125 49.996094 77.535156 50.25 C 76.707031 50.5625 75.890625 50.835938 75.085938 51.074219 C 76.179688 54.355469 77.773438 56.4375 79.546875 56.4375 C 82.84375 56.4375 85.519531 49.316406 85.523438 40.523438 C 86.242188 41.082031 86.90625 41.636719 87.472656 42.160156 C 87.433594 43.105469 87.375 44.046875 87.277344 44.96875 C 87.199219 45.699219 87.101562 46.414062 86.984375 47.117188 C 86.84375 47.988281 86.671875 48.835938 86.476562 49.652344 C 89.867188 50.347656 92.460938 50.003906 93.351562 48.46875 C 95 45.613281 90.167969 39.738281 82.558594 35.335938 Z M 79.546875 42.492188 C 78.449219 42.492188 77.558594 41.597656 77.558594 40.5 C 77.558594 39.402344 78.449219 38.507812 79.546875 38.507812 C 80.648438 38.507812 81.539062 39.402344 81.539062 40.5 C 81.539062 41.597656 80.648438 42.492188 79.546875 42.492188 Z M 79.546875 42.492188 " fill-opacity="1" fill-rule="nonzero"/></g></svg>