<svg xmlns="http://www.w3.org/2000/svg" xmlns:xlink="http://www.w3.org/1999/xlink" width="206" zoomAndPan="magnify" viewBox="0 0 154.5 80.999996" height="108" preserveAspectRatio="xMidYMid meet" version="1.0"><defs><clipPath id="ac6ff35d74"><path d="M 36.632812 0.128906 L 117.371094 0.128906 L 117.371094 80.867188 L 36.632812 80.867188 Z M 36.632812 0.128906 " clip-rule="nonzero"/></clipPath><clipPath id="e9c1d8f8f0"><path d="M 77 0.128906 C 54.707031 0.128906 36.632812 18.203125 36.632812 40.5 C 36.632812 62.796875 54.707031 80.871094 77 80.871094 C 99.296875 80.871094 117.371094 62.796875 117.371094 40.5 C 117.371094 18.203125 99.296875 0.128906 77 0.128906 Z M 77 0.128906 " clip-rule="nonzero"/></clipPath><clipPath id="f36ee2450f"><path d="M 47.613281 11.261719 L 94.710938 11.261719 L 94.710938 69.574219 L 47.613281 69.574219 Z M 47.613281 11.261719 " clip-rule="nonzero"/></clipPath><clipPath id="e4f1f9e5e0"><path d="M 74 44 L 82 44 L 82 54.890625 L 74 54.890625 Z M 74 44 " clip-rule="nonzero"/></clipPath><clipPath id="24eeede2a6"><path d="M 67 50 L 72 50 L 72 54.890625 L 67 54.890625 Z M 67 50 " clip-rule="nonzero"/></clipPath></defs><g clip-path="url(#ac6ff35d74)"><g clip-path="url(#e9c1d8f8f0)"><path fill="#999999" d="M 36.632812 0.128906 L 117.371094 0.128906 L 117.371094 80.871094 L 36.632812 80.871094 Z M 36.632812 0.128906 " fill-opacity="1" fill-rule="nonzero"/></g></g><g clip-path="url(#f36ee2450f)"><path fill="#ffffff" d="M 76.738281 20.882812 L 76.601562 20.882812 L 76.550781 20.886719 L 76.410156 20.886719 L 76.328125 20.890625 L 76.273438 20.890625 L 76.191406 20.894531 L 76.140625 20.894531 L 76.050781 20.898438 L 76.003906 20.902344 L 75.894531 20.90625 L 75.867188 20.90625 L 75.734375 20.914062 L 75.695312 20.917969 L 75.601562 20.921875 L 75.550781 20.925781 C 75.550781 20.925781 75.488281 20.929688 75.464844 20.933594 C 75.449219 20.933594 75.429688 20.933594 75.410156 20.9375 C 75.390625 20.9375 75.355469 20.941406 75.332031 20.941406 C 75.3125 20.945312 75.296875 20.945312 75.277344 20.945312 C 75.253906 20.949219 75.21875 20.953125 75.195312 20.953125 C 75.179688 20.957031 75.160156 20.957031 75.140625 20.957031 C 75.121094 20.960938 75.082031 20.964844 75.058594 20.964844 C 75.042969 20.96875 75.027344 20.96875 75.007812 20.972656 C 74.984375 20.972656 74.933594 20.976562 74.910156 20.980469 C 74.902344 20.980469 74.886719 20.980469 74.875 20.984375 C 74.847656 20.984375 74.773438 20.996094 74.746094 20.996094 C 74.734375 21 74.722656 21 74.710938 21 C 74.6875 21.003906 74.636719 21.007812 74.613281 21.011719 C 74.59375 21.015625 74.578125 21.015625 74.5625 21.019531 C 74.539062 21.019531 74.503906 21.023438 74.480469 21.027344 C 74.460938 21.03125 74.445312 21.03125 74.425781 21.035156 C 74.402344 21.039062 74.371094 21.042969 74.347656 21.042969 C 74.328125 21.046875 74.3125 21.050781 74.292969 21.050781 C 74.269531 21.054688 74.238281 21.058594 74.214844 21.0625 C 74.195312 21.066406 74.179688 21.066406 74.160156 21.070312 C 74.136719 21.074219 74.101562 21.078125 74.082031 21.082031 C 74.0625 21.082031 74.046875 21.085938 74.027344 21.089844 C 74.003906 21.089844 73.964844 21.097656 73.941406 21.101562 C 73.925781 21.101562 73.910156 21.105469 73.898438 21.109375 C 73.867188 21.113281 73.792969 21.125 73.769531 21.128906 C 73.757812 21.128906 73.75 21.128906 73.742188 21.132812 C 73.71875 21.136719 73.664062 21.144531 73.636719 21.148438 C 73.621094 21.152344 73.605469 21.15625 73.589844 21.15625 C 73.566406 21.160156 73.53125 21.167969 73.507812 21.171875 C 73.488281 21.175781 73.472656 21.179688 73.453125 21.179688 C 73.429688 21.183594 73.402344 21.191406 73.378906 21.195312 C 73.359375 21.199219 73.339844 21.199219 73.320312 21.203125 C 73.300781 21.207031 73.269531 21.214844 73.25 21.21875 C 73.230469 21.222656 73.210938 21.226562 73.191406 21.230469 C 73.171875 21.234375 73.140625 21.238281 73.117188 21.242188 C 73.097656 21.246094 73.082031 21.25 73.0625 21.253906 C 73.039062 21.257812 73.007812 21.265625 72.984375 21.269531 C 72.96875 21.273438 72.949219 21.277344 72.933594 21.28125 C 72.910156 21.285156 72.855469 21.296875 72.835938 21.300781 C 72.824219 21.300781 72.8125 21.304688 72.804688 21.304688 C 72.800781 21.308594 72.796875 21.308594 72.792969 21.308594 C 72.769531 21.3125 72.707031 21.328125 72.679688 21.332031 C 72.664062 21.335938 72.648438 21.339844 72.628906 21.34375 C 72.609375 21.347656 72.574219 21.355469 72.554688 21.363281 C 72.535156 21.367188 72.515625 21.371094 72.496094 21.375 C 72.476562 21.378906 72.449219 21.386719 72.425781 21.390625 C 72.40625 21.394531 72.386719 21.398438 72.367188 21.40625 C 72.347656 21.410156 72.320312 21.414062 72.296875 21.421875 C 72.277344 21.425781 72.261719 21.429688 72.242188 21.433594 C 72.21875 21.441406 72.191406 21.445312 72.171875 21.453125 C 72.152344 21.457031 72.132812 21.460938 72.113281 21.464844 C 72.09375 21.472656 72.0625 21.480469 72.042969 21.484375 C 72.023438 21.488281 72.003906 21.492188 71.988281 21.496094 C 71.964844 21.503906 71.925781 21.515625 71.90625 21.519531 C 71.890625 21.523438 71.875 21.527344 71.859375 21.53125 C 71.832031 21.539062 71.769531 21.554688 71.738281 21.5625 C 71.722656 21.566406 71.707031 21.570312 71.691406 21.578125 C 71.667969 21.582031 71.636719 21.589844 71.613281 21.597656 C 71.597656 21.601562 71.578125 21.609375 71.558594 21.613281 C 71.539062 21.621094 71.511719 21.625 71.488281 21.632812 C 71.472656 21.636719 71.453125 21.644531 71.433594 21.648438 C 71.410156 21.65625 71.386719 21.664062 71.363281 21.667969 C 71.347656 21.675781 71.328125 21.679688 71.308594 21.6875 C 71.285156 21.691406 71.261719 21.699219 71.238281 21.707031 C 71.222656 21.710938 71.203125 21.71875 71.183594 21.722656 C 71.160156 21.730469 71.132812 21.738281 71.113281 21.746094 C 71.097656 21.75 71.078125 21.753906 71.058594 21.761719 C 71.039062 21.769531 71.003906 21.777344 70.984375 21.785156 C 70.96875 21.789062 70.953125 21.792969 70.9375 21.800781 C 70.90625 21.808594 70.84375 21.828125 70.816406 21.839844 C 70.800781 21.84375 70.789062 21.847656 70.773438 21.851562 C 70.753906 21.859375 70.714844 21.871094 70.695312 21.878906 C 70.675781 21.882812 70.660156 21.890625 70.640625 21.894531 C 70.621094 21.902344 70.59375 21.914062 70.570312 21.917969 C 70.554688 21.925781 70.535156 21.933594 70.515625 21.9375 C 70.496094 21.945312 70.46875 21.953125 70.449219 21.960938 C 70.429688 21.96875 70.394531 21.980469 70.394531 21.980469 L 70.324219 22.003906 L 70.273438 22.023438 L 70.203125 22.050781 L 70.152344 22.066406 L 70.074219 22.097656 L 70.03125 22.113281 L 69.910156 22.15625 L 69.898438 22.160156 L 69.789062 22.203125 L 69.753906 22.21875 L 69.671875 22.25 L 69.628906 22.269531 L 69.550781 22.300781 L 69.503906 22.316406 L 69.429688 22.347656 L 69.386719 22.367188 L 69.304688 22.398438 L 69.265625 22.414062 L 69.175781 22.457031 L 69.148438 22.464844 L 69.03125 22.519531 L 68.90625 22.570312 L 68.898438 22.574219 L 68.789062 22.625 L 68.765625 22.636719 L 68.667969 22.679688 L 68.644531 22.691406 L 68.550781 22.734375 L 68.523438 22.746094 L 68.425781 22.792969 L 68.40625 22.800781 L 68.292969 22.859375 C 61.769531 26.042969 57.269531 32.746094 57.269531 40.488281 C 57.269531 48.238281 61.777344 54.945312 68.308594 58.125 L 68.425781 58.183594 L 68.4375 58.1875 L 68.546875 58.238281 L 68.558594 58.246094 L 68.667969 58.296875 L 68.679688 58.300781 L 68.796875 58.355469 C 68.839844 58.375 68.878906 58.394531 68.921875 58.410156 L 69.042969 58.464844 L 69.0625 58.472656 L 69.160156 58.515625 L 69.195312 58.53125 L 69.277344 58.5625 L 69.320312 58.582031 L 69.394531 58.613281 L 69.441406 58.632812 L 69.515625 58.664062 L 69.558594 58.683594 L 69.636719 58.710938 L 69.679688 58.730469 L 69.765625 58.761719 L 69.800781 58.777344 L 69.917969 58.820312 L 69.96875 58.839844 L 70.035156 58.867188 L 70.09375 58.886719 L 70.15625 58.910156 L 70.214844 58.933594 L 70.277344 58.953125 L 70.335938 58.976562 L 70.398438 58.996094 L 70.460938 59.019531 L 70.515625 59.039062 L 70.582031 59.058594 L 70.636719 59.078125 L 70.703125 59.101562 L 70.816406 59.140625 L 70.886719 59.160156 L 70.9375 59.179688 L 71.007812 59.199219 L 71.0625 59.214844 L 71.128906 59.238281 L 71.183594 59.253906 L 71.25 59.273438 L 71.308594 59.289062 L 71.375 59.3125 L 71.429688 59.328125 L 71.5 59.347656 L 71.554688 59.363281 L 71.621094 59.382812 L 71.675781 59.394531 L 71.808594 59.433594 L 71.863281 59.445312 L 71.929688 59.464844 L 71.988281 59.480469 L 72.054688 59.496094 L 72.242188 59.542969 L 72.308594 59.558594 L 72.367188 59.570312 L 72.433594 59.585938 L 72.558594 59.617188 L 72.628906 59.632812 L 72.6875 59.644531 L 72.808594 59.671875 L 72.867188 59.683594 L 72.9375 59.695312 L 72.996094 59.710938 L 73.066406 59.722656 L 73.125 59.734375 L 73.191406 59.75 L 73.253906 59.761719 L 73.324219 59.773438 L 73.382812 59.78125 L 73.453125 59.796875 L 73.515625 59.804688 L 73.589844 59.820312 L 73.644531 59.828125 L 73.769531 59.847656 L 73.808594 59.855469 L 73.898438 59.871094 L 73.953125 59.878906 L 74.03125 59.890625 L 74.085938 59.894531 L 74.160156 59.90625 L 74.21875 59.914062 L 74.292969 59.925781 L 74.351562 59.933594 L 74.429688 59.941406 L 74.484375 59.949219 L 74.566406 59.957031 L 74.613281 59.964844 L 74.71875 59.976562 L 74.746094 59.980469 L 74.878906 59.992188 L 74.921875 59.996094 L 75.011719 60.007812 L 75.0625 60.011719 L 75.144531 60.019531 L 75.199219 60.023438 L 75.277344 60.03125 L 75.335938 60.035156 L 75.414062 60.039062 L 75.46875 60.042969 L 75.550781 60.050781 L 75.601562 60.054688 L 75.699219 60.058594 L 75.734375 60.0625 L 75.871094 60.070312 L 75.898438 60.070312 L 76.003906 60.074219 L 76.054688 60.078125 L 76.140625 60.082031 L 76.191406 60.082031 L 76.277344 60.085938 L 76.332031 60.085938 L 76.410156 60.089844 L 76.550781 60.089844 L 76.601562 60.09375 L 76.875 60.09375 C 76.875 60.09375 77 60.09375 77 60.09375 L 77.160156 60.09375 L 77.285156 60.089844 L 77.320312 60.089844 L 77.429688 60.085938 L 77.445312 60.085938 L 77.570312 60.082031 L 77.601562 60.082031 L 77.707031 60.078125 L 77.730469 60.074219 L 77.855469 60.070312 L 77.882812 60.066406 L 77.988281 60.0625 L 78.015625 60.0625 L 78.136719 60.054688 L 78.164062 60.050781 L 78.269531 60.042969 L 78.296875 60.042969 L 78.421875 60.035156 L 78.441406 60.03125 L 78.546875 60.023438 L 78.578125 60.019531 L 78.703125 60.007812 L 78.710938 60.007812 L 78.828125 59.996094 L 78.855469 59.996094 L 78.980469 59.980469 L 79.105469 59.96875 L 79.132812 59.964844 L 79.382812 59.933594 L 79.40625 59.929688 L 79.535156 59.914062 L 79.660156 59.898438 L 79.800781 59.875 L 79.808594 59.875 L 79.9375 59.855469 L 79.953125 59.851562 L 80.074219 59.832031 L 80.082031 59.832031 L 80.210938 59.808594 L 80.21875 59.808594 L 80.34375 59.785156 L 80.355469 59.785156 L 80.484375 59.761719 L 80.617188 59.738281 L 80.625 59.734375 L 80.757812 59.710938 L 80.886719 59.683594 L 80.890625 59.679688 L 81.15625 59.625 C 82.625 59.296875 84.03125 58.804688 85.355469 58.167969 C 86.230469 57.746094 87.070312 57.261719 87.867188 56.71875 C 87.960938 56.65625 88.070312 56.625 88.179688 56.625 C 88.996094 56.625 92.511719 56.625 94.421875 56.625 C 94.644531 56.621094 94.84375 56.753906 94.929688 56.957031 C 95.019531 57.160156 94.976562 57.398438 94.828125 57.558594 C 94.042969 58.386719 93.203125 59.160156 92.3125 59.875 C 92.3125 59.875 92.917969 61.695312 93.347656 62.992188 C 93.601562 63.757812 93.308594 64.601562 92.632812 65.042969 C 91.816406 65.566406 90.976562 66.050781 90.117188 66.492188 C 89.398438 66.855469 88.523438 66.691406 87.988281 66.085938 C 87.078125 65.066406 85.804688 63.632812 85.804688 63.632812 C 85.367188 63.800781 84.921875 63.960938 84.476562 64.105469 C 84.378906 64.160156 84.273438 64.203125 84.160156 64.238281 C 83.007812 64.589844 81.828125 64.859375 80.632812 65.042969 C 80.632812 65.042969 80.246094 66.921875 79.96875 68.261719 C 79.808594 69.050781 79.132812 69.632812 78.328125 69.675781 C 77.828125 69.699219 77.328125 69.710938 76.828125 69.710938 C 76.328125 69.710938 75.828125 69.699219 75.328125 69.675781 C 74.523438 69.632812 73.847656 69.050781 73.6875 68.261719 C 73.410156 66.921875 73.023438 65.042969 73.023438 65.042969 C 71.828125 64.859375 70.648438 64.589844 69.492188 64.238281 C 69.382812 64.203125 69.277344 64.160156 69.179688 64.105469 C 68.730469 63.960938 68.289062 63.800781 67.851562 63.632812 C 67.851562 63.632812 66.578125 65.066406 65.667969 66.085938 C 65.132812 66.691406 64.257812 66.855469 63.539062 66.492188 C 62.675781 66.050781 61.835938 65.566406 61.023438 65.042969 C 60.347656 64.601562 60.050781 63.757812 60.308594 62.992188 C 60.738281 61.695312 61.34375 59.875 61.34375 59.875 C 59.921875 58.734375 58.628906 57.441406 57.488281 56.019531 C 57.488281 56.019531 55.667969 56.625 54.371094 57.054688 C 53.605469 57.308594 52.765625 57.015625 52.324219 56.339844 C 51.796875 55.527344 51.3125 54.6875 50.871094 53.824219 C 50.503906 53.105469 50.671875 52.230469 51.273438 51.691406 C 52.296875 50.785156 53.730469 49.511719 53.730469 49.511719 C 53.070312 47.8125 52.597656 46.046875 52.320312 44.246094 C 52.320312 44.246094 50.441406 43.859375 49.101562 43.582031 C 48.3125 43.417969 47.730469 42.746094 47.6875 41.941406 C 47.640625 40.972656 47.640625 40.003906 47.683594 39.035156 C 47.730469 38.230469 48.3125 37.554688 49.101562 37.390625 C 50.441406 37.117188 52.320312 36.730469 52.320312 36.730469 C 52.597656 34.929688 53.070312 33.164062 53.730469 31.464844 C 53.730469 31.464844 52.296875 30.191406 51.277344 29.28125 C 50.671875 28.746094 50.507812 27.871094 50.871094 27.152344 C 51.3125 26.289062 51.796875 25.449219 52.320312 24.636719 C 52.761719 23.960938 53.605469 23.664062 54.371094 23.921875 C 55.667969 24.351562 57.488281 24.957031 57.488281 24.957031 C 58.628906 23.535156 59.921875 22.242188 61.34375 21.101562 C 61.34375 21.101562 60.738281 19.28125 60.308594 17.984375 C 60.054688 17.21875 60.347656 16.378906 61.023438 15.9375 C 61.835938 15.410156 62.675781 14.925781 63.539062 14.484375 C 64.257812 14.117188 65.132812 14.285156 65.667969 14.886719 C 66.105469 15.378906 66.628906 15.96875 67.054688 16.445312 C 67.53125 16.976562 68.277344 17.175781 68.957031 16.945312 C 69.035156 16.917969 69.113281 16.890625 69.191406 16.867188 C 69.289062 16.816406 69.390625 16.773438 69.496094 16.742188 C 70.390625 16.464844 71.296875 16.242188 72.21875 16.070312 C 72.617188 15.929688 72.945312 15.652344 73.15625 15.292969 L 73.683594 12.714844 C 73.847656 11.925781 74.523438 11.34375 75.328125 11.296875 C 75.828125 11.273438 76.328125 11.261719 76.828125 11.265625 C 77.328125 11.261719 77.828125 11.273438 78.328125 11.296875 C 79.132812 11.34375 79.808594 11.925781 79.972656 12.714844 L 80.5 15.292969 C 80.710938 15.652344 81.039062 15.929688 81.4375 16.070312 C 82.359375 16.242188 83.265625 16.464844 84.160156 16.742188 C 84.265625 16.773438 84.367188 16.816406 84.460938 16.867188 C 84.539062 16.890625 84.621094 16.917969 84.699219 16.945312 C 85.375 17.175781 86.125 16.976562 86.601562 16.445312 C 87.027344 15.96875 87.546875 15.378906 87.984375 14.886719 C 88.523438 14.285156 89.398438 14.117188 90.117188 14.484375 C 90.976562 14.925781 91.816406 15.410156 92.632812 15.9375 C 93.308594 16.378906 93.601562 17.21875 93.347656 17.984375 C 92.917969 19.28125 92.3125 21.101562 92.3125 21.101562 C 93.203125 21.816406 94.042969 22.589844 94.828125 23.417969 C 94.976562 23.582031 95.019531 23.816406 94.929688 24.019531 C 94.84375 24.222656 94.640625 24.351562 94.421875 24.351562 C 92.511719 24.351562 88.996094 24.351562 88.179688 24.351562 C 88.070312 24.351562 87.960938 24.320312 87.871094 24.257812 C 87.078125 23.71875 86.242188 23.238281 85.371094 22.816406 C 85.292969 22.777344 85.210938 22.742188 85.132812 22.703125 L 85.128906 22.703125 L 85.007812 22.648438 L 84.894531 22.59375 L 84.882812 22.589844 L 84.765625 22.539062 L 84.652344 22.488281 L 84.632812 22.480469 L 84.519531 22.429688 L 84.40625 22.382812 L 84.382812 22.375 L 84.15625 22.28125 L 84.132812 22.269531 L 84.023438 22.230469 L 84.019531 22.226562 L 83.90625 22.183594 L 83.878906 22.171875 L 83.78125 22.136719 L 83.765625 22.128906 L 83.65625 22.089844 L 83.53125 22.042969 L 83.507812 22.035156 L 83.398438 21.996094 L 83.367188 21.984375 L 83.28125 21.953125 L 83.25 21.945312 L 83.144531 21.90625 L 83.109375 21.898438 L 83.027344 21.867188 L 82.992188 21.859375 L 82.734375 21.773438 L 82.625 21.742188 L 82.59375 21.730469 L 82.507812 21.707031 L 82.472656 21.695312 L 82.363281 21.660156 L 82.335938 21.65625 L 82.246094 21.628906 L 82.210938 21.617188 L 82.097656 21.585938 L 82.078125 21.582031 L 81.984375 21.554688 L 81.945312 21.546875 L 81.84375 21.519531 L 81.820312 21.511719 L 81.71875 21.488281 L 81.679688 21.476562 L 81.585938 21.453125 L 81.5625 21.449219 L 81.449219 21.421875 L 81.414062 21.410156 L 81.320312 21.390625 L 81.292969 21.382812 L 81.183594 21.359375 L 81.144531 21.351562 L 81.054688 21.328125 L 81.023438 21.324219 L 80.910156 21.300781 L 80.878906 21.292969 L 80.785156 21.273438 L 80.753906 21.265625 L 80.640625 21.246094 L 80.609375 21.238281 L 80.515625 21.21875 L 80.484375 21.214844 L 80.367188 21.195312 L 80.339844 21.1875 L 80.242188 21.171875 L 80.210938 21.164062 L 80.070312 21.140625 L 79.96875 21.125 L 79.9375 21.121094 L 79.816406 21.101562 L 79.800781 21.097656 L 79.695312 21.085938 L 79.660156 21.078125 L 79.539062 21.0625 L 79.53125 21.0625 L 79.417969 21.046875 L 79.382812 21.042969 L 79.269531 21.027344 L 79.261719 21.027344 L 79.140625 21.011719 L 79.109375 21.007812 L 79 20.996094 L 78.984375 20.996094 L 78.863281 20.980469 L 78.828125 20.980469 L 78.722656 20.96875 L 78.703125 20.96875 L 78.582031 20.957031 L 78.550781 20.953125 L 78.449219 20.945312 L 78.421875 20.941406 L 78.300781 20.933594 L 78.269531 20.933594 L 78.167969 20.925781 L 78.140625 20.921875 L 78.015625 20.914062 L 77.992188 20.914062 L 77.886719 20.910156 L 77.855469 20.90625 L 77.734375 20.902344 L 77.710938 20.898438 L 77.605469 20.894531 L 77.574219 20.894531 L 77.449219 20.890625 L 77.429688 20.890625 L 77.320312 20.886719 L 77.289062 20.886719 L 77.160156 20.882812 Z M 76.738281 20.882812 " fill-opacity="1" fill-rule="evenodd"/></g><path fill="#ffffff" d="M 88.730469 29.386719 C 88.640625 29.089844 88.410156 28.859375 88.113281 28.773438 C 88.113281 28.773438 80.359375 26.464844 73.980469 32.84375 C 70.839844 35.984375 67.566406 41.128906 67.316406 44.078125 C 67.292969 44.347656 67.390625 44.609375 67.578125 44.800781 L 72.699219 49.921875 C 72.890625 50.113281 73.15625 50.207031 73.421875 50.183594 C 76.371094 49.933594 81.515625 46.664062 84.660156 43.519531 C 91.035156 37.140625 88.730469 29.386719 88.730469 29.386719 Z M 87.097656 30.402344 C 87.421875 32.070312 88.039062 37.566406 83.371094 42.230469 C 80.664062 44.9375 76.378906 47.84375 73.671875 48.316406 C 73.671875 48.316406 69.183594 43.828125 69.183594 43.828125 C 69.65625 41.121094 72.5625 36.835938 75.269531 34.128906 C 79.933594 29.464844 85.433594 30.078125 87.097656 30.402344 Z M 87.097656 30.402344 " fill-opacity="1" fill-rule="evenodd"/><path fill="#ffffff" d="M 83.378906 34.121094 C 81.84375 32.589844 79.355469 32.589844 77.824219 34.121094 C 76.289062 35.65625 76.289062 38.144531 77.824219 39.679688 C 79.355469 41.210938 81.84375 41.210938 83.378906 39.679688 C 84.910156 38.144531 84.910156 35.65625 83.378906 34.121094 Z M 82.089844 35.410156 C 82.914062 36.234375 82.914062 37.566406 82.089844 38.390625 C 81.269531 39.214844 79.933594 39.214844 79.109375 38.390625 C 78.289062 37.566406 78.289062 36.234375 79.109375 35.410156 C 79.933594 34.585938 81.269531 34.585938 82.089844 35.410156 Z M 82.089844 35.410156 " fill-opacity="1" fill-rule="evenodd"/><path fill="#ffffff" d="M 78.28125 46.59375 L 70.910156 39.21875 C 70.554688 38.867188 69.976562 38.867188 69.621094 39.21875 C 69.265625 39.574219 69.265625 40.152344 69.621094 40.507812 L 76.992188 47.878906 C 77.347656 48.234375 77.925781 48.234375 78.28125 47.878906 C 78.636719 47.523438 78.636719 46.945312 78.28125 46.59375 Z M 78.28125 46.59375 " fill-opacity="1" fill-rule="evenodd"/><g clip-path="url(#e4f1f9e5e0)"><path fill="#ffffff" d="M 80.121094 45.78125 C 80.121094 45.78125 79.9375 47.789062 79.8125 49.175781 C 79.765625 49.683594 79.46875 50.132812 79.019531 50.375 L 75.960938 52.023438 C 75.960938 52.023438 75.960938 49.277344 75.960938 49.277344 C 75.960938 48.777344 75.554688 48.367188 75.050781 48.367188 C 74.550781 48.367188 74.140625 48.777344 74.140625 49.277344 L 74.140625 53.546875 C 74.140625 53.867188 74.308594 54.164062 74.585938 54.328125 C 74.859375 54.492188 75.199219 54.5 75.484375 54.347656 C 75.484375 54.347656 78.257812 52.851562 79.882812 51.976562 C 80.871094 51.449219 81.523438 50.457031 81.625 49.34375 C 81.75 47.953125 81.933594 45.945312 81.933594 45.945312 C 81.980469 45.445312 81.609375 45.003906 81.109375 44.957031 C 80.609375 44.910156 80.164062 45.28125 80.121094 45.78125 Z M 80.121094 45.78125 " fill-opacity="1" fill-rule="evenodd"/></g><path fill="#ffffff" d="M 71.554688 35.566406 C 71.554688 35.566406 69.546875 35.75 68.160156 35.875 C 67.042969 35.976562 66.054688 36.632812 65.523438 37.617188 C 64.648438 39.242188 63.152344 42.015625 63.152344 42.015625 C 63 42.300781 63.007812 42.640625 63.171875 42.917969 C 63.335938 43.191406 63.632812 43.359375 63.953125 43.359375 L 68.222656 43.359375 C 68.726562 43.359375 69.132812 42.953125 69.132812 42.449219 C 69.132812 41.945312 68.726562 41.539062 68.222656 41.539062 L 65.480469 41.539062 L 67.125 38.480469 C 67.367188 38.03125 67.816406 37.734375 68.324219 37.6875 C 69.714844 37.5625 71.71875 37.378906 71.71875 37.378906 C 72.21875 37.335938 72.589844 36.890625 72.542969 36.390625 C 72.5 35.890625 72.054688 35.523438 71.554688 35.566406 Z M 71.554688 35.566406 " fill-opacity="1" fill-rule="evenodd"/><path fill="#ffffff" d="M 65.667969 46.277344 L 63.738281 48.207031 C 63.382812 48.5625 63.382812 49.140625 63.738281 49.496094 C 64.09375 49.847656 64.667969 49.847656 65.023438 49.496094 L 66.953125 47.566406 C 67.308594 47.210938 67.308594 46.632812 66.953125 46.277344 C 66.597656 45.921875 66.023438 45.921875 65.667969 46.277344 Z M 65.667969 46.277344 " fill-opacity="1" fill-rule="evenodd"/><path fill="#ffffff" d="M 67.800781 48.414062 L 64.164062 52.046875 C 63.808594 52.402344 63.808594 52.980469 64.164062 53.335938 C 64.519531 53.691406 65.097656 53.691406 65.453125 53.335938 L 69.089844 49.699219 C 69.445312 49.34375 69.445312 48.765625 69.089844 48.414062 C 68.734375 48.058594 68.15625 48.058594 67.800781 48.414062 Z M 67.800781 48.414062 " fill-opacity="1" fill-rule="evenodd"/><g clip-path="url(#24eeede2a6)"><path fill="#ffffff" d="M 69.933594 50.546875 L 68.003906 52.476562 C 67.652344 52.832031 67.652344 53.40625 68.003906 53.761719 C 68.359375 54.117188 68.9375 54.117188 69.292969 53.761719 L 71.222656 51.832031 C 71.578125 51.476562 71.578125 50.902344 71.222656 50.546875 C 70.867188 50.191406 70.289062 50.191406 69.933594 50.546875 Z M 69.933594 50.546875 " fill-opacity="1" fill-rule="evenodd"/></g></svg>