<svg xmlns="http://www.w3.org/2000/svg" xmlns:xlink="http://www.w3.org/1999/xlink" width="500" zoomAndPan="magnify" viewBox="0 0 375 374.999991" height="500" preserveAspectRatio="xMidYMid meet" version="1.0"><defs><clipPath id="358e68a0f1"><path d="M 0 0 L 374.976562 0 L 374.976562 375 L 0 375 Z M 0 0 " clip-rule="nonzero"/></clipPath></defs><path fill="#004aad" d="M 324.640625 124.347656 C 335.113281 124.347656 343.632812 115.792969 343.632812 105.277344 C 343.632812 94.761719 335.113281 86.207031 324.640625 86.207031 C 314.164062 86.207031 305.640625 94.761719 305.640625 105.277344 C 305.640625 115.792969 314.164062 124.347656 324.640625 124.347656 " fill-opacity="1" fill-rule="nonzero"/><path fill="#004aad" d="M 57.75 32.816406 C 55.402344 31.839844 52.933594 31.351562 50.46875 31.351562 C 48.019531 31.351562 45.574219 31.832031 43.242188 32.792969 C 38.546875 34.734375 34.882812 38.394531 32.925781 43.105469 C 28.902344 52.820312 33.5 64.011719 43.183594 68.042969 C 47.859375 69.988281 53.011719 70 57.691406 68.066406 C 62.390625 66.132812 66.054688 62.46875 68.003906 57.757812 C 72.03125 48.042969 67.433594 36.851562 57.75 32.816406 " fill-opacity="1" fill-rule="nonzero"/><g clip-path="url(#358e68a0f1)"><path fill="#004aad" d="M 213.507812 166.9375 L 213.507812 180.214844 C 216.8125 179.027344 220.375 178.378906 224.082031 178.378906 C 235.910156 178.378906 246.226562 184.972656 251.546875 194.679688 C 255.863281 192.4375 260.765625 191.160156 265.960938 191.160156 C 277.785156 191.160156 288.101562 197.757812 293.421875 207.46875 C 297.738281 205.21875 302.640625 203.945312 307.832031 203.945312 C 325.089844 203.945312 339.132812 217.996094 339.132812 235.257812 L 339.132812 313.679688 C 339.132812 341.640625 316.398438 364.386719 288.449219 364.386719 L 180.625 364.386719 C 163.964844 364.386719 148.199219 355.566406 139.472656 341.371094 L 110.25 293.851562 C 109.246094 292.21875 108.71875 290.339844 108.71875 288.421875 L 108.71875 232.621094 C 108.71875 215.359375 122.757812 201.316406 140.019531 201.316406 L 150.90625 201.316406 L 150.910156 167.015625 C 137.886719 160.375 127.246094 149.714844 120.597656 136.683594 L 88.101562 147.507812 C 94.460938 167.058594 84.785156 188.609375 65.503906 196.589844 C 60.609375 198.613281 55.472656 199.625 50.335938 199.625 C 45.179688 199.625 40.023438 198.609375 35.117188 196.566406 C 25.300781 192.488281 17.667969 184.824219 13.613281 174.984375 C 5.265625 154.703125 14.9375 131.394531 35.171875 123.023438 C 44.972656 118.964844 55.765625 118.972656 65.558594 123.042969 C 69.5 124.679688 73.078125 126.90625 76.226562 129.613281 L 114.050781 117.011719 C 113.394531 113.195312 113.054688 109.28125 113.054688 105.277344 C 113.054688 99.527344 113.765625 93.933594 115.09375 88.585938 L 81.914062 74.761719 C 77.710938 80.230469 72.140625 84.53125 65.601562 87.226562 C 60.722656 89.242188 55.59375 90.25 50.46875 90.25 C 45.296875 90.25 40.132812 89.226562 35.214844 87.179688 C 14.996094 78.753906 5.382812 55.421875 13.78125 35.164062 C 17.855469 25.332031 25.511719 17.691406 35.335938 13.632812 C 45.136719 9.585938 55.929688 9.601562 65.722656 13.683594 C 82.636719 20.730469 92.125 38.21875 89.851562 55.613281 L 123.050781 69.449219 C 135.171875 49.4375 157.125 36.042969 182.136719 36.042969 C 216.71875 36.042969 245.445312 61.640625 250.453125 94.914062 L 286.289062 94.914062 C 290.855469 77.980469 306.308594 65.476562 324.640625 65.476562 C 346.542969 65.476562 364.363281 83.332031 364.363281 105.277344 C 364.363281 127.222656 346.542969 145.074219 324.640625 145.074219 C 306.308594 145.074219 290.855469 132.578125 286.289062 115.640625 L 250.441406 115.640625 C 247.070312 138.050781 232.9375 156.964844 213.507812 166.9375 Z M 259.03125 126.257812 L 278.875 126.257812 C 286.964844 143.925781 304.761719 155.6875 324.636719 155.6875 C 352.394531 155.6875 374.976562 133.074219 374.976562 105.277344 C 374.976562 77.480469 352.394531 54.867188 324.636719 54.867188 C 304.765625 54.867188 286.964844 66.628906 278.875 84.300781 L 259.035156 84.300781 C 249.707031 50.167969 218.136719 25.429688 182.140625 25.429688 C 157.160156 25.429688 134.230469 36.832031 119.183594 56.339844 L 100.765625 48.667969 C 100.078125 29.242188 88.152344 11.53125 69.804688 3.890625 C 63.613281 1.308594 57.109375 0 50.46875 0 C 43.890625 0 37.4375 1.285156 31.285156 3.828125 C 18.835938 8.96875 9.136719 18.65625 3.980469 31.101562 C -6.660156 56.753906 5.519531 86.304688 31.132812 96.976562 C 37.328125 99.554688 43.835938 100.867188 50.46875 100.867188 C 57.042969 100.867188 63.5 99.578125 69.65625 97.039062 C 75.226562 94.738281 80.316406 91.464844 84.683594 87.414062 L 103.09375 95.082031 C 102.660156 98.457031 102.445312 101.863281 102.445312 105.277344 C 102.445312 106.738281 102.484375 108.199219 102.5625 109.652344 L 78.148438 117.785156 C 75.464844 116.003906 72.617188 114.484375 69.628906 113.242188 C 63.453125 110.675781 56.960938 109.371094 50.339844 109.371094 C 43.742188 109.371094 37.273438 110.664062 31.109375 113.214844 C 5.480469 123.824219 -6.773438 153.347656 3.800781 179.027344 C 8.933594 191.492188 18.609375 201.203125 31.035156 206.363281 C 37.207031 208.933594 43.699219 210.238281 50.335938 210.238281 C 56.9375 210.238281 63.40625 208.949219 69.554688 206.394531 C 90.378906 197.789062 102.597656 176.300781 100.386719 154.597656 L 115.808594 149.460938 C 122.171875 158.996094 130.574219 167.148438 140.296875 173.195312 L 140.292969 190.703125 L 140.019531 190.703125 C 116.910156 190.703125 98.109375 209.507812 98.109375 232.621094 L 98.105469 288.421875 C 98.105469 292.296875 99.179688 296.097656 101.210938 299.417969 L 130.433594 346.925781 C 141.074219 364.242188 160.304688 375 180.625 375 L 288.449219 375 C 322.246094 375 349.746094 347.492188 349.746094 313.683594 L 349.746094 235.257812 C 349.746094 212.136719 330.945312 193.332031 307.832031 193.332031 C 304.28125 193.332031 300.742188 193.785156 297.316406 194.675781 C 289.445312 185.800781 278.089844 180.546875 265.960938 180.546875 C 262.417969 180.546875 258.871094 181.003906 255.445312 181.890625 C 249.085938 174.71875 240.449219 169.914062 230.964844 168.335938 C 244.574219 157.726562 254.484375 142.9375 259.03125 126.257812 " fill-opacity="1" fill-rule="nonzero"/></g><path fill="#004aad" d="M 182.136719 56.769531 C 155.476562 56.769531 133.785156 78.53125 133.785156 105.277344 C 133.785156 120.09375 140.445312 133.367188 150.910156 142.269531 L 150.910156 131.058594 C 150.914062 113.796875 164.953125 99.753906 182.207031 99.753906 C 199.46875 99.753906 213.507812 113.792969 213.507812 131.046875 L 213.507812 142.148438 C 223.894531 133.246094 230.496094 120.027344 230.496094 105.277344 C 230.496094 78.53125 208.808594 56.769531 182.136719 56.769531 " fill-opacity="1" fill-rule="nonzero"/><path fill="#004aad" d="M 57.601562 142.1875 C 55.261719 141.210938 52.796875 140.722656 50.335938 140.722656 C 47.886719 140.722656 45.429688 141.207031 43.097656 142.175781 C 33.40625 146.1875 28.777344 157.363281 32.78125 167.09375 C 34.71875 171.800781 38.375 175.472656 43.070312 177.425781 C 47.746094 179.371094 52.898438 179.375 57.578125 177.4375 C 67.269531 173.429688 71.894531 162.25 67.890625 152.523438 C 65.949219 147.808594 62.296875 144.136719 57.601562 142.1875 " fill-opacity="1" fill-rule="nonzero"/><path fill="#004aad" d="M 213.507812 231.601562 C 213.507812 237.332031 208.867188 241.96875 203.144531 241.96875 C 197.417969 241.96875 192.78125 237.332031 192.78125 231.601562 L 192.777344 131.046875 C 192.777344 125.21875 188.042969 120.484375 182.21875 120.484375 C 176.382812 120.484375 171.636719 125.226562 171.636719 131.058594 L 171.636719 211.3125 C 171.636719 211.433594 171.640625 211.554688 171.640625 211.679688 C 171.648438 229.34375 171.648438 239.949219 171.648438 246.140625 L 171.640625 253.742188 C 171.640625 253.820312 171.640625 253.894531 171.636719 253.972656 C 171.636719 253.984375 171.636719 253.988281 171.636719 253.996094 C 171.5 260.792969 166.234375 264.464844 161.28125 264.464844 L 161.277344 264.464844 C 156.351562 264.464844 151.117188 260.800781 150.917969 254.003906 L 150.914062 254.003906 L 150.914062 253.878906 C 150.910156 253.796875 150.910156 253.710938 150.910156 253.625 L 150.90625 231.601562 L 150.90625 222.042969 L 140.015625 222.042969 C 134.191406 222.042969 129.449219 226.789062 129.449219 232.621094 L 129.441406 285.492188 L 157.128906 330.515625 C 162.113281 338.621094 171.113281 343.65625 180.621094 343.65625 L 288.449219 343.65625 C 304.964844 343.65625 318.402344 330.210938 318.402344 313.679688 L 318.402344 235.257812 C 318.402344 229.421875 313.660156 224.675781 307.832031 224.675781 C 302 224.675781 297.257812 229.421875 297.257812 235.257812 L 297.257812 263.566406 C 297.257812 269.289062 292.617188 273.929688 286.890625 273.929688 C 281.171875 273.929688 276.527344 269.289062 276.527344 263.566406 L 276.527344 222.472656 C 276.527344 216.636719 271.785156 211.890625 265.953125 211.890625 C 260.125 211.890625 255.378906 216.636719 255.378906 222.472656 L 255.378906 244.386719 C 255.378906 250.113281 250.742188 254.75 245.019531 254.75 C 239.296875 254.75 234.65625 250.113281 234.65625 244.386719 L 234.65625 209.6875 C 234.65625 203.851562 229.914062 199.105469 224.082031 199.105469 C 218.253906 199.105469 213.507812 203.851562 213.507812 209.6875 L 213.507812 231.601562 " fill-opacity="1" fill-rule="nonzero"/></svg>