<svg xmlns="http://www.w3.org/2000/svg" xmlns:xlink="http://www.w3.org/1999/xlink" width="500" zoomAndPan="magnify" viewBox="0 0 375 374.999991" height="500" preserveAspectRatio="xMidYMid meet" version="1.0"><defs><clipPath id="a52b4dc538"><path d="M 107 4.6875 L 367 4.6875 L 367 370.6875 L 107 370.6875 Z M 107 4.6875 " clip-rule="nonzero"/></clipPath></defs><path fill="#004aad" d="M 185.347656 185.328125 C 185.347656 134.222656 143.769531 92.652344 92.675781 92.652344 C 41.570312 92.652344 0 134.222656 0 185.328125 C 0 236.421875 41.570312 278 92.675781 278 C 143.769531 278 185.347656 236.421875 185.347656 185.328125 Z M 68.011719 228.484375 C 44.214844 228.484375 24.855469 209.125 24.855469 185.328125 C 24.855469 161.527344 44.214844 142.167969 68.011719 142.167969 C 91.8125 142.167969 111.171875 161.527344 111.171875 185.328125 C 111.171875 209.125 91.8125 228.484375 68.011719 228.484375 Z M 123.5 234.652344 C 120.09375 234.652344 117.335938 231.890625 117.335938 228.484375 C 117.335938 225.078125 120.09375 222.320312 123.5 222.320312 C 133.699219 222.320312 142 214.019531 142 203.824219 C 142 200.425781 139.230469 197.65625 135.832031 197.65625 C 132.433594 197.65625 129.667969 200.425781 129.667969 203.824219 C 129.667969 207.230469 126.90625 209.988281 123.5 209.988281 C 120.09375 209.988281 117.335938 207.230469 117.335938 203.824219 C 117.335938 193.625 125.628906 185.328125 135.832031 185.328125 C 146.027344 185.328125 154.328125 193.625 154.328125 203.824219 C 154.328125 210.757812 152.023438 217.164062 148.148438 222.320312 L 154.328125 222.320312 C 157.734375 222.320312 160.492188 225.078125 160.492188 228.484375 C 160.492188 231.890625 157.734375 234.652344 154.328125 234.652344 Z M 123.5 234.652344 " fill-opacity="1" fill-rule="nonzero"/><path fill="#004aad" d="M 79.8125 156.84375 C 80.746094 157.230469 81.65625 157.660156 82.546875 158.136719 C 83.4375 158.613281 84.300781 159.128906 85.140625 159.691406 C 85.980469 160.253906 86.792969 160.851562 87.570312 161.492188 C 88.351562 162.132812 89.101562 162.8125 89.8125 163.523438 C 90.527344 164.238281 91.203125 164.988281 91.84375 165.765625 C 92.484375 166.546875 93.085938 167.355469 93.648438 168.195312 C 94.207031 169.035156 94.726562 169.902344 95.203125 170.792969 C 95.679688 171.683594 96.109375 172.59375 96.496094 173.527344 C 96.882812 174.460938 97.222656 175.410156 97.515625 176.375 C 97.808594 177.339844 98.054688 178.320312 98.25 179.308594 C 98.449219 180.300781 98.59375 181.296875 98.695312 182.300781 C 98.792969 183.304688 98.84375 184.3125 98.84375 185.324219 C 98.84375 186.332031 98.792969 187.339844 98.695312 188.34375 C 98.59375 189.351562 98.449219 190.347656 98.25 191.335938 C 98.054688 192.328125 97.808594 193.304688 97.515625 194.273438 C 97.222656 195.238281 96.882812 196.1875 96.496094 197.121094 C 96.109375 198.054688 95.679688 198.964844 95.203125 199.855469 C 94.726562 200.746094 94.207031 201.609375 93.648438 202.449219 C 93.085938 203.289062 92.484375 204.097656 91.84375 204.878906 C 91.203125 205.660156 90.527344 206.40625 89.8125 207.121094 C 89.101562 207.835938 88.351562 208.511719 87.570312 209.152344 C 86.792969 209.792969 85.980469 210.394531 85.140625 210.957031 C 84.300781 211.515625 83.4375 212.035156 82.546875 212.511719 C 81.65625 212.988281 80.746094 213.417969 79.8125 213.804688 C 78.878906 214.191406 77.929688 214.53125 76.964844 214.824219 C 75.996094 215.117188 75.019531 215.359375 74.03125 215.558594 C 73.039062 215.753906 72.042969 215.902344 71.039062 216.003906 C 70.03125 216.101562 69.023438 216.152344 68.015625 216.152344 C 67.007812 216.152344 66 216.101562 64.992188 216.003906 C 63.988281 215.902344 62.992188 215.753906 62 215.558594 C 61.011719 215.359375 60.03125 215.117188 59.066406 214.824219 C 58.101562 214.53125 57.152344 214.191406 56.21875 213.804688 C 55.285156 213.417969 54.375 212.988281 53.484375 212.511719 C 52.59375 212.035156 51.726562 211.515625 50.890625 210.957031 C 50.050781 210.394531 49.238281 209.792969 48.460938 209.152344 C 47.679688 208.511719 46.929688 207.835938 46.21875 207.121094 C 45.503906 206.40625 44.828125 205.660156 44.1875 204.878906 C 43.546875 204.097656 42.945312 203.289062 42.382812 202.449219 C 41.824219 201.609375 41.304688 200.746094 40.828125 199.855469 C 40.351562 198.964844 39.921875 198.054688 39.535156 197.121094 C 39.148438 196.1875 38.808594 195.238281 38.515625 194.273438 C 38.222656 193.304688 37.976562 192.328125 37.78125 191.335938 C 37.582031 190.347656 37.4375 189.351562 37.335938 188.34375 C 37.238281 187.339844 37.1875 186.332031 37.1875 185.324219 C 37.1875 184.3125 37.238281 183.304688 37.335938 182.300781 C 37.4375 181.296875 37.582031 180.300781 37.78125 179.308594 C 37.976562 178.320312 38.222656 177.339844 38.515625 176.375 C 38.808594 175.410156 39.148438 174.460938 39.535156 173.527344 C 39.921875 172.59375 40.351562 171.683594 40.828125 170.792969 C 41.304688 169.902344 41.824219 169.035156 42.382812 168.195312 C 42.945312 167.355469 43.546875 166.546875 44.1875 165.765625 C 44.828125 164.984375 45.503906 164.238281 46.21875 163.523438 C 46.929688 162.8125 47.679688 162.132812 48.460938 161.492188 C 49.238281 160.851562 50.050781 160.253906 50.890625 159.691406 C 51.726562 159.128906 52.59375 158.613281 53.484375 158.136719 C 54.375 157.660156 55.285156 157.230469 56.21875 156.84375 C 57.152344 156.457031 58.101562 156.117188 59.066406 155.824219 C 60.03125 155.53125 61.011719 155.285156 62 155.089844 C 62.992188 154.890625 63.988281 154.742188 64.992188 154.644531 C 66 154.546875 67.007812 154.496094 68.015625 154.496094 C 69.023438 154.496094 70.03125 154.546875 71.039062 154.644531 C 72.042969 154.742188 73.039062 154.890625 74.03125 155.089844 C 75.019531 155.285156 76 155.53125 76.964844 155.824219 C 77.929688 156.117188 78.878906 156.457031 79.8125 156.84375 Z M 79.8125 156.84375 " fill-opacity="1" fill-rule="nonzero"/><g clip-path="url(#a52b4dc538)"><path fill="#004aad" d="M 340.527344 155.871094 L 231.082031 4.75 L 159.144531 104.097656 C 182.652344 123.371094 197.679688 152.628906 197.679688 185.328125 C 197.679688 238.257812 158.3125 282.171875 107.316406 289.316406 C 113.707031 303.835938 122.660156 317.34375 133.472656 328.742188 C 158.867188 355.507812 193.535156 370.253906 231.089844 370.253906 C 282.894531 370.253906 327.878906 342.707031 351.429688 296.566406 C 374.992188 250.425781 370.914062 197.835938 340.527344 155.871094 Z M 209.625 351.792969 C 202.8125 351.792969 197.296875 346.277344 197.296875 339.464844 C 197.296875 332.652344 202.8125 327.132812 209.625 327.132812 C 216.4375 327.132812 221.957031 332.652344 221.957031 339.464844 C 221.957031 346.277344 216.4375 351.792969 209.625 351.792969 Z M 228.121094 302.472656 C 221.308594 302.472656 215.792969 296.953125 215.792969 290.140625 C 215.792969 283.328125 221.308594 277.808594 228.121094 277.808594 C 234.933594 277.808594 240.453125 283.328125 240.453125 290.140625 C 240.453125 296.953125 234.933594 302.472656 228.121094 302.472656 Z M 265.113281 339.460938 C 258.300781 339.460938 252.785156 333.945312 252.785156 327.132812 C 252.785156 320.320312 258.300781 314.800781 265.113281 314.800781 C 271.925781 314.800781 277.445312 320.320312 277.445312 327.132812 C 277.445312 333.945312 271.925781 339.460938 265.113281 339.460938 Z M 265.113281 339.460938 " fill-opacity="1" fill-rule="nonzero"/></g></svg>