<svg xmlns="http://www.w3.org/2000/svg" xmlns:xlink="http://www.w3.org/1999/xlink" width="500" zoomAndPan="magnify" viewBox="0 0 375 374.999991" height="500" preserveAspectRatio="xMidYMid meet" version="1.0"><defs><clipPath id="57420f9037"><path d="M 4 34 L 370 34 L 370 342.328125 L 4 342.328125 Z M 4 34 " clip-rule="nonzero"/></clipPath></defs><g clip-path="url(#57420f9037)"><path fill="#004aad" d="M 84.410156 244.25 C 89.257812 248.242188 94.105469 252.519531 98.667969 256.511719 C 126.617188 281.035156 152.851562 308.414062 176.234375 337.785156 C 176.519531 339.210938 177.089844 340.351562 178.230469 341.207031 C 179.371094 342.0625 180.511719 342.347656 181.9375 342.347656 C 183.648438 342.347656 185.074219 341.777344 186.214844 340.351562 C 211.597656 310.410156 239.542969 282.460938 270.058594 257.082031 C 275.191406 252.804688 280.039062 248.8125 285.171875 244.820312 C 305.132812 228.851562 325.664062 212.308594 341.921875 191.777344 C 365.875 161.835938 375 127.613281 367.015625 98.527344 C 357.035156 60.882812 316.539062 32.9375 274.90625 34.933594 C 238.972656 36.644531 203.328125 58.886719 185.929688 89.6875 C 169.105469 59.742188 131.75 36.359375 95.53125 34.363281 C 56.179688 32.652344 17.394531 60.597656 7.699219 98.242188 C 0 127.328125 8.554688 161.265625 31.082031 191.207031 C 46.199219 211.738281 65.589844 228.28125 84.410156 244.25 Z M 87.546875 160.125 C 93.820312 160.125 99.523438 163.546875 102.375 168.679688 L 141.445312 168.679688 C 143.726562 168.679688 146.007812 170.105469 146.863281 172.386719 L 162.546875 213.164062 L 179.65625 172.101562 C 180.511719 170.105469 182.507812 168.679688 184.789062 168.679688 L 205.609375 168.679688 L 228.421875 123.335938 C 229.5625 121.339844 231.273438 120.199219 233.839844 120.199219 C 236.121094 120.199219 238.117188 121.625 238.972656 123.621094 L 258.363281 171.53125 L 268.0625 171.53125 C 270.34375 164.972656 276.617188 160.125 284.03125 160.125 C 293.441406 160.125 301.140625 167.824219 301.140625 177.234375 C 301.140625 186.644531 293.441406 194.34375 284.03125 194.34375 C 276.617188 194.34375 270.34375 189.496094 268.0625 182.9375 L 254.371094 182.9375 C 252.089844 182.9375 250.09375 181.511719 249.238281 179.515625 L 232.984375 139.589844 L 214.449219 176.949219 C 213.59375 178.945312 211.597656 180.085938 209.316406 180.085938 L 188.785156 180.085938 L 167.394531 230.847656 C 166.539062 232.84375 164.542969 234.269531 162.261719 234.269531 C 159.980469 234.269531 157.984375 232.84375 157.128906 230.5625 L 137.453125 180.085938 L 104.371094 180.085938 C 102.945312 188.070312 96.101562 194.34375 87.546875 194.34375 C 78.136719 194.34375 70.4375 186.644531 70.4375 177.234375 C 70.4375 167.824219 78.136719 160.125 87.546875 160.125 Z M 87.546875 160.125 " fill-opacity="1" fill-rule="nonzero"/></g></svg>