<svg xmlns="http://www.w3.org/2000/svg" xmlns:xlink="http://www.w3.org/1999/xlink" width="50" zoomAndPan="magnify" viewBox="0 0 37.5 37.499999" height="50" preserveAspectRatio="xMidYMid meet" version="1.0"><defs><clipPath id="f6a4f65335"><path d="M 33 10 L 37.007812 10 L 37.007812 14 L 33 14 Z M 33 10 " clip-rule="nonzero"/></clipPath></defs><path fill="#ffffff" d="M 14.171875 7.496094 C 13.996094 7.496094 13.835938 7.386719 13.773438 7.214844 C 13.675781 6.925781 13.625 6.621094 13.625 6.316406 C 13.625 4.789062 14.867188 3.542969 16.394531 3.542969 C 17.449219 3.542969 18.398438 4.132812 18.875 5.074219 C 18.976562 5.28125 18.894531 5.53125 18.6875 5.636719 C 18.480469 5.738281 18.230469 5.65625 18.125 5.449219 C 17.792969 4.789062 17.132812 4.382812 16.394531 4.382812 C 15.328125 4.382812 14.460938 5.25 14.460938 6.316406 C 14.460938 6.527344 14.496094 6.738281 14.566406 6.941406 C 14.640625 7.160156 14.523438 7.398438 14.304688 7.472656 C 14.261719 7.488281 14.214844 7.496094 14.171875 7.496094 Z M 14.171875 7.496094 " fill-opacity="1" fill-rule="nonzero"/><path fill="#ffffff" d="M 12.171875 9.921875 C 12.039062 9.921875 11.910156 9.859375 11.828125 9.742188 C 11.496094 9.273438 11.320312 8.722656 11.320312 8.144531 C 11.320312 6.617188 12.566406 5.375 14.09375 5.375 C 14.324219 5.375 14.511719 5.5625 14.511719 5.792969 C 14.511719 6.027344 14.324219 6.214844 14.09375 6.214844 C 13.027344 6.214844 12.160156 7.082031 12.160156 8.144531 C 12.160156 8.546875 12.28125 8.933594 12.511719 9.261719 C 12.644531 9.449219 12.601562 9.710938 12.414062 9.84375 C 12.339844 9.894531 12.253906 9.921875 12.171875 9.921875 Z M 12.171875 9.921875 " fill-opacity="1" fill-rule="nonzero"/><path fill="#ffffff" d="M 12.398438 13.976562 C 12.332031 13.976562 12.269531 13.960938 12.207031 13.929688 C 11.277344 13.453125 10.699219 12.507812 10.699219 11.464844 C 10.699219 10.027344 11.820312 8.8125 13.257812 8.703125 C 13.488281 8.683594 13.6875 8.855469 13.707031 9.085938 C 13.722656 9.316406 13.550781 9.519531 13.320312 9.535156 C 12.320312 9.613281 11.535156 10.460938 11.535156 11.464844 C 11.535156 12.195312 11.9375 12.851562 12.589844 13.1875 C 12.792969 13.292969 12.875 13.542969 12.769531 13.75 C 12.695312 13.894531 12.550781 13.976562 12.398438 13.976562 Z M 12.398438 13.976562 " fill-opacity="1" fill-rule="nonzero"/><path fill="#ffffff" d="M 14.070312 17.839844 C 14.0625 17.839844 14.050781 17.839844 14.042969 17.839844 C 12.578125 17.757812 11.425781 16.542969 11.425781 15.074219 C 11.425781 13.789062 12.300781 12.679688 13.550781 12.378906 C 13.773438 12.324219 14 12.464844 14.054688 12.6875 C 14.109375 12.914062 13.96875 13.140625 13.746094 13.191406 C 12.871094 13.402344 12.265625 14.175781 12.265625 15.070312 C 12.265625 16.097656 13.066406 16.945312 14.089844 17.003906 C 14.320312 17.015625 14.5 17.214844 14.484375 17.445312 C 14.472656 17.667969 14.289062 17.839844 14.070312 17.839844 Z M 14.070312 17.839844 " fill-opacity="1" fill-rule="nonzero"/><path fill="#ffffff" d="M 16.335938 19.570312 C 14.808594 19.570312 13.566406 18.328125 13.566406 16.800781 C 13.566406 15.570312 14.359375 14.503906 15.535156 14.148438 C 15.757812 14.078125 15.988281 14.203125 16.058594 14.425781 C 16.125 14.648438 16 14.882812 15.777344 14.949219 C 14.957031 15.195312 14.402344 15.941406 14.402344 16.800781 C 14.402344 17.863281 15.269531 18.734375 16.335938 18.734375 C 17.113281 18.734375 17.808594 18.273438 18.113281 17.558594 C 18.207031 17.347656 18.453125 17.25 18.664062 17.339844 C 18.875 17.429688 18.976562 17.675781 18.882812 17.886719 C 18.449219 18.910156 17.449219 19.570312 16.335938 19.570312 Z M 16.335938 19.570312 " fill-opacity="1" fill-rule="nonzero"/><path fill="#ffffff" d="M 15.40625 10.421875 C 15.21875 10.421875 15.046875 10.292969 15 10.101562 C 14.675781 8.773438 15.621094 7.976562 16.164062 7.738281 C 16.378906 7.648438 16.625 7.746094 16.714844 7.957031 C 16.808594 8.167969 16.710938 8.414062 16.5 8.507812 C 16.402344 8.550781 15.582031 8.953125 15.8125 9.902344 C 15.867188 10.125 15.730469 10.351562 15.507812 10.410156 C 15.472656 10.417969 15.4375 10.421875 15.40625 10.421875 Z M 15.40625 10.421875 " fill-opacity="1" fill-rule="nonzero"/><path fill="#ffffff" d="M 16.675781 14.285156 C 16.589844 14.285156 16.503906 14.257812 16.429688 14.203125 C 16.242188 14.0625 16.203125 13.804688 16.339844 13.617188 C 16.402344 13.53125 16.914062 12.769531 16.238281 12.066406 C 16.078125 11.898438 16.082031 11.632812 16.25 11.472656 C 16.417969 11.3125 16.679688 11.320312 16.839844 11.484375 C 17.785156 12.472656 17.367188 13.636719 17.011719 14.113281 C 16.929688 14.222656 16.804688 14.285156 16.675781 14.285156 Z M 16.675781 14.285156 " fill-opacity="1" fill-rule="nonzero"/><path fill="#ffffff" d="M 18.5 18.144531 C 18.269531 18.144531 18.082031 17.957031 18.082031 17.722656 L 18.082031 5.261719 C 18.082031 5.03125 18.269531 4.84375 18.5 4.84375 C 18.730469 4.84375 18.917969 5.03125 18.917969 5.261719 L 18.917969 17.722656 C 18.917969 17.957031 18.730469 18.144531 18.5 18.144531 Z M 18.5 18.144531 " fill-opacity="1" fill-rule="nonzero"/><path fill="#ffffff" d="M 22.828125 7.496094 C 22.785156 7.496094 22.738281 7.488281 22.691406 7.472656 C 22.472656 7.398438 22.359375 7.160156 22.433594 6.941406 C 22.503906 6.742188 22.539062 6.53125 22.539062 6.316406 C 22.539062 5.25 21.667969 4.382812 20.605469 4.382812 C 19.867188 4.382812 19.203125 4.792969 18.875 5.449219 C 18.769531 5.65625 18.519531 5.738281 18.3125 5.636719 C 18.105469 5.535156 18.023438 5.28125 18.125 5.074219 C 18.597656 4.132812 19.546875 3.542969 20.601562 3.542969 C 22.132812 3.542969 23.375 4.789062 23.375 6.316406 C 23.375 6.621094 23.324219 6.925781 23.222656 7.214844 C 23.164062 7.386719 23.003906 7.496094 22.828125 7.496094 Z M 22.828125 7.496094 " fill-opacity="1" fill-rule="nonzero"/><path fill="#ffffff" d="M 24.828125 9.921875 C 24.746094 9.921875 24.660156 9.894531 24.585938 9.84375 C 24.398438 9.710938 24.351562 9.449219 24.488281 9.261719 C 24.71875 8.933594 24.839844 8.546875 24.839844 8.144531 C 24.839844 7.082031 23.972656 6.214844 22.90625 6.214844 C 22.675781 6.214844 22.488281 6.027344 22.488281 5.792969 C 22.488281 5.5625 22.675781 5.375 22.90625 5.375 C 24.433594 5.375 25.675781 6.621094 25.675781 8.144531 C 25.675781 8.722656 25.503906 9.273438 25.171875 9.742188 C 25.089844 9.859375 24.960938 9.921875 24.828125 9.921875 Z M 24.828125 9.921875 " fill-opacity="1" fill-rule="nonzero"/><path fill="#ffffff" d="M 24.601562 13.976562 C 24.449219 13.976562 24.304688 13.894531 24.230469 13.75 C 24.125 13.542969 24.203125 13.292969 24.410156 13.1875 C 25.0625 12.851562 25.464844 12.195312 25.464844 11.464844 C 25.464844 10.460938 24.679688 9.613281 23.679688 9.535156 C 23.449219 9.519531 23.277344 9.316406 23.292969 9.085938 C 23.3125 8.855469 23.515625 8.683594 23.742188 8.703125 C 25.175781 8.8125 26.300781 10.023438 26.300781 11.464844 C 26.300781 12.511719 25.722656 13.453125 24.792969 13.929688 C 24.734375 13.960938 24.667969 13.976562 24.601562 13.976562 Z M 24.601562 13.976562 " fill-opacity="1" fill-rule="nonzero"/><path fill="#ffffff" d="M 22.929688 17.839844 C 22.710938 17.839844 22.527344 17.667969 22.515625 17.445312 C 22.5 17.214844 22.679688 17.015625 22.910156 17.003906 C 23.933594 16.945312 24.734375 16.097656 24.734375 15.070312 C 24.734375 14.175781 24.125 13.402344 23.253906 13.191406 C 23.03125 13.136719 22.890625 12.910156 22.945312 12.6875 C 23 12.464844 23.226562 12.324219 23.449219 12.378906 C 24.699219 12.679688 25.574219 13.785156 25.574219 15.074219 C 25.574219 16.542969 24.421875 17.757812 22.953125 17.839844 C 22.949219 17.839844 22.941406 17.839844 22.929688 17.839844 Z M 22.929688 17.839844 " fill-opacity="1" fill-rule="nonzero"/><path fill="#ffffff" d="M 20.664062 19.570312 C 19.550781 19.570312 18.550781 18.910156 18.113281 17.886719 C 18.023438 17.675781 18.121094 17.429688 18.335938 17.339844 C 18.546875 17.25 18.792969 17.347656 18.882812 17.558594 C 19.1875 18.273438 19.886719 18.734375 20.664062 18.734375 C 21.726562 18.734375 22.597656 17.863281 22.597656 16.800781 C 22.597656 15.941406 22.042969 15.195312 21.222656 14.949219 C 21 14.882812 20.875 14.648438 20.941406 14.425781 C 21.007812 14.207031 21.242188 14.078125 21.464844 14.148438 C 22.640625 14.503906 23.433594 15.570312 23.433594 16.800781 C 23.433594 18.328125 22.191406 19.570312 20.664062 19.570312 Z M 20.664062 19.570312 " fill-opacity="1" fill-rule="nonzero"/><path fill="#ffffff" d="M 21.59375 10.421875 C 21.5625 10.421875 21.527344 10.417969 21.492188 10.410156 C 21.269531 10.351562 21.132812 10.128906 21.1875 9.902344 C 21.425781 8.921875 20.539062 8.523438 20.5 8.507812 C 20.289062 8.414062 20.191406 8.167969 20.285156 7.957031 C 20.375 7.746094 20.621094 7.648438 20.835938 7.738281 C 21.378906 7.976562 22.324219 8.773438 22 10.101562 C 21.953125 10.292969 21.78125 10.421875 21.59375 10.421875 Z M 21.59375 10.421875 " fill-opacity="1" fill-rule="nonzero"/><path fill="#ffffff" d="M 20.324219 14.285156 C 20.195312 14.285156 20.070312 14.226562 19.988281 14.113281 C 19.632812 13.636719 19.214844 12.472656 20.160156 11.484375 C 20.320312 11.320312 20.582031 11.3125 20.75 11.472656 C 20.917969 11.632812 20.921875 11.898438 20.761719 12.066406 C 20.066406 12.792969 20.636719 13.582031 20.660156 13.617188 C 20.796875 13.800781 20.757812 14.0625 20.570312 14.203125 C 20.496094 14.257812 20.410156 14.285156 20.324219 14.285156 Z M 20.324219 14.285156 " fill-opacity="1" fill-rule="nonzero"/><path fill="#ffffff" d="M 21.570312 30.214844 L 15.429688 30.214844 C 13.945312 30.214844 12.734375 29.003906 12.734375 27.519531 C 12.734375 20.605469 11.257812 19.617188 9.828125 18.664062 C 8.480469 17.765625 7.089844 16.832031 7.089844 11.75 C 7.089844 5.457031 12.207031 0.335938 18.5 0.335938 C 24.792969 0.335938 29.914062 5.457031 29.914062 11.75 C 29.914062 16.832031 28.519531 17.761719 27.175781 18.664062 C 25.742188 19.617188 24.265625 20.605469 24.265625 27.519531 C 24.261719 29.003906 23.054688 30.214844 21.570312 30.214844 Z M 18.5 1.175781 C 12.667969 1.175781 7.925781 5.917969 7.925781 11.75 C 7.925781 16.386719 9.019531 17.121094 10.292969 17.96875 C 11.828125 18.992188 13.574219 20.160156 13.574219 27.519531 C 13.574219 28.542969 14.40625 29.378906 15.429688 29.378906 L 21.570312 29.378906 C 22.59375 29.378906 23.425781 28.546875 23.425781 27.519531 C 23.425781 20.15625 25.167969 18.992188 26.707031 17.96875 C 27.976562 17.121094 29.074219 16.386719 29.074219 11.75 C 29.074219 5.917969 24.332031 1.175781 18.5 1.175781 Z M 18.5 1.175781 " fill-opacity="1" fill-rule="nonzero"/><path fill="#ffffff" d="M 20.074219 25.550781 C 19.84375 25.550781 19.65625 25.363281 19.65625 25.132812 L 19.65625 19.078125 C 19.65625 18.847656 19.84375 18.660156 20.074219 18.660156 C 20.304688 18.660156 20.492188 18.847656 20.492188 19.078125 L 20.492188 25.132812 C 20.492188 25.363281 20.304688 25.550781 20.074219 25.550781 Z M 16.925781 25.550781 C 16.695312 25.550781 16.507812 25.363281 16.507812 25.132812 L 16.507812 19.078125 C 16.507812 18.847656 16.695312 18.660156 16.925781 18.660156 C 17.15625 18.660156 17.34375 18.847656 17.34375 19.078125 L 17.34375 25.132812 C 17.34375 25.363281 17.15625 25.550781 16.925781 25.550781 Z M 16.925781 25.550781 " fill-opacity="1" fill-rule="nonzero"/><path fill="#ffffff" d="M 23.886719 25.550781 L 13.082031 25.550781 C 12.851562 25.550781 12.664062 25.363281 12.664062 25.132812 C 12.664062 24.902344 12.851562 24.714844 13.082031 24.714844 L 23.886719 24.714844 C 24.117188 24.714844 24.304688 24.902344 24.304688 25.132812 C 24.304688 25.363281 24.117188 25.550781 23.886719 25.550781 Z M 23.886719 25.550781 " fill-opacity="1" fill-rule="nonzero"/><path fill="#ffffff" d="M 19.691406 34.527344 L 17.308594 34.527344 C 15.753906 34.527344 14.484375 33.261719 14.484375 31.707031 L 14.484375 29.734375 C 14.484375 29.503906 14.671875 29.316406 14.90625 29.316406 C 15.136719 29.316406 15.324219 29.503906 15.324219 29.734375 L 15.324219 31.707031 C 15.324219 32.800781 16.214844 33.691406 17.308594 33.691406 L 19.691406 33.691406 C 20.785156 33.691406 21.675781 32.800781 21.675781 31.707031 L 21.675781 29.734375 C 21.675781 29.503906 21.863281 29.316406 22.09375 29.316406 C 22.324219 29.316406 22.511719 29.503906 22.511719 29.734375 L 22.511719 31.707031 C 22.511719 33.261719 21.246094 34.527344 19.691406 34.527344 Z M 19.691406 34.527344 " fill-opacity="1" fill-rule="nonzero"/><path fill="#ffffff" d="M 18.5 36.757812 C 17.632812 36.757812 16.921875 36.050781 16.921875 35.179688 L 16.921875 34.109375 C 16.921875 33.878906 17.109375 33.691406 17.34375 33.691406 C 17.574219 33.691406 17.761719 33.878906 17.761719 34.109375 L 17.761719 35.179688 C 17.761719 35.589844 18.09375 35.917969 18.5 35.917969 C 18.90625 35.917969 19.238281 35.589844 19.238281 35.179688 L 19.238281 34.109375 C 19.238281 33.878906 19.425781 33.691406 19.65625 33.691406 C 19.890625 33.691406 20.078125 33.878906 20.078125 34.109375 L 20.078125 35.179688 C 20.078125 36.050781 19.367188 36.757812 18.5 36.757812 Z M 18.5 36.757812 " fill-opacity="1" fill-rule="nonzero"/><path fill="#ffffff" d="M 31.878906 21.054688 C 31.648438 21.054688 31.460938 20.867188 31.460938 20.636719 L 31.460938 15.089844 L 29.285156 15.089844 C 29.054688 15.089844 28.867188 14.902344 28.867188 14.671875 C 28.867188 14.441406 29.054688 14.253906 29.285156 14.253906 L 31.878906 14.253906 C 32.109375 14.253906 32.296875 14.441406 32.296875 14.671875 L 32.296875 20.636719 C 32.296875 20.867188 32.109375 21.054688 31.878906 21.054688 Z M 31.878906 21.054688 " fill-opacity="1" fill-rule="nonzero"/><path fill="#ffffff" d="M 31.789062 9.050781 L 29.046875 9.050781 C 28.816406 9.050781 28.628906 8.863281 28.628906 8.632812 C 28.628906 8.402344 28.816406 8.214844 29.046875 8.214844 L 31.371094 8.214844 L 31.371094 2.832031 C 31.371094 2.601562 31.558594 2.414062 31.789062 2.414062 C 32.019531 2.414062 32.207031 2.601562 32.207031 2.832031 L 32.207031 8.632812 C 32.207031 8.863281 32.019531 9.050781 31.789062 9.050781 Z M 31.789062 9.050781 " fill-opacity="1" fill-rule="nonzero"/><path fill="#ffffff" d="M 31.878906 23.453125 C 30.988281 23.453125 30.261719 22.726562 30.261719 21.835938 C 30.261719 20.945312 30.988281 20.21875 31.878906 20.21875 C 32.769531 20.21875 33.496094 20.945312 33.496094 21.835938 C 33.496094 22.726562 32.769531 23.453125 31.878906 23.453125 Z M 31.878906 21.054688 C 31.449219 21.054688 31.097656 21.40625 31.097656 21.835938 C 31.097656 22.265625 31.449219 22.617188 31.878906 22.617188 C 32.308594 22.617188 32.660156 22.265625 32.660156 21.835938 C 32.660156 21.40625 32.308594 21.054688 31.878906 21.054688 Z M 31.878906 21.054688 " fill-opacity="1" fill-rule="nonzero"/><path fill="#ffffff" d="M 31.878906 3.25 C 30.988281 3.25 30.261719 2.523438 30.261719 1.632812 C 30.261719 0.742188 30.988281 0.015625 31.878906 0.015625 C 32.769531 0.015625 33.496094 0.742188 33.496094 1.632812 C 33.496094 2.523438 32.769531 3.25 31.878906 3.25 Z M 31.878906 0.851562 C 31.449219 0.851562 31.097656 1.203125 31.097656 1.632812 C 31.097656 2.0625 31.449219 2.414062 31.878906 2.414062 C 32.308594 2.414062 32.660156 2.0625 32.660156 1.632812 C 32.660156 1.203125 32.308594 0.851562 31.878906 0.851562 Z M 31.878906 0.851562 " fill-opacity="1" fill-rule="nonzero"/><path fill="#ffffff" d="M 34.1875 12.167969 L 29.492188 12.167969 C 29.261719 12.167969 29.074219 11.980469 29.074219 11.75 C 29.074219 11.519531 29.261719 11.332031 29.492188 11.332031 L 34.1875 11.332031 C 34.417969 11.332031 34.605469 11.519531 34.605469 11.75 C 34.605469 11.980469 34.417969 12.167969 34.1875 12.167969 Z M 34.1875 12.167969 " fill-opacity="1" fill-rule="nonzero"/><g clip-path="url(#f6a4f65335)"><path fill="#ffffff" d="M 35.386719 13.367188 C 34.492188 13.367188 33.769531 12.640625 33.769531 11.75 C 33.769531 10.859375 34.492188 10.132812 35.386719 10.132812 C 36.277344 10.132812 37.003906 10.859375 37.003906 11.75 C 37.003906 12.640625 36.277344 13.367188 35.386719 13.367188 Z M 35.386719 10.96875 C 34.957031 10.96875 34.605469 11.320312 34.605469 11.75 C 34.605469 12.179688 34.957031 12.53125 35.386719 12.53125 C 35.816406 12.53125 36.164062 12.179688 36.164062 11.75 C 36.164062 11.320312 35.816406 10.96875 35.386719 10.96875 Z M 35.386719 10.96875 " fill-opacity="1" fill-rule="nonzero"/></g><path fill="#ffffff" d="M 5.121094 21.054688 C 4.890625 21.054688 4.703125 20.867188 4.703125 20.636719 L 4.703125 14.671875 C 4.703125 14.441406 4.890625 14.253906 5.121094 14.253906 L 7.714844 14.253906 C 7.945312 14.253906 8.132812 14.441406 8.132812 14.671875 C 8.132812 14.902344 7.945312 15.089844 7.714844 15.089844 L 5.539062 15.089844 L 5.539062 20.636719 C 5.539062 20.867188 5.351562 21.054688 5.121094 21.054688 Z M 5.121094 21.054688 " fill-opacity="1" fill-rule="nonzero"/><path fill="#ffffff" d="M 7.953125 9.050781 L 5.210938 9.050781 C 4.980469 9.050781 4.792969 8.863281 4.792969 8.632812 L 4.792969 2.832031 C 4.792969 2.601562 4.980469 2.414062 5.210938 2.414062 C 5.441406 2.414062 5.628906 2.601562 5.628906 2.832031 L 5.628906 8.214844 L 7.953125 8.214844 C 8.183594 8.214844 8.371094 8.402344 8.371094 8.632812 C 8.371094 8.863281 8.1875 9.050781 7.953125 9.050781 Z M 7.953125 9.050781 " fill-opacity="1" fill-rule="nonzero"/><path fill="#ffffff" d="M 5.121094 23.453125 C 4.230469 23.453125 3.503906 22.726562 3.503906 21.835938 C 3.503906 20.945312 4.230469 20.21875 5.121094 20.21875 C 6.011719 20.21875 6.738281 20.945312 6.738281 21.835938 C 6.738281 22.726562 6.015625 23.453125 5.121094 23.453125 Z M 5.121094 21.054688 C 4.691406 21.054688 4.339844 21.40625 4.339844 21.835938 C 4.339844 22.265625 4.691406 22.617188 5.121094 22.617188 C 5.550781 22.617188 5.902344 22.265625 5.902344 21.835938 C 5.902344 21.40625 5.550781 21.054688 5.121094 21.054688 Z M 5.121094 21.054688 " fill-opacity="1" fill-rule="nonzero"/><path fill="#ffffff" d="M 5.121094 3.25 C 4.230469 3.25 3.503906 2.523438 3.503906 1.632812 C 3.503906 0.742188 4.230469 0.015625 5.121094 0.015625 C 6.011719 0.015625 6.738281 0.742188 6.738281 1.632812 C 6.738281 2.523438 6.015625 3.25 5.121094 3.25 Z M 5.121094 0.851562 C 4.691406 0.851562 4.339844 1.203125 4.339844 1.632812 C 4.339844 2.0625 4.691406 2.414062 5.121094 2.414062 C 5.550781 2.414062 5.902344 2.0625 5.902344 1.632812 C 5.902344 1.203125 5.550781 0.851562 5.121094 0.851562 Z M 5.121094 0.851562 " fill-opacity="1" fill-rule="nonzero"/><path fill="#ffffff" d="M 7.507812 12.167969 L 2.8125 12.167969 C 2.582031 12.167969 2.394531 11.980469 2.394531 11.75 C 2.394531 11.519531 2.582031 11.332031 2.8125 11.332031 L 7.507812 11.332031 C 7.738281 11.332031 7.925781 11.519531 7.925781 11.75 C 7.925781 11.980469 7.738281 12.167969 7.507812 12.167969 Z M 7.507812 12.167969 " fill-opacity="1" fill-rule="nonzero"/><path fill="#ffffff" d="M 1.613281 13.367188 C 0.722656 13.367188 -0.00390625 12.640625 -0.00390625 11.75 C -0.00390625 10.859375 0.722656 10.132812 1.613281 10.132812 C 2.507812 10.132812 3.230469 10.859375 3.230469 11.75 C 3.230469 12.640625 2.507812 13.367188 1.613281 13.367188 Z M 1.613281 10.96875 C 1.183594 10.96875 0.832031 11.320312 0.832031 11.75 C 0.832031 12.179688 1.183594 12.53125 1.613281 12.53125 C 2.042969 12.53125 2.394531 12.179688 2.394531 11.75 C 2.394531 11.320312 2.042969 10.96875 1.613281 10.96875 Z M 1.613281 10.96875 " fill-opacity="1" fill-rule="nonzero"/></svg>