<svg xmlns="http://www.w3.org/2000/svg" xmlns:xlink="http://www.w3.org/1999/xlink" width="50" zoomAndPan="magnify" viewBox="0 0 37.5 37.499999" height="50" preserveAspectRatio="xMidYMid meet" version="1.0"><defs><clipPath id="d96cdf6224"><path d="M 1 1.316406 L 36 1.316406 L 36 22 L 1 22 Z M 1 1.316406 " clip-rule="nonzero"/></clipPath><clipPath id="6595c05288"><path d="M 6 33 L 10 33 L 10 35.363281 L 6 35.363281 Z M 6 33 " clip-rule="nonzero"/></clipPath><clipPath id="26a7f4ab46"><path d="M 27 33 L 31 33 L 31 35.363281 L 27 35.363281 Z M 27 33 " clip-rule="nonzero"/></clipPath><clipPath id="2e28e736eb"><path d="M 34 23 L 37.007812 23 L 37.007812 27 L 34 27 Z M 34 23 " clip-rule="nonzero"/></clipPath></defs><g clip-path="url(#d96cdf6224)"><path fill="#ffffff" d="M 31.058594 11.894531 L 29.695312 11.894531 C 29.722656 11.679688 29.738281 11.457031 29.738281 11.234375 C 29.738281 7.945312 27.078125 5.285156 23.789062 5.285156 C 23.238281 5.285156 22.699219 5.359375 22.1875 5.507812 C 20.847656 3.015625 18.222656 1.320312 15.199219 1.320312 C 10.820312 1.320312 7.269531 4.875 7.269531 9.25 C 7.269531 10.175781 7.425781 11.070312 7.722656 11.894531 L 5.949219 11.894531 C 3.394531 11.894531 1.320312 13.96875 1.320312 16.519531 C 1.320312 19.074219 3.394531 21.148438 5.949219 21.148438 L 31.058594 21.148438 C 33.613281 21.148438 35.683594 19.074219 35.683594 16.519531 C 35.683594 13.96875 33.613281 11.894531 31.058594 11.894531 Z M 31.058594 11.894531 " fill-opacity="1" fill-rule="nonzero"/></g><path fill="#d9d9d9" d="M 7.929688 34.363281 C 7.566406 34.363281 7.269531 34.066406 7.269531 33.703125 L 7.269531 29.078125 C 7.269531 28.714844 7.566406 28.414062 7.929688 28.414062 L 12.554688 28.414062 L 12.554688 21.808594 C 12.554688 21.445312 12.851562 21.148438 13.214844 21.148438 C 13.582031 21.148438 13.878906 21.445312 13.878906 21.808594 L 13.878906 29.078125 C 13.878906 29.441406 13.582031 29.738281 13.214844 29.738281 L 8.589844 29.738281 L 8.589844 33.703125 C 8.589844 34.066406 8.292969 34.363281 7.929688 34.363281 Z M 7.929688 34.363281 " fill-opacity="1" fill-rule="nonzero"/><path fill="#d9d9d9" d="M 29.078125 34.363281 C 28.714844 34.363281 28.414062 34.066406 28.414062 33.703125 L 28.414062 29.738281 L 23.789062 29.738281 C 23.425781 29.738281 23.128906 29.441406 23.128906 29.078125 L 23.128906 21.808594 C 23.128906 21.445312 23.425781 21.148438 23.789062 21.148438 C 24.152344 21.148438 24.449219 21.445312 24.449219 21.808594 L 24.449219 28.414062 L 29.078125 28.414062 C 29.441406 28.414062 29.738281 28.714844 29.738281 29.078125 L 29.738281 33.703125 C 29.738281 34.066406 29.441406 34.363281 29.078125 34.363281 Z M 29.078125 34.363281 " fill-opacity="1" fill-rule="nonzero"/><path fill="#a6a6a6" d="M 14.539062 21.148438 C 14.539062 21.320312 14.503906 21.492188 14.4375 21.652344 C 14.371094 21.8125 14.273438 21.957031 14.152344 22.082031 C 14.027344 22.207031 13.882812 22.300781 13.722656 22.367188 C 13.558594 22.433594 13.390625 22.46875 13.214844 22.46875 C 13.042969 22.46875 12.871094 22.433594 12.710938 22.367188 C 12.550781 22.300781 12.40625 22.207031 12.28125 22.082031 C 12.15625 21.957031 12.0625 21.8125 11.996094 21.652344 C 11.929688 21.492188 11.894531 21.320312 11.894531 21.148438 C 11.894531 20.972656 11.929688 20.804688 11.996094 20.640625 C 12.0625 20.480469 12.15625 20.335938 12.28125 20.210938 C 12.40625 20.089844 12.550781 19.992188 12.710938 19.925781 C 12.871094 19.859375 13.042969 19.824219 13.214844 19.824219 C 13.390625 19.824219 13.558594 19.859375 13.722656 19.925781 C 13.882812 19.992188 14.027344 20.089844 14.152344 20.210938 C 14.273438 20.335938 14.371094 20.480469 14.4375 20.640625 C 14.503906 20.804688 14.539062 20.972656 14.539062 21.148438 Z M 14.539062 21.148438 " fill-opacity="1" fill-rule="nonzero"/><path fill="#d9d9d9" d="M 18.503906 29.078125 C 18.140625 29.078125 17.84375 28.777344 17.84375 28.414062 L 17.84375 17.84375 C 17.84375 17.480469 18.140625 17.179688 18.503906 17.179688 C 18.867188 17.179688 19.164062 17.480469 19.164062 17.84375 L 19.164062 28.414062 C 19.164062 28.777344 18.867188 29.078125 18.503906 29.078125 Z M 18.503906 29.078125 " fill-opacity="1" fill-rule="nonzero"/><path fill="#a6a6a6" d="M 19.824219 17.179688 C 19.824219 17.355469 19.792969 17.527344 19.722656 17.6875 C 19.65625 17.847656 19.5625 17.992188 19.4375 18.117188 C 19.3125 18.238281 19.171875 18.335938 19.007812 18.402344 C 18.847656 18.46875 18.679688 18.503906 18.503906 18.503906 C 18.328125 18.503906 18.160156 18.46875 17.996094 18.402344 C 17.835938 18.335938 17.691406 18.238281 17.570312 18.117188 C 17.445312 17.992188 17.347656 17.847656 17.28125 17.6875 C 17.214844 17.527344 17.179688 17.355469 17.179688 17.179688 C 17.179688 17.007812 17.214844 16.835938 17.28125 16.675781 C 17.347656 16.515625 17.445312 16.371094 17.570312 16.246094 C 17.691406 16.125 17.835938 16.027344 17.996094 15.960938 C 18.160156 15.894531 18.328125 15.859375 18.503906 15.859375 C 18.679688 15.859375 18.847656 15.894531 19.007812 15.960938 C 19.171875 16.027344 19.3125 16.125 19.4375 16.246094 C 19.5625 16.371094 19.65625 16.515625 19.722656 16.675781 C 19.792969 16.835938 19.824219 17.007812 19.824219 17.179688 Z M 19.824219 17.179688 " fill-opacity="1" fill-rule="nonzero"/><path fill="#d9d9d9" d="M 35.023438 25.773438 L 29.078125 25.773438 C 28.714844 25.773438 28.414062 25.476562 28.414062 25.113281 L 28.414062 17.84375 C 28.414062 17.480469 28.714844 17.179688 29.078125 17.179688 C 29.441406 17.179688 29.738281 17.480469 29.738281 17.84375 L 29.738281 24.449219 L 35.023438 24.449219 C 35.386719 24.449219 35.683594 24.75 35.683594 25.113281 C 35.683594 25.476562 35.386719 25.773438 35.023438 25.773438 Z M 35.023438 25.773438 " fill-opacity="1" fill-rule="nonzero"/><path fill="#a6a6a6" d="M 30.398438 17.179688 C 30.398438 17.355469 30.363281 17.527344 30.296875 17.6875 C 30.230469 17.847656 30.136719 17.992188 30.011719 18.117188 C 29.886719 18.238281 29.746094 18.335938 29.582031 18.402344 C 29.421875 18.46875 29.25 18.503906 29.078125 18.503906 C 28.902344 18.503906 28.734375 18.46875 28.570312 18.402344 C 28.410156 18.335938 28.265625 18.238281 28.140625 18.117188 C 28.019531 17.992188 27.921875 17.847656 27.855469 17.6875 C 27.789062 17.527344 27.753906 17.355469 27.753906 17.179688 C 27.753906 17.007812 27.789062 16.835938 27.855469 16.675781 C 27.921875 16.515625 28.019531 16.371094 28.140625 16.246094 C 28.265625 16.125 28.410156 16.027344 28.570312 15.960938 C 28.734375 15.894531 28.902344 15.859375 29.078125 15.859375 C 29.25 15.859375 29.421875 15.894531 29.582031 15.960938 C 29.746094 16.027344 29.886719 16.125 30.011719 16.246094 C 30.136719 16.371094 30.230469 16.515625 30.296875 16.675781 C 30.363281 16.835938 30.398438 17.007812 30.398438 17.179688 Z M 30.398438 17.179688 " fill-opacity="1" fill-rule="nonzero"/><path fill="#d9d9d9" d="M 7.929688 25.773438 L 1.984375 25.773438 C 1.617188 25.773438 1.320312 25.476562 1.320312 25.113281 C 1.320312 24.75 1.617188 24.449219 1.984375 24.449219 L 7.269531 24.449219 L 7.269531 17.84375 C 7.269531 17.480469 7.566406 17.179688 7.929688 17.179688 C 8.292969 17.179688 8.589844 17.480469 8.589844 17.84375 L 8.589844 25.113281 C 8.589844 25.476562 8.292969 25.773438 7.929688 25.773438 Z M 7.929688 25.773438 " fill-opacity="1" fill-rule="nonzero"/><path fill="#a6a6a6" d="M 9.25 17.179688 C 9.25 17.355469 9.21875 17.527344 9.152344 17.6875 C 9.082031 17.847656 8.988281 17.992188 8.863281 18.117188 C 8.742188 18.238281 8.597656 18.335938 8.4375 18.402344 C 8.273438 18.46875 8.105469 18.503906 7.929688 18.503906 C 7.753906 18.503906 7.585938 18.46875 7.425781 18.402344 C 7.261719 18.335938 7.121094 18.238281 6.996094 18.117188 C 6.871094 17.992188 6.777344 17.847656 6.707031 17.6875 C 6.640625 17.527344 6.609375 17.355469 6.609375 17.179688 C 6.609375 17.007812 6.640625 16.835938 6.707031 16.675781 C 6.777344 16.515625 6.871094 16.371094 6.996094 16.246094 C 7.121094 16.125 7.261719 16.027344 7.425781 15.960938 C 7.585938 15.894531 7.753906 15.859375 7.929688 15.859375 C 8.105469 15.859375 8.273438 15.894531 8.4375 15.960938 C 8.597656 16.027344 8.742188 16.125 8.863281 16.246094 C 8.988281 16.371094 9.082031 16.515625 9.152344 16.675781 C 9.21875 16.835938 9.25 17.007812 9.25 17.179688 Z M 9.25 17.179688 " fill-opacity="1" fill-rule="nonzero"/><path fill="#a6a6a6" d="M 25.113281 21.148438 C 25.113281 21.320312 25.078125 21.492188 25.011719 21.652344 C 24.945312 21.8125 24.847656 21.957031 24.722656 22.082031 C 24.601562 22.207031 24.457031 22.300781 24.296875 22.367188 C 24.132812 22.433594 23.964844 22.46875 23.789062 22.46875 C 23.613281 22.46875 23.445312 22.433594 23.285156 22.367188 C 23.121094 22.300781 22.980469 22.207031 22.855469 22.082031 C 22.730469 21.957031 22.636719 21.8125 22.570312 21.652344 C 22.5 21.492188 22.46875 21.320312 22.46875 21.148438 C 22.46875 20.972656 22.5 20.804688 22.570312 20.640625 C 22.636719 20.480469 22.730469 20.335938 22.855469 20.210938 C 22.980469 20.089844 23.121094 19.992188 23.285156 19.925781 C 23.445312 19.859375 23.613281 19.824219 23.789062 19.824219 C 23.964844 19.824219 24.132812 19.859375 24.296875 19.925781 C 24.457031 19.992188 24.601562 20.089844 24.722656 20.210938 C 24.847656 20.335938 24.945312 20.480469 25.011719 20.640625 C 25.078125 20.804688 25.113281 20.972656 25.113281 21.148438 Z M 25.113281 21.148438 " fill-opacity="1" fill-rule="nonzero"/><g clip-path="url(#6595c05288)"><path fill="#a6a6a6" d="M 9.25 34.363281 C 9.25 34.539062 9.21875 34.707031 9.152344 34.867188 C 9.082031 35.03125 8.988281 35.175781 8.863281 35.296875 C 8.742188 35.421875 8.597656 35.515625 8.4375 35.585938 C 8.273438 35.652344 8.105469 35.683594 7.929688 35.683594 C 7.753906 35.683594 7.585938 35.652344 7.425781 35.585938 C 7.261719 35.515625 7.121094 35.421875 6.996094 35.296875 C 6.871094 35.175781 6.777344 35.03125 6.707031 34.867188 C 6.640625 34.707031 6.609375 34.539062 6.609375 34.363281 C 6.609375 34.1875 6.640625 34.019531 6.707031 33.859375 C 6.777344 33.695312 6.871094 33.550781 6.996094 33.429688 C 7.121094 33.304688 7.261719 33.210938 7.425781 33.140625 C 7.585938 33.074219 7.753906 33.042969 7.929688 33.042969 C 8.105469 33.042969 8.273438 33.074219 8.4375 33.140625 C 8.597656 33.210938 8.742188 33.304688 8.863281 33.429688 C 8.988281 33.550781 9.082031 33.695312 9.152344 33.859375 C 9.21875 34.019531 9.25 34.1875 9.25 34.363281 Z M 9.25 34.363281 " fill-opacity="1" fill-rule="nonzero"/></g><g clip-path="url(#26a7f4ab46)"><path fill="#a6a6a6" d="M 30.398438 34.363281 C 30.398438 34.539062 30.363281 34.707031 30.296875 34.867188 C 30.230469 35.03125 30.136719 35.175781 30.011719 35.296875 C 29.886719 35.421875 29.746094 35.515625 29.582031 35.585938 C 29.421875 35.652344 29.25 35.683594 29.078125 35.683594 C 28.902344 35.683594 28.734375 35.652344 28.570312 35.585938 C 28.410156 35.515625 28.265625 35.421875 28.140625 35.296875 C 28.019531 35.175781 27.921875 35.03125 27.855469 34.867188 C 27.789062 34.707031 27.753906 34.539062 27.753906 34.363281 C 27.753906 34.1875 27.789062 34.019531 27.855469 33.859375 C 27.921875 33.695312 28.019531 33.550781 28.140625 33.429688 C 28.265625 33.304688 28.410156 33.210938 28.570312 33.140625 C 28.734375 33.074219 28.902344 33.042969 29.078125 33.042969 C 29.25 33.042969 29.421875 33.074219 29.582031 33.140625 C 29.746094 33.210938 29.886719 33.304688 30.011719 33.429688 C 30.136719 33.550781 30.230469 33.695312 30.296875 33.859375 C 30.363281 34.019531 30.398438 34.1875 30.398438 34.363281 Z M 30.398438 34.363281 " fill-opacity="1" fill-rule="nonzero"/></g><path fill="#a6a6a6" d="M 19.824219 29.078125 C 19.824219 29.25 19.792969 29.421875 19.722656 29.582031 C 19.65625 29.746094 19.5625 29.886719 19.4375 30.011719 C 19.3125 30.136719 19.171875 30.230469 19.007812 30.296875 C 18.847656 30.363281 18.679688 30.398438 18.503906 30.398438 C 18.328125 30.398438 18.160156 30.363281 17.996094 30.296875 C 17.835938 30.230469 17.691406 30.136719 17.570312 30.011719 C 17.445312 29.886719 17.347656 29.746094 17.28125 29.582031 C 17.214844 29.421875 17.179688 29.25 17.179688 29.078125 C 17.179688 28.902344 17.214844 28.734375 17.28125 28.570312 C 17.347656 28.410156 17.445312 28.265625 17.570312 28.140625 C 17.691406 28.019531 17.835938 27.921875 17.996094 27.855469 C 18.160156 27.789062 18.328125 27.753906 18.503906 27.753906 C 18.679688 27.753906 18.847656 27.789062 19.007812 27.855469 C 19.171875 27.921875 19.3125 28.019531 19.4375 28.140625 C 19.5625 28.265625 19.65625 28.410156 19.722656 28.570312 C 19.792969 28.734375 19.824219 28.902344 19.824219 29.078125 Z M 19.824219 29.078125 " fill-opacity="1" fill-rule="nonzero"/><g clip-path="url(#2e28e736eb)"><path fill="#a6a6a6" d="M 37.007812 25.113281 C 37.007812 25.285156 36.972656 25.457031 36.90625 25.617188 C 36.839844 25.78125 36.742188 25.921875 36.621094 26.046875 C 36.496094 26.171875 36.351562 26.265625 36.191406 26.332031 C 36.027344 26.398438 35.859375 26.433594 35.683594 26.433594 C 35.507812 26.433594 35.339844 26.398438 35.179688 26.332031 C 35.015625 26.265625 34.875 26.171875 34.75 26.046875 C 34.625 25.921875 34.53125 25.78125 34.464844 25.617188 C 34.398438 25.457031 34.363281 25.285156 34.363281 25.113281 C 34.363281 24.9375 34.398438 24.769531 34.464844 24.605469 C 34.53125 24.445312 34.625 24.300781 34.75 24.175781 C 34.875 24.054688 35.015625 23.957031 35.179688 23.890625 C 35.339844 23.824219 35.507812 23.789062 35.683594 23.789062 C 35.859375 23.789062 36.027344 23.824219 36.191406 23.890625 C 36.351562 23.957031 36.496094 24.054688 36.621094 24.175781 C 36.742188 24.300781 36.839844 24.445312 36.90625 24.605469 C 36.972656 24.769531 37.007812 24.9375 37.007812 25.113281 Z M 37.007812 25.113281 " fill-opacity="1" fill-rule="nonzero"/></g><path fill="#a6a6a6" d="M 2.644531 25.113281 C 2.644531 25.285156 2.609375 25.457031 2.542969 25.617188 C 2.476562 25.78125 2.378906 25.921875 2.257812 26.046875 C 2.132812 26.171875 1.988281 26.265625 1.828125 26.332031 C 1.664062 26.398438 1.496094 26.433594 1.320312 26.433594 C 1.144531 26.433594 0.976562 26.398438 0.816406 26.332031 C 0.652344 26.265625 0.511719 26.171875 0.386719 26.046875 C 0.261719 25.921875 0.167969 25.78125 0.101562 25.617188 C 0.0351562 25.457031 0 25.285156 0 25.113281 C 0 24.9375 0.0351562 24.769531 0.101562 24.605469 C 0.167969 24.445312 0.261719 24.300781 0.386719 24.175781 C 0.511719 24.054688 0.652344 23.957031 0.816406 23.890625 C 0.976562 23.824219 1.144531 23.789062 1.320312 23.789062 C 1.496094 23.789062 1.664062 23.824219 1.828125 23.890625 C 1.988281 23.957031 2.132812 24.054688 2.257812 24.175781 C 2.378906 24.300781 2.476562 24.445312 2.542969 24.605469 C 2.609375 24.769531 2.644531 24.9375 2.644531 25.113281 Z M 2.644531 25.113281 " fill-opacity="1" fill-rule="nonzero"/></svg>