<svg xmlns="http://www.w3.org/2000/svg" xmlns:xlink="http://www.w3.org/1999/xlink" width="500" zoomAndPan="magnify" viewBox="0 0 375 374.999991" height="500" preserveAspectRatio="xMidYMid meet" version="1.0"><defs><clipPath id="aebb81bf83"><path d="M 0 122.984375 L 375 122.984375 L 375 252.015625 L 0 252.015625 Z M 0 122.984375 " clip-rule="nonzero"/></clipPath><clipPath id="cd4367527d"><path d="M 0 0 L 375 0 L 375 125.421875 L 0 125.421875 Z M 0 0 " clip-rule="nonzero"/></clipPath><clipPath id="d6d5bb9ae5"><path d="M 0 250.84375 L 375 250.84375 L 375 375 L 0 375 Z M 0 250.84375 " clip-rule="nonzero"/></clipPath><clipPath id="880e2bb528"><path d="M 125 0 L 250 0 L 250 124.992188 L 125 124.992188 Z M 125 0 " clip-rule="nonzero"/></clipPath><clipPath id="85e078500a"><path d="M 125 124.992188 L 125 62.492188 L 187.5 -0.0078125 L 250 62.492188 L 250 124.992188 L 187.5 62.492188 Z M 125 124.992188 " clip-rule="nonzero"/></clipPath><clipPath id="676e82e5b6"><path d="M 124.992188 250 L 249.992188 250 L 249.992188 375 L 124.992188 375 Z M 124.992188 250 " clip-rule="nonzero"/></clipPath><clipPath id="89d593c48f"><path d="M 249.992188 250 L 249.992188 312.5 L 187.492188 375 L 124.992188 312.5 L 124.992188 250 L 187.492188 312.5 Z M 249.992188 250 " clip-rule="nonzero"/></clipPath><clipPath id="c0adf8779e"><path d="M 250 125 L 375 125 L 375 250 L 250 250 Z M 250 125 " clip-rule="nonzero"/></clipPath><clipPath id="af195fc271"><path d="M 250 125 L 312.5 125 L 375 187.5 L 312.5 250 L 250 250 L 312.5 187.5 Z M 250 125 " clip-rule="nonzero"/></clipPath><clipPath id="2daf69e96d"><path d="M 0 124.992188 L 124.992188 124.992188 L 124.992188 249.992188 L 0 249.992188 Z M 0 124.992188 " clip-rule="nonzero"/></clipPath><clipPath id="2f64c7af5c"><path d="M 124.992188 249.992188 L 62.492188 249.992188 L -0.0078125 187.492188 L 62.492188 124.992188 L 124.992188 124.992188 L 62.492188 187.492188 Z M 124.992188 249.992188 " clip-rule="nonzero"/></clipPath><clipPath id="5f9c4d8003"><path d="M 156.09375 156.09375 L 218.90625 156.09375 L 218.90625 218.90625 L 156.09375 218.90625 Z M 156.09375 156.09375 " clip-rule="nonzero"/></clipPath><clipPath id="300000a3c7"><path d="M 187.5 156.09375 C 170.15625 156.09375 156.09375 170.15625 156.09375 187.5 C 156.09375 204.84375 170.15625 218.90625 187.5 218.90625 C 204.84375 218.90625 218.90625 204.84375 218.90625 187.5 C 218.90625 170.15625 204.84375 156.09375 187.5 156.09375 Z M 187.5 156.09375 " clip-rule="nonzero"/></clipPath></defs><g clip-path="url(#aebb81bf83)"><path fill="#004aad" d="M -31.207031 122.984375 L 391.675781 122.984375 L 391.675781 252.015625 L -31.207031 252.015625 Z M -31.207031 122.984375 " fill-opacity="1" fill-rule="nonzero"/></g><g clip-path="url(#cd4367527d)"><path fill="#002960" d="M -16.765625 0 L 391.835938 0 L 391.835938 125.421875 L -16.765625 125.421875 Z M -16.765625 0 " fill-opacity="1" fill-rule="nonzero"/></g><g clip-path="url(#d6d5bb9ae5)"><path fill="#5070ca" d="M -16.765625 250.84375 L 391.835938 250.84375 L 391.835938 376.265625 L -16.765625 376.265625 Z M -16.765625 250.84375 " fill-opacity="1" fill-rule="nonzero"/></g><g clip-path="url(#880e2bb528)"><g clip-path="url(#85e078500a)"><path fill="#ffffff" d="M 125 124.992188 L 125 -0.0078125 L 250 -0.0078125 L 250 124.992188 Z M 125 124.992188 " fill-opacity="1" fill-rule="nonzero"/></g></g><g clip-path="url(#676e82e5b6)"><g clip-path="url(#89d593c48f)"><path fill="#ffffff" d="M 249.992188 250 L 249.992188 375 L 124.992188 375 L 124.992188 250 Z M 249.992188 250 " fill-opacity="1" fill-rule="nonzero"/></g></g><g clip-path="url(#c0adf8779e)"><g clip-path="url(#af195fc271)"><path fill="#ffffff" d="M 250 125 L 375 125 L 375 250 L 250 250 Z M 250 125 " fill-opacity="1" fill-rule="nonzero"/></g></g><g clip-path="url(#2daf69e96d)"><g clip-path="url(#2f64c7af5c)"><path fill="#ffffff" d="M 124.992188 249.992188 L -0.0078125 249.992188 L -0.0078125 124.992188 L 124.992188 124.992188 Z M 124.992188 249.992188 " fill-opacity="1" fill-rule="nonzero"/></g></g><g clip-path="url(#5f9c4d8003)"><g clip-path="url(#300000a3c7)"><path fill="#ffffff" d="M 156.09375 156.09375 L 218.90625 156.09375 L 218.90625 218.90625 L 156.09375 218.90625 Z M 156.09375 156.09375 " fill-opacity="1" fill-rule="nonzero"/></g></g></svg>