<svg xmlns="http://www.w3.org/2000/svg" xmlns:xlink="http://www.w3.org/1999/xlink" width="500" zoomAndPan="magnify" viewBox="0 0 375 374.999991" height="500" preserveAspectRatio="xMidYMid meet" version="1.0"><defs><clipPath id="19b1769526"><path d="M 125 0 L 250 0 L 250 124.992188 L 125 124.992188 Z M 125 0 " clip-rule="nonzero"/></clipPath><clipPath id="4b59cbaf98"><path d="M 125 124.992188 L 125 62.492188 L 187.5 -0.0078125 L 250 62.492188 L 250 124.992188 L 187.5 62.492188 Z M 125 124.992188 " clip-rule="nonzero"/></clipPath><clipPath id="13d6a15106"><path d="M 124.992188 250 L 249.992188 250 L 249.992188 375 L 124.992188 375 Z M 124.992188 250 " clip-rule="nonzero"/></clipPath><clipPath id="08763255b4"><path d="M 249.992188 250 L 249.992188 312.5 L 187.492188 375 L 124.992188 312.5 L 124.992188 250 L 187.492188 312.5 Z M 249.992188 250 " clip-rule="nonzero"/></clipPath><clipPath id="bd4ef2e476"><path d="M 250 125 L 375 125 L 375 250 L 250 250 Z M 250 125 " clip-rule="nonzero"/></clipPath><clipPath id="1422280c05"><path d="M 250 125 L 312.5 125 L 375 187.5 L 312.5 250 L 250 250 L 312.5 187.5 Z M 250 125 " clip-rule="nonzero"/></clipPath><clipPath id="c056ae88c4"><path d="M 0 124.992188 L 124.992188 124.992188 L 124.992188 249.992188 L 0 249.992188 Z M 0 124.992188 " clip-rule="nonzero"/></clipPath><clipPath id="8613fbc5da"><path d="M 124.992188 249.992188 L 62.492188 249.992188 L -0.0078125 187.492188 L 62.492188 124.992188 L 124.992188 124.992188 L 62.492188 187.492188 Z M 124.992188 249.992188 " clip-rule="nonzero"/></clipPath><clipPath id="8b01ba1104"><path d="M 156.09375 156.09375 L 218.90625 156.09375 L 218.90625 218.90625 L 156.09375 218.90625 Z M 156.09375 156.09375 " clip-rule="nonzero"/></clipPath><clipPath id="08f0727c91"><path d="M 187.5 156.09375 C 170.15625 156.09375 156.09375 170.15625 156.09375 187.5 C 156.09375 204.84375 170.15625 218.90625 187.5 218.90625 C 204.84375 218.90625 218.90625 204.84375 218.90625 187.5 C 218.90625 170.15625 204.84375 156.09375 187.5 156.09375 Z M 187.5 156.09375 " clip-rule="nonzero"/></clipPath></defs><g clip-path="url(#19b1769526)"><g clip-path="url(#4b59cbaf98)"><path fill="#ffffff" d="M 125 124.992188 L 125 -0.0078125 L 250 -0.0078125 L 250 124.992188 Z M 125 124.992188 " fill-opacity="1" fill-rule="nonzero"/></g></g><g clip-path="url(#13d6a15106)"><g clip-path="url(#08763255b4)"><path fill="#ffffff" d="M 249.992188 250 L 249.992188 375 L 124.992188 375 L 124.992188 250 Z M 249.992188 250 " fill-opacity="1" fill-rule="nonzero"/></g></g><g clip-path="url(#bd4ef2e476)"><g clip-path="url(#1422280c05)"><path fill="#ffffff" d="M 250 125 L 375 125 L 375 250 L 250 250 Z M 250 125 " fill-opacity="1" fill-rule="nonzero"/></g></g><g clip-path="url(#c056ae88c4)"><g clip-path="url(#8613fbc5da)"><path fill="#ffffff" d="M 124.992188 249.992188 L -0.0078125 249.992188 L -0.0078125 124.992188 L 124.992188 124.992188 Z M 124.992188 249.992188 " fill-opacity="1" fill-rule="nonzero"/></g></g><g clip-path="url(#8b01ba1104)"><g clip-path="url(#08f0727c91)"><path fill="#ffffff" d="M 156.09375 156.09375 L 218.90625 156.09375 L 218.90625 218.90625 L 156.09375 218.90625 Z M 156.09375 156.09375 " fill-opacity="1" fill-rule="nonzero"/></g></g></svg>